<?xml version="1.0" encoding="UTF-8" standalone="no"?>
<svg
   xmlns:dc="http://purl.org/dc/elements/1.1/"
   xmlns:cc="http://creativecommons.org/ns#"
   xmlns:rdf="http://www.w3.org/1999/02/22-rdf-syntax-ns#"
   xmlns:svg="http://www.w3.org/2000/svg"
   xmlns="http://www.w3.org/2000/svg"
   id="svg8"
   version="1.1"
   viewBox="0 0 123.74858 115.02098"
   height="115.02099mm"
   width="123.74859mm">
  <defs
     id="defs2" />
  <metadata
     id="metadata5">
    <rdf:RDF>
      <cc:Work
         rdf:about="">
        <dc:format>image/svg+xml</dc:format>
        <dc:type
           rdf:resource="http://purl.org/dc/dcmitype/StillImage" />
        <dc:title></dc:title>
      </cc:Work>
    </rdf:RDF>
  </metadata>
  <g
     id="layer1"
     transform="translate(-49.012363,-87.63596)">
    <g
       id="g3777"
       transform="translate(-2.8986986,-0.43480478)">
      <g
         transform="matrix(0,0.51597709,-0.58311821,0,174.04049,85.210073)"
         id="g7817">
        <path
           id="path4775"
           d="m 77.158348,202.14292 c -2.678531,-1.41366 -2.902469,-2.22998 -1.780374,-6.48992 0.899874,-3.41629 0.79038,-6.6584 -0.334561,-9.9061 -2.132223,-6.15575 -2.591712,-9.88892 -1.756452,-14.27055 0.511952,-2.68563 0.156174,-6.47485 -1.091559,-11.62564 -2.393408,-9.88027 -2.619537,-12.90106 -1.641375,-21.92671 0.669254,-6.17531 0.277481,-12.10815 -0.93467,-14.15426 -0.257796,-0.43516 -1.430387,3.33831 -1.757119,5.65451 -0.239887,1.70056 -1.072176,3.56425 -4.343557,9.72621 -1.864809,3.51255 -2.07294,4.0661 -2.069208,5.50325 0.0054,2.08075 -3.342134,6.86325 -4.803977,6.86325 -0.214871,0 -0.554108,0.17799 -0.753862,0.39552 -0.352446,0.38381 -1.941519,0.39176 -2.622295,0.0131 -0.820078,-0.45612 -0.685009,-2.02147 0.354779,-4.11168 1.039173,-2.08898 1.039173,-2.08898 -0.190378,-2.16953 -1.517504,-0.0994 -1.96167,-1.0846 -0.686201,-1.52203 0.403671,-0.13844 1.039086,-0.62502 1.412034,-1.08128 0.372953,-0.45626 1.291484,-1.22747 2.041185,-1.71381 1.777292,-1.15294 2.374611,-2.59323 3.142018,-7.57623 0.710456,-4.6132 0.907939,-5.26771 2.154522,-7.1407 1.329388,-1.99741 1.309724,-1.93344 1.805014,-5.8728 1.158857,-9.2171 2.062336,-10.20218 12.069122,-13.15917 3.454104,-1.02068 4.121933,-2.67028 2.156518,-5.32679 -4.476276,-6.050252 -1.79403,-13.837744 4.766137,-13.837744 6.560167,0 9.282871,7.787492 4.838027,13.837744 -1.951614,2.65651 -1.275216,4.30611 2.18419,5.32679 10.037814,2.9616 10.929344,3.93248 12.146544,13.22761 0.25586,1.95391 0.62701,3.81286 0.82479,4.131 2.34784,3.77676 2.561,4.38405 3.32439,9.47131 0.64233,4.28054 1.30927,5.79337 3.05028,6.91898 0.75223,0.48633 1.67477,1.25755 2.05009,1.71381 0.37532,0.45626 1.01326,0.94283 1.41765,1.08127 1.27775,0.43744 0.8387,1.42262 -0.67829,1.52204 -1.22913,0.0806 -1.22913,0.0806 -0.17911,2.16952 1.05065,2.09021 1.19385,3.65557 0.37614,4.11169 -0.67881,0.37864 -2.26792,0.37069 -2.62236,-0.0131 -0.20088,-0.21752 -0.54105,-0.39551 -0.75592,-0.39551 -1.46184,0 -4.83423,-4.7825 -4.83963,-6.86325 -0.004,-1.43715 -0.21474,-1.9907 -2.0978,-5.50325 -3.303391,-6.16196 -4.145363,-8.02565 -4.394087,-9.72621 -0.338764,-2.3162 -1.530958,-6.08967 -1.786493,-5.65451 -1.201522,2.04611 -1.562471,7.97895 -0.861136,14.15426 1.02505,9.02565 0.814615,12.04644 -1.527463,21.92671 -1.220974,5.15079 -1.557067,8.94001 -1.031163,11.62564 0.858023,4.38163 0.417929,8.1148 -1.682315,14.27055 -1.108068,3.2477 -1.200719,6.48981 -0.283097,9.9061 1.147442,4.27191 0.922526,5.09609 -1.772437,6.49495 -2.993082,1.5536 -3.33729,1.15509 -3.396188,-3.93203 -0.02529,-2.18281 -0.148362,-4.88607 -0.273537,-6.00723 -0.213272,-1.91028 -0.177059,-2.12597 0.575819,-3.42946 0.898728,-1.55602 0.893873,-2.9904 -0.0272,-8.02581 -0.524565,-2.86784 -0.550315,-4.49822 -0.118608,-7.51064 0.300062,-2.0938 0.273916,-2.42941 -0.321822,-4.13103 -0.490474,-1.40095 -0.717282,-2.97991 -0.931149,-6.48229 -0.155502,-2.54661 -0.420285,-6.77333 -0.588402,-9.39271 -0.168119,-2.61937 -0.309416,-5.22882 -0.313995,-5.79878 -0.02056,-2.55798 -0.266473,-0.32916 -0.566841,5.13733 -0.81128,14.76475 -0.798918,14.62461 -1.45864,16.53645 -0.587255,1.70183 -0.611648,2.03697 -0.30067,4.13103 0.447356,3.01242 0.430078,4.6428 -0.07959,7.51064 -0.89489,5.03541 -0.892293,6.46979 0.01451,8.02581 0.75965,1.30349 0.796984,1.51918 0.593636,3.42946 -0.119352,1.12116 -0.228397,3.82442 -0.242329,6.00723 -0.03243,5.08026 -0.403895,5.50911 -3.401567,3.927 z"
           style="fill:none;stroke:#cccccc;stroke-width:0.18309166;stroke-miterlimit:4;stroke-dasharray:none;stroke-dashoffset:0" />
        <path
           id="feet"
           d="m 79.688212,201.354 c 0.105969,-0.3841 0.108644,-1.90215 0.0059,-3.37343 -0.12875,-1.84443 -0.05396,-3.36676 0.240857,-4.90268 0.517295,-2.69495 0.01402,-4.01281 -2.045748,-5.35692 -1.210792,-0.79011 -1.210792,-0.79011 -1.385087,3.6618 -0.103936,2.65469 -0.357753,5.08217 -0.628736,6.01315 -0.645795,2.21865 -0.432201,2.80764 1.379487,3.80393 1.860885,1.02335 2.187771,1.04406 2.433287,0.15415 z"
           style="fill:none;stroke:#cccccc;stroke-width:0.18307075;stroke-miterlimit:4;stroke-dasharray:none;stroke-dashoffset:0">
          <title
             id="title7920">feet</title>
        </path>
        <path
           id="feet2"
           d="m 87.872875,201.21089 c 1.857274,-1.00258 2.069039,-1.57716 1.406044,-3.81497 -0.275819,-0.93098 -0.542249,-3.35846 -0.659975,-6.01315 -0.197425,-4.45191 -0.197425,-4.45191 -1.404111,-3.6618 -2.052788,1.34411 -2.549216,2.66197 -2.017918,5.35692 0.302798,1.53592 0.385495,3.05825 0.266327,4.90268 -0.278579,4.31163 -0.0819,4.57528 2.409633,3.23032 z"
           style="fill:none;stroke:#cccccc;stroke-width:0.18307075;stroke-miterlimit:4;stroke-dasharray:none;stroke-dashoffset:0">
          <title
             id="title7918">feet</title>
        </path>
        <path
           id="shins8"
           d="m 78.645388,186.00369 c 0.18041,-1.42123 -1.034343,-2.72398 -1.50335,-1.61225 -0.336194,0.79691 -0.606421,0.89376 -1.144325,0.41011 -0.468208,-0.42099 -0.455672,0.089 0.01641,0.6676 0.354342,0.43433 1.932563,1.44277 2.320341,1.48264 0.103464,0.0106 0.243378,-0.41601 0.310921,-0.9481 z"
           style="fill:none;stroke:#cccccc;stroke-width:0.18307075;stroke-miterlimit:4;stroke-dasharray:none;stroke-dashoffset:0">
          <title
             id="title7948">shins</title>
        </path>
        <path
           id="shins9"
           d="m 87.823823,186.4118 c 0.961495,-0.51198 1.62071,-1.21425 1.619384,-1.72515 -2.9e-4,-0.11143 -0.158687,-0.0597 -0.351993,0.1149 -0.535393,0.48365 -0.806122,0.3868 -1.146456,-0.41011 -0.474782,-1.11173 -1.682768,0.19102 -1.494974,1.61225 0.150579,1.13958 0.05414,1.11093 1.374039,0.40811 z"
           style="fill:none;stroke:#cccccc;stroke-width:0.18307075;stroke-miterlimit:4;stroke-dasharray:none;stroke-dashoffset:0">
          <title
             id="title7946">shins</title>
        </path>
        <path
           id="knees2"
           d="m 78.75512,171.09613 c 0,0 0,0 1.096997,-2.64373 1.022661,-2.47525 0.956231,-4.7646 -0.13825,-4.7646 -1.150452,0 -2.94357,-1.46055 -2.972186,-2.42094 -0.01366,-0.45873 -0.196534,-0.2672 -0.697358,0.73039 -0.37336,0.74369 -0.961645,1.53099 -1.307301,1.74954 -0.601537,0.38035 -0.619486,0.5257 -0.41889,3.39186 0.144849,2.06962 0.284718,2.81025 0.452859,2.398 0.381053,-0.93427 1.192731,-0.57135 2.008471,0.89802 z"
           style="fill:none;stroke:#cccccc;stroke-width:0.18307075;stroke-miterlimit:4;stroke-dasharray:none;stroke-dashoffset:0">
          <title
             id="title7902">knees</title>
        </path>
        <path
           id="knees"
           d="m 76.551784,168.11957 c -0.163548,-0.1819 -0.368872,-0.80698 -0.456274,-1.38907 -0.0874,-0.58208 -0.251862,-1.38575 -0.365461,-1.78593 -0.303985,-1.07086 0.386409,-0.92624 0.906784,0.18994 0.235271,0.50465 0.428726,1.28728 0.4299,1.73919 0.0028,1.03287 0.986203,1.02075 1.104592,-0.0136 0.164156,-1.43418 0.682811,-2.64313 1.133941,-2.64313 0.359823,0 0.412804,0.15895 0.24251,0.7276 -0.11984,0.40019 -0.305004,1.20821 -0.411475,1.79562 -0.303216,1.67288 -1.666459,2.40046 -2.584517,1.37939 z"
           style="fill:none;stroke:#cccccc;stroke-width:0.18307075;stroke-miterlimit:4;stroke-dasharray:none;stroke-dashoffset:0;stroke-opacity:1">
          <title
             id="title7944">knees</title>
        </path>
        <path
           id="knees4"
           d="m 88.231881,170.43467 c 0.811534,-1.46966 1.621002,-1.8319 2.006751,-0.89802 0.170282,0.41225 0.306304,-0.32838 0.440401,-2.398 0.185706,-2.86616 0.167001,-3.01151 -0.436511,-3.39186 -0.346792,-0.21855 -0.939168,-1.00585 -1.316391,-1.74954 -0.506007,-0.99759 -0.689866,-1.18912 -0.701151,-0.73039 -0.02364,0.96039 -1.809158,2.42094 -2.95961,2.42094 -1.094482,0 -1.149017,2.28935 -0.113498,4.7646 0.06146,4.85342 3.080009,1.98227 3.080009,1.98227 z"
           style="fill:none;stroke:#cccccc;stroke-width:0.18307075;stroke-miterlimit:4;stroke-dasharray:none;stroke-dashoffset:0">
          <title
             id="title7904">knees</title>
        </path>
        <path
           id="knees3"
           d="m 86.278921,168.12924 c -0.121551,-0.17658 -0.310607,-0.80166 -0.420129,-1.38906 -0.109521,-0.58741 -0.298883,-1.39543 -0.420802,-1.79561 -0.173248,-0.56865 -0.121094,-0.72761 0.238731,-0.72761 0.451131,0 0.976064,1.20895 1.147671,2.64313 0.123764,1.03436 1.107345,1.04648 1.104662,0.0136 -0.0012,-0.45191 0.188217,-1.23454 0.420867,-1.73919 0.514574,-1.11618 1.204218,-1.26079 0.905796,-0.18994 -0.11152,0.40018 -0.271804,1.20385 -0.356184,1.78594 -0.2298,1.58527 -1.884324,2.46837 -2.620612,1.39873 z"
           style="fill:none;stroke:#cccccc;stroke-width:0.18307075;stroke-miterlimit:4;stroke-dasharray:none;stroke-dashoffset:0">
          <title
             id="title7942">knees</title>
        </path>
        <path
           id="shins2"
           d="m 76.725909,175.72634 c -0.190284,-6.88463 -1.503836,-7.71765 -1.877443,-1.19063 -0.241861,4.22543 1.451038,12.50289 1.876144,9.0279 0.133518,-1.0914 0.06163,-5.65446 0.0013,-7.83727 z"
           style="fill:none;stroke:#cccccc;stroke-width:0.18307075;stroke-miterlimit:4;stroke-dasharray:none;stroke-dashoffset:0">
          <title
             id="title7930">shins</title>
        </path>
        <path
           id="shins4"
           d="m 89.805833,180.70372 c 0.320733,-2.15941 0.664392,-7.6905 -0.05568,-10.00447 -0.896017,-2.87934 -2.289808,6.68933 -1.410725,12.72357 0.32493,2.23039 0.988303,0.005 1.114814,-0.9639 z"
           style="fill:none;stroke:#cccccc;stroke-width:0.18307075;stroke-miterlimit:4;stroke-dasharray:none;stroke-dashoffset:0">
          <title
             id="title7940">shins</title>
        </path>
        <path
           id="shins7"
           d="m 74.779751,180.44408 c -0.111907,-0.53098 -0.83001,-1.74546 -0.901602,-1.68078 -0.0716,0.0647 0.06958,1.56347 0.181479,2.09445 0.111905,0.53098 1.019329,2.63792 1.090922,2.57324 0.07159,-0.0647 -0.258892,-2.45594 -0.370799,-2.98691 z"
           style="fill:none;stroke:#cccccc;stroke-width:0.18307075;stroke-miterlimit:4;stroke-dasharray:none;stroke-dashoffset:0;stroke-opacity:1">
          <title
             id="title7928">shins</title>
        </path>
        <path
           id="shins10"
           d="m 91.381199,179.097 c -0.0011,-0.41901 -1.050646,1.09596 -1.235403,1.61972 -0.12833,0.36381 -0.205666,1.7623 -0.20491,2.05334 0.0011,0.41901 0.969508,-1.42319 1.154265,-1.94695 0.128331,-0.36381 0.286804,-1.43507 0.286048,-1.72611 z"
           style="fill:none;stroke:#cccccc;stroke-width:0.18307075;stroke-miterlimit:4;stroke-dasharray:none;stroke-dashoffset:0;stroke-opacity:1">
          <title
             id="title7936">shins</title>
        </path>
        <path
           id="shins"
           d="m 79.848401,176.88779 c -0.141387,-2.39225 -0.378342,-3.70565 -1.682479,-5.10288 -2.333065,-2.77817 -0.183292,9.31511 -0.866687,10.83053 0.267206,1.62898 2.520263,2.02737 2.576209,-4.41871 z"
           style="fill:none;stroke:#cccccc;stroke-width:0.18307075;stroke-miterlimit:4;stroke-dasharray:none;stroke-dashoffset:0">
          <title
             id="title7922">shins</title>
        </path>
        <path
           id="shins3"
           d="m 87.595571,175.66316 c -0.02375,-3.16476 -2.191665,-3.87015 -2.484139,-1.96301 -0.413717,2.69773 0.1,9.46873 2.156279,9.59307 0,0 0.338242,-6.24762 0.32786,-7.63006 z"
           style="fill:none;stroke:#cccccc;stroke-width:0.18307075;stroke-miterlimit:4;stroke-dasharray:none;stroke-dashoffset:0">
          <title
             id="title7932">shins</title>
        </path>
        <path
           id="shins6"
           d="m 73.777297,174.99877 c -0.06635,-0.47294 -0.443183,0.003 -0.440725,0.94915 0.0025,0.94589 0.976308,2.85001 1.040201,2.37707 0.0639,-0.47295 -0.533123,-2.85327 -0.599464,-3.32622 z"
           style="fill:none;stroke:#cccccc;stroke-width:0.18307075;stroke-miterlimit:4;stroke-dasharray:none;stroke-dashoffset:0;stroke-opacity:1">
          <title
             id="title7926">shins</title>
        </path>
        <path
           id="shins11"
           d="m 91.635284,174.58229 c -0.06635,-0.47294 -0.686595,0.41973 -0.684137,1.36563 0.0025,0.94589 0.191978,2.82026 0.25587,2.34732 0.0639,-0.47295 0.467574,-1.90132 0.401234,-2.37427 z"
           style="fill:none;stroke:#cccccc;stroke-width:0.18307075;stroke-miterlimit:4;stroke-dasharray:none;stroke-dashoffset:0;stroke-opacity:1">
          <title
             id="title7934">shins</title>
        </path>
        <path
           id="shins5"
           d="m 73.78457,172.1251 c -0.07451,-0.25467 -0.350748,1.02465 -0.349426,1.53397 0.0014,0.50932 0.846617,0.92592 0.919795,0.67126 0.07318,-0.25466 0.09914,-3.3785 0.02468,-3.63316 z"
           style="fill:none;stroke:#cccccc;stroke-width:0.18307075;stroke-miterlimit:4;stroke-dasharray:none;stroke-dashoffset:0;stroke-opacity:1">
          <title
             id="title7924">shins</title>
        </path>
        <path
           id="shins12"
           d="m 90.676763,172.42259 c -0.07451,-0.25467 8.29e-4,0.9949 0.0022,1.50422 0.0014,0.50932 0.738431,-0.32352 0.81161,-0.57818 0.07317,-0.25466 -0.631098,-2.78353 -0.705556,-3.03819 z"
           style="fill:none;stroke:#cccccc;stroke-width:0.18307075;stroke-miterlimit:4;stroke-dasharray:none;stroke-dashoffset:0;stroke-opacity:1">
          <title
             id="title7938">shins</title>
        </path>
        <path
           id="quads3"
           d="m 74.920412,162.16644 c 0.821046,-1.32755 1.435751,-3.62144 1.805199,-6.73645 0.522318,-4.40391 0.451943,-4.99803 -0.712225,-6.01265 -1.558193,-1.35803 -2.281362,-3.16036 -2.501635,-6.23475 l -0.189567,-2.64584 -0.67211,2.20317 c -1.877863,6.15561 -1.880523,7.57378 -0.0285,15.18853 0.662999,2.72596 1.205609,5.01791 1.205805,5.09323 0.0012,0.44054 0.564017,1.2e-4 1.093024,-0.85524 z"
           style="fill:none;stroke:#cccccc;stroke-width:0.18307075;stroke-miterlimit:4;stroke-dasharray:none;stroke-dashoffset:0">
          <title
             id="title7804">quads</title>
        </path>
        <path
           id="quads4"
           d="m 91.148387,163.02168 c -1.94e-4,-0.0753 0.530509,-2.36727 1.179345,-5.09323 1.812473,-7.61475 1.802446,-9.03292 -0.107396,-15.18853 l -0.683554,-2.20317 -0.175823,2.64584 c -0.204302,3.07439 -0.918108,4.87672 -2.469246,6.23475 -1.158895,1.01462 -1.226183,1.60874 -0.680987,6.01265 0.385629,3.11501 1.012252,5.4089 1.840195,6.73645 0.533451,0.85536 1.098612,1.29578 1.097466,0.85524 z"
           style="fill:none;stroke:#cccccc;stroke-width:0.18307075;stroke-miterlimit:4;stroke-dasharray:none;stroke-dashoffset:0">
          <title
             id="title7810">quads</title>
        </path>
        <path
           id="quads5"
           d="m 80.680052,161.26773 c 0.461987,-4.07481 0.05085,-6.18089 -1.690087,-8.65755 -0.998396,-1.42032 -0.998396,-1.42032 -1.173383,-0.13229 -0.982987,7.23557 -0.356319,10.41616 2.052289,10.41616 0.551571,0 0.648925,-0.19518 0.811181,-1.62632 z"
           style="fill:none;stroke:#cccccc;stroke-width:0.18307075;stroke-miterlimit:4;stroke-dasharray:none;stroke-dashoffset:0">
          <title
             id="title7806">quads</title>
        </path>
        <path
           id="quads6"
           d="m 86.362016,162.49635 c 1.300016,-0.82199 1.554733,-4.2593 0.742402,-10.01846 -0.181679,-1.28803 -0.181679,-1.28803 -1.172696,0.13229 -2.852613,4.08834 -2.519093,11.75104 0.430294,9.88617 z"
           style="fill:none;stroke:#cccccc;stroke-width:0.18307075;stroke-miterlimit:4;stroke-dasharray:none;stroke-dashoffset:0">
          <title
             id="title7812">quads</title>
        </path>
        <path
           id="quads"
           d="m 81.389522,148.95601 c 0.02869,-2.16408 0.02869,-2.16408 -1.744987,-3.68541 -0.975524,-0.83672 -2.532197,-2.52627 -3.459276,-3.75454 -1.939624,-2.56978 -1.969408,-2.54387 -1.763386,1.53424 0.15881,3.14358 0.726866,4.34711 3.088979,6.54458 0.967372,0.89995 2.147576,2.32566 2.622676,3.16824 l 0.863811,1.53197 0.181746,-1.5875 c 0.09996,-0.87313 0.194654,-2.56134 0.210437,-3.75158 z"
           style="fill:none;stroke:#cccccc;stroke-width:0.18307075;stroke-miterlimit:4;stroke-dasharray:none;stroke-dashoffset:0">
          <title
             id="title7802">quads</title>
        </path>
        <path
           id="quads2"
           d="m 87.400668,149.58974 c 2.345082,-2.19222 2.907067,-3.39737 3.049482,-6.53944 0.184835,-4.07811 0.154916,-4.10402 -1.771359,-1.53424 -0.920696,1.22827 -2.468592,2.91782 -3.439768,3.75454 -1.984778,1.71002 -2.015714,1.84742 -1.562534,6.94015 l 0.191231,2.149 0.894041,-1.56944 c 0.491722,-0.86319 1.679231,-2.30344 2.638907,-3.20057 z"
           style="fill:none;stroke:#cccccc;stroke-width:0.18307075;stroke-miterlimit:4;stroke-dasharray:none;stroke-dashoffset:0">
          <title
             id="title7808">quads</title>
        </path>
        <path
           id="hands"
           d="m 55.661347,151.0334 c 0.188855,-0.1706 0.488768,-0.31019 0.666473,-0.31019 1.312468,0 4.63919,-5.02067 4.358784,-6.57826 -0.130881,-0.72701 -0.01874,-1.36246 0.387109,-2.19376 0.424838,-0.87018 0.500735,-1.3373 0.295953,-1.82153 -0.151477,-0.35818 -0.205015,-1.18702 -0.118971,-1.84186 0.156439,-1.19063 0.156439,-1.19063 -0.575657,0.0789 -0.402649,0.69822 -0.937113,1.34047 -1.187693,1.42721 -0.760434,0.26322 -6.303731,5.3346 -5.666846,5.18441 0.326025,-0.0769 0.664295,-0.24449 0.75171,-0.37244 0.206195,-0.30183 1.216761,-0.30118 1.424703,7.9e-4 0.08843,0.12846 -0.426973,1.37279 -1.145328,2.76519 -1.664819,3.22695 -1.172668,5.45229 0.809763,3.66145 z"
           style="fill:none;stroke:#cccccc;stroke-width:0.18307075;stroke-miterlimit:4;stroke-dasharray:none;stroke-dashoffset:0">
          <title
             id="title7878">hands</title>
        </path>
        <path
           id="hands2"
           d="m 111.19972,150.64413 c 0.11793,-0.53768 -0.19897,-1.43406 -1.15683,-3.27218 -0.72559,-1.39239 -1.24745,-2.63673 -1.15969,-2.76518 0.20637,-0.30209 1.21693,-0.30274 1.4247,-8e-4 0.0881,0.12796 0.42721,0.29556 0.75364,0.37244 0.63767,0.1502 -4.93198,-4.92118 -5.69378,-5.18441 -0.25103,-0.0867 -0.78883,-0.72898 -1.19511,-1.42721 -0.73869,-1.26962 -0.73869,-1.26962 -0.57606,-0.079 0.0894,0.65484 0.0402,1.48368 -0.1094,1.84186 -0.20227,0.48423 -0.12395,0.95135 0.30541,1.82153 0.41018,0.8313 0.52561,1.46675 0.3985,2.19376 -0.27503,1.57316 3.0847,6.57826 4.41574,6.57826 0.19022,0 0.4833,0.14883 0.65128,0.33073 0.59595,0.64534 1.76427,0.39874 1.9416,-0.40981 z"
           style="fill:none;stroke:#cccccc;stroke-width:0.18307075;stroke-miterlimit:4;stroke-dasharray:none;stroke-dashoffset:0">
          <title
             id="title7880">hands</title>
        </path>
        <path
           id="abs1"
           d="m 84.314205,145.00038 c 0.683309,-0.52818 2.307135,-2.32651 3.608502,-3.99627 2.35738,-3.02473 3.575724,-4.03636 4.86339,-4.03824 0.394626,-5.3e-4 0.598673,-0.11604 0.488333,-0.27634 -0.251573,-0.36546 -1.244262,-0.0739 -2.393211,0.70293 -2.338272,1.58096 -2.846637,0.50512 -2.285412,-4.83657 0.674651,-6.42131 0.553172,-9.83668 -0.361007,-10.14964 -1.221303,-0.41811 -1.309004,-0.30436 -0.397332,0.51536 1.206566,1.08487 1.070474,3.72452 -0.192021,3.72452 -0.361818,0 -0.287758,0.14114 0.287734,0.54837 1.805183,1.27737 0.759964,3.04341 -1.764679,2.98165 -1.711007,-0.0419 -1.711007,-0.0419 -0.332051,0.28608 2.597156,0.61763 3.227686,2.52661 1.233782,3.73538 -0.919283,0.55731 -0.919283,0.55731 -0.03652,0.85734 2.051737,0.69735 0.874602,6.1471 -1.917356,8.87672 -2.047924,2.0022 -2.620257,0.93053 -2.491308,-4.6649 0.07919,-3.43655 0.128966,-3.71985 0.715145,-4.07068 0.630029,-0.37707 0.630029,-0.37707 -0.07602,-1.01191 -1.031222,-0.92721 -1.045577,-3.44422 -0.02204,-3.86497 0.691661,-0.28432 0.691661,-0.28432 -0.0023,-0.90834 -0.521872,-0.46924 -0.694776,-0.91696 -0.697083,-1.80503 -0.0044,-1.68452 0.205084,-2.01804 1.267361,-2.01804 0.91621,0 0.91621,0 -0.18031,-0.81302 -1.858959,-1.37832 -1.413162,-3.15574 0.791498,-3.15574 0.728019,0 0.705154,-0.0459 -0.570827,-1.14527 -1.764961,-4.63793 -2.946073,0 -2.946073,0 -1.27027,1.0994 -1.292897,1.14527 -0.564878,1.14527 2.204662,0 2.659691,1.77742 0.807894,3.15574 -1.092297,0.81302 -1.092297,0.81302 -0.176087,0.81302 1.062277,0 1.27347,0.33352 1.277845,2.01804 0.0023,0.88807 -0.168271,1.33579 -0.68771,1.80503 -0.690779,0.62402 -0.690779,0.62402 0.0023,0.90834 1.025721,0.42075 1.024444,2.93776 -0.002,3.86497 -0.702753,0.63484 -0.702753,0.63484 -0.07076,1.01191 0.588002,0.35083 0.639244,0.63413 0.736294,4.07068 0.158017,5.59543 -0.408749,6.6671 -2.467075,4.6649 -2.806139,-2.72962 -4.011585,-8.17937 -1.963471,-8.87672 0.881204,-0.30003 0.881204,-0.30003 -0.04098,-0.85734 -2.000184,-1.20877 -1.379572,-3.11775 1.214374,-3.73538 1.377255,-0.32793 1.377255,-0.32793 -0.333535,-0.28608 -2.524322,0.0618 -3.578718,-1.70428 -1.78017,-2.98165 0.573378,-0.40723 0.646703,-0.54837 0.284886,-0.54837 -1.262496,0 -1.412301,-2.63965 -0.211371,-3.72452 0.907415,-0.81972 0.819123,-0.93347 -0.400009,-0.51536 -0.912553,0.31296 -1.016288,3.72833 -0.308278,10.14964 0.588974,5.34169 0.0862,6.41753 -2.260287,4.83657 -1.152983,-0.77682 -2.147187,-1.06839 -2.396861,-0.70293 -0.109508,0.1603 0.09514,0.27576 0.489769,0.27634 1.287675,0.002 2.511274,1.01351 4.884369,4.03824 3.906083,4.97866 5.198603,5.67898 7.375519,3.99627 z"
           style="fill:none;stroke:#cccccc;stroke-width:0.18307075;stroke-miterlimit:4;stroke-dasharray:none;stroke-dashoffset:0">
          <title
             id="title7848">abs</title>
        </path>
        <path
           id="hips"
           d="m 72.679595,140.06681 c 0.688768,-1.70884 0.697566,-1.80493 0.187762,-2.05052 -1.4521,-0.69951 -1.650001,-0.21479 -1.893274,4.63713 -0.145928,2.91042 -0.145928,2.91042 0.418473,1.05833 0.310421,-1.01864 0.889587,-2.65887 1.287039,-3.64494 z"
           style="fill:none;stroke:#cccccc;stroke-width:0.18307075;stroke-miterlimit:4;stroke-dasharray:none;stroke-dashoffset:0">
          <title
             id="title7830">hips</title>
        </path>
        <path
           id="hips2"
           d="m 93.931502,142.58727 c -0.333419,-4.82199 -0.51963,-5.2632 -1.933193,-4.58054 -0.475562,0.22966 -0.430206,0.47055 0.610252,3.24115 0.618194,1.64617 1.126763,3.26093 1.130157,3.58835 0.0035,0.32743 0.0924,0.59532 0.197808,0.59532 0.105402,0 0.103141,-1.27993 -0.005,-2.84428 z"
           style="fill:none;stroke:#cccccc;stroke-width:0.18307075;stroke-miterlimit:4;stroke-dasharray:none;stroke-dashoffset:0">
          <title
             id="title7828">hips</title>
        </path>
        <path
           id="abs2"
           d="m 81.400291,139.89208 c -0.01081,-4.16424 -0.09505,-4.33132 -2.117643,-4.20014 -2.201164,0.14276 -1.976801,4.13786 0.383037,6.8205 1.604752,1.82427 1.745597,1.6115 1.734606,-2.62036 z"
           style="fill:none;stroke:#cccccc;stroke-width:0.18307075;stroke-miterlimit:4;stroke-dasharray:none;stroke-dashoffset:0">
          <title
             id="title7834">abs</title>
        </path>
        <path
           id="abs3"
           d="m 86.555832,140.52956 c 0.971421,-2.29454 0.46303,-4.74246 -1.004685,-4.83762 -2.02131,-0.13105 -2.106633,0.0388 -2.095896,4.17166 0.0052,1.99522 0.108739,3.71763 0.230123,3.82758 0.326886,0.2961 2.349963,-1.93219 2.870458,-3.16162 z"
           style="fill:none;stroke:#cccccc;stroke-width:0.18307075;stroke-miterlimit:4;stroke-dasharray:none;stroke-dashoffset:0">
          <title
             id="title7832">abs</title>
        </path>
        <path
           id="extensor"
           d="m 66.25379,132.06292 c 1.032852,-2.58112 0.935468,-3.5411 -0.242126,-2.38682 -1.440375,1.41185 -3.569959,6.79632 -3.85871,9.75642 -0.175526,1.79937 1.986783,-2.0865 4.100836,-7.3696 z"
           style="fill:none;stroke:#cccccc;stroke-width:0.19225343;stroke-miterlimit:4;stroke-dasharray:none;stroke-dashoffset:0" />
        <path
           id="extensor2"
           d="m 102.35597,136.15798 c -1.06719,-3.73082 -4.576154,-9.05924 -4.965419,-7.5401 -0.1751,0.68334 0.538218,2.23359 3.039369,6.60544 2.32143,4.05765 2.89965,4.33827 1.92605,0.93466 z"
           style="fill:none;stroke:#cccccc;stroke-width:0.19109631;stroke-miterlimit:4;stroke-dasharray:none;stroke-dashoffset:0" />
        <path
           id="flexor"
           d="m 61.570277,134.00444 c 1.870411,-4.49066 1.949599,-5.89685 0.332073,-5.89685 -0.860497,0 -1.169708,0.88824 -1.865917,5.36001 -0.326112,2.09464 -0.665673,4.18928 -0.754577,4.65475 -0.258574,1.3538 0.811136,-0.57109 2.288421,-4.11791 z"
           style="fill:none;stroke:#cccccc;stroke-width:0.19499777;stroke-miterlimit:4;stroke-dasharray:none;stroke-dashoffset:0" />
        <path
           id="flexor2"
           d="m 104.85546,133.78821 c -0.84846,-5.34162 -1.12765,-6.21325 -1.99016,-6.21325 -1.80965,0 -0.99467,3.9705 2.03578,9.91814 0.77202,1.51518 0.77105,1.43658 -0.0456,-3.70489 z"
           style="fill:none;stroke:#cccccc;stroke-width:0.19595185;stroke-miterlimit:4;stroke-dasharray:none;stroke-dashoffset:0" />
        <path
           id="lats6"
           d="m 75.656397,136.73138 c 0.09576,-0.27394 -0.03276,-2.31468 -0.285576,-4.53498 -0.252826,-2.2203 -0.462888,-5.27038 -0.466805,-6.77796 -0.0071,-2.74106 -0.0071,-2.74106 -0.995044,-2.74106 -1.254393,0 -2.365209,-0.7816 -3.126751,-2.20006 -0.785621,-1.46331 -0.614177,1.28117 0.368832,5.90423 0.430873,2.02639 0.649322,4.06486 0.653999,6.1029 0.0071,3.0602 0.0071,3.0602 1.25579,3.52523 0.686823,0.25577 1.405591,0.63486 1.597259,0.84241 0.473235,0.51246 0.790365,0.47411 0.998296,-0.12071 z"
           style="fill:none;stroke:#cccccc;stroke-width:0.18307075;stroke-miterlimit:4;stroke-dasharray:none;stroke-dashoffset:0">
          <title
             id="title7850">lats</title>
        </path>
        <path
           id="lats5"
           d="m 90.678186,136.5613 c 0.599915,-0.36749 1.372634,-0.73197 1.717162,-0.80994 0.595008,-0.13467 0.625943,-0.29681 0.617132,-3.23444 -0.0063,-2.07246 0.198935,-4.0964 0.621893,-6.13537 0.958993,-4.62306 1.116178,-7.36754 0.338159,-5.90423 -0.754174,1.41846 -1.860927,2.20006 -3.115321,2.20006 -0.987926,0 -0.987926,0 -0.980805,2.74106 0.0039,1.50758 -0.190301,4.55766 -0.431592,6.77796 -0.565767,5.206 -0.502899,5.42849 1.233372,4.3649 z"
           style="fill:none;stroke:#cccccc;stroke-width:0.18307075;stroke-miterlimit:4;stroke-dasharray:none;stroke-dashoffset:0">
          <title
             id="title7852">lats</title>
        </path>
        <path
           id="abs5"
           d="m 80.922712,133.63869 c 1.085568,-0.98066 0.58724,-2.84607 -0.710328,-2.659 -2.748118,0.39619 -3.475304,1.21955 -2.072614,2.34672 1.014304,0.81507 2.092437,0.93605 2.782942,0.31228 z"
           style="fill:none;stroke:#cccccc;stroke-width:0.18307075;stroke-miterlimit:4;stroke-dasharray:none;stroke-dashoffset:0">
          <title
             id="title7838">abs</title>
        </path>
        <path
           id="abs4"
           d="m 86.681735,133.32641 c 1.396835,-1.12717 0.66537,-1.95053 -2.084806,-2.34672 -1.165191,-0.16786 -1.165191,-0.16786 -1.16206,1.03768 0.0054,2.06743 1.540206,2.68623 3.246866,1.30904 z"
           style="fill:none;stroke:#cccccc;stroke-width:0.18307075;stroke-miterlimit:4;stroke-dasharray:none;stroke-dashoffset:0">
          <title
             id="title7836">abs</title>
        </path>
        <path
           id="path4695"
           d="m 65.25083,129.15967 c 0.826462,-0.79375 0.826462,-0.79375 -0.40769,-0.79375 -1.234153,0 -1.234153,0 -1.125442,1.30476 0.0896,1.07537 0.161269,1.21492 0.407689,0.79375 0.164439,-0.28106 0.670889,-0.8682 1.125443,-1.30476 z"
           style="fill:none;stroke:#cccccc;stroke-width:0.18307075;stroke-miterlimit:4;stroke-dasharray:none;stroke-dashoffset:0" />
        <path
           id="path4693"
           d="m 101.10471,129.29196 c 0.0936,-0.92384 0.0909,-0.92604 -1.127639,-0.92604 -1.221428,0 -1.221428,0 -0.223479,0.99295 0.548868,0.54612 1.013658,1.14144 1.032858,1.32292 0.0464,0.43823 0.20191,-0.24103 0.31826,-1.38983 z"
           style="fill:none;stroke:#cccccc;stroke-width:0.18307075;stroke-miterlimit:4;stroke-dasharray:none;stroke-dashoffset:0" />
        <path
           id="abs7"
           d="m 80.858219,128.99196 c 0.688805,-0.33262 0.739624,-2.61041 0.05824,-2.61041 -1.984771,0 -4.934693,2.48016 -3.580115,3.01 0.480634,0.188 2.865371,-0.0826 3.521875,-0.39959 z"
           style="fill:none;stroke:#cccccc;stroke-width:0.18307075;stroke-miterlimit:4;stroke-dasharray:none;stroke-dashoffset:0">
          <title
             id="title7842">abs</title>
        </path>
        <path
           id="abs6"
           d="m 87.367328,129.39595 c 1.4655,-0.50729 -1.444135,-3.0144 -3.498361,-3.0144 -0.549748,0 -0.638672,2.24098 -0.100796,2.54014 0.823178,0.45785 2.868117,0.72731 3.599157,0.47426 z"
           style="fill:none;stroke:#cccccc;stroke-width:0.18307075;stroke-miterlimit:4;stroke-dasharray:none;stroke-dashoffset:0">
          <title
             id="title7840">abs</title>
        </path>
        <path
           id="biceps"
           d="m 66.357927,126.77485 c 2.71185,-2.79104 4.133753,-8.19078 2.467369,-9.36993 -1.326546,-0.93869 -2.367433,-0.30589 -3.08743,1.87698 -0.186998,0.56694 -0.631146,1.29496 -0.986994,1.61782 -0.425535,0.3861 -0.719485,1.08514 -0.858772,2.04224 -0.116479,0.80037 -0.393368,1.85481 -0.615314,2.34321 -0.411284,0.90506 -0.361028,1.13945 0.419435,1.95627 0.696489,0.72893 1.665077,0.55914 2.661706,-0.46659 z"
           style="fill:none;stroke:#cccccc;stroke-width:0.18307075;stroke-miterlimit:4;stroke-dasharray:none;stroke-dashoffset:0">
          <title
             id="title7876">biceps</title>
        </path>
        <path
           id="biceps2"
           d="m 101.38505,126.90053 c 0.50181,-0.61056 0.51371,-0.75495 0.13088,-1.5875 -0.23163,-0.50373 -0.51984,-1.5707 -0.64047,-2.37107 -0.14426,-0.9571 -0.44185,-1.65614 -0.86938,-2.04224 -0.35753,-0.32286 -0.805461,-1.05088 -0.995403,-1.61782 -0.731338,-2.18287 -1.775512,-2.81567 -3.097182,-1.87698 -1.012667,0.71921 -1.033827,2.35717 -0.06344,4.91087 1.774357,4.66948 3.970364,6.48847 5.535005,4.58474 z"
           style="fill:none;stroke:#cccccc;stroke-width:0.18307075;stroke-miterlimit:4;stroke-dasharray:none;stroke-dashoffset:0">
          <title
             id="title7874">biceps</title>
        </path>
        <path
           id="abs9"
           d="m 80.272998,124.31307 c 2.364941,-1.41157 0.493657,-2.57113 -2.011264,-1.24631 -1.127314,0.59623 -1.306686,0.81097 -1.304735,1.56205 0.0038,1.42969 0.465334,1.38574 3.315999,-0.31574 z"
           style="fill:none;stroke:#cccccc;stroke-width:0.18307075;stroke-miterlimit:4;stroke-dasharray:none;stroke-dashoffset:0">
          <title
             id="title7846">abs</title>
        </path>
        <path
           id="abs8"
           d="m 87.819395,124.65729 c -0.0028,-1.07654 -1.993672,-2.34695 -3.442928,-2.19699 -1.552676,0.16066 -1.091248,1.1846 1.061825,2.35625 2.105019,1.1455 2.384444,1.12681 2.381103,-0.15926 z"
           style="fill:none;stroke:#cccccc;stroke-width:0.18307075;stroke-miterlimit:4;stroke-dasharray:none;stroke-dashoffset:0">
          <title
             id="title7844">abs</title>
        </path>
        <path
           id="path4679"
           d="m 77.915312,121.20483 c 4.349668,-1.35247 5.073263,-7.42763 1.091369,-9.1629 -2.363866,-1.03014 -5.730311,-1.01371 -6.326978,0.0309 -0.263192,0.46077 -1.189305,1.24817 -2.058033,1.74975 -2.346706,1.35495 -3.011699,2.33032 -1.778801,2.60904 0.841831,0.19031 1.692013,1.18818 2.403854,2.82143 1.240693,2.84666 2.554197,3.2311 6.668589,1.95178 z"
           style="fill:none;stroke:#cccccc;stroke-width:0.18307075;stroke-miterlimit:4;stroke-dasharray:none;stroke-dashoffset:0">
          <title
             id="title7956">pecks</title>
        </path>
        <path
           id="path4677"
           d="m 92.438887,121.15603 c 0.306138,-0.40018 0.78439,-1.25652 1.062783,-1.90297 0.703355,-1.63325 1.548354,-2.63112 2.389195,-2.82143 1.231451,-0.27872 0.56139,-1.25409 -1.792355,-2.60904 -0.871333,-0.50158 -1.801537,-1.28898 -2.067124,-1.74975 -0.924144,-1.60336 -6.858735,-0.64566 -8.137566,1.31319 -0.673474,1.03159 -0.708991,5.19264 -0.05151,6.03578 1.588698,2.03738 7.458784,3.22157 8.596591,1.73422 z"
           style="fill:none;stroke:#cccccc;stroke-width:0.18307075;stroke-miterlimit:4;stroke-dasharray:none;stroke-dashoffset:0">
          <title
             id="title7954">pecks</title>
        </path>
        <path
           id="delts"
           d="m 66.553102,116.47862 c 0.337698,-0.1351 0.772069,-0.64217 0.965267,-1.12682 0.244541,-0.61345 0.901833,-1.2161 2.163313,-1.98346 2.664226,-1.62066 2.809343,-1.95561 1.150974,-2.65663 -2.464734,-1.04187 -5.013641,1.52797 -6.074555,6.12446 -0.700045,3.033 -0.55833,3.6301 0.381623,1.60788 0.475434,-1.02285 1.048196,-1.81933 1.413378,-1.96543 z"
           style="fill:none;stroke:#cccccc;stroke-width:0.18307075;stroke-miterlimit:4;stroke-dasharray:none;stroke-dashoffset:0">
          <title
             id="title7868">delts</title>
        </path>
        <path
           id="delts2"
           d="m 100.13438,117.54446 c -0.998957,-5.02452 -3.665199,-7.9333 -6.263018,-6.83275 -1.654726,0.70102 -1.507869,1.03597 1.164775,2.65663 1.265467,0.76736 1.925891,1.37001 2.173619,1.98346 0.195714,0.48465 0.634839,0.99172 0.975831,1.12682 0.375299,0.14869 0.911793,0.89285 1.359351,1.88549 0.892832,1.98024 1.091252,1.70432 0.589442,-0.81965 z"
           style="fill:none;stroke:#cccccc;stroke-width:0.18307075;stroke-miterlimit:4;stroke-dasharray:none;stroke-dashoffset:0">
          <title
             id="title7866">delts</title>
        </path>
        <path
           id="sternos"
           d="m 78.839849,105.05782 c -0.07965,1.8644 0.616832,4.18362 1.759109,5.46045 1.777379,1.98675 0.993291,-1.07868 0.406158,-3.0461 -0.669792,-2.08683 -1.980649,-5.49403 -2.165267,-2.41435 z"
           style="fill:none;stroke:#cccccc;stroke-width:0.18307075;stroke-miterlimit:4;stroke-dasharray:none;stroke-dashoffset:0">
          <title
             id="title7788">sternos</title>
        </path>
        <path
           id="sternos2"
           d="m 85.055201,103.63584 c -0.907598,0.93584 -1.547953,3.65828 -1.952762,5.62339 -0.427295,2.07426 -0.0046,2.84927 1.568931,0.40629 0.899672,-1.83337 1.777489,-6.70532 0.383831,-6.02968 z"
           style="fill:none;stroke:#cccccc;stroke-width:0.18307075;stroke-miterlimit:4;stroke-dasharray:none;stroke-dashoffset:0">
          <title
             id="title7786">sternos</title>
        </path>
        <path
           id="traps"
           d="m 76.507868,110.07952 c 0.548559,-0.23486 0.997299,-0.45844 0.9972,-0.49685 -9.8e-5,-0.0384 0.20317,-0.51093 0.451708,-1.05004 0.53166,-1.15324 0.87837,-1.18174 -3.937541,0.3236 -2.702884,0.84486 -2.981966,0.98949 -2.509302,1.30045 0.743728,0.48928 3.784565,0.44234 4.997935,-0.0772 z"
           style="fill:none;stroke:#cccccc;stroke-width:0.18307075;stroke-miterlimit:4;stroke-dasharray:none;stroke-dashoffset:0">
          <title
             id="title7794">traps</title>
        </path>
        <path
           id="traps2"
           d="m 93.191202,110.15672 c 0.501008,-0.33073 -2.116844,-1.34965 -6.237186,-2.42764 -1.221376,-0.31955 -0.128949,1.70472 1.275803,2.36406 1.082804,0.50824 4.226771,0.54852 4.961383,0.0636 z"
           style="fill:none;stroke:#cccccc;stroke-width:0.18307075;stroke-miterlimit:4;stroke-dasharray:none;stroke-dashoffset:0">
          <title
             id="title7796">traps</title>
        </path>
        <path
           id="head"
           d="m 84.272666,103.66674 c 8.84739,-5.376629 3.481042,-17.564176 -4.361256,-14.245844 -7.52476,3.183971 -3.748313,15.000274 2.424259,15.000274 0.340443,0 1.212093,-0.3395 1.936997,-0.75443 z"
           style="fill:none;stroke:#2c9ced;stroke-width:0.65934157;stroke-miterlimit:4;stroke-dasharray:0.6593416, 0.6593416;stroke-dashoffset:0;stroke-opacity:1">
          <title
             id="title4779">head</title>
        </path>
        <path
           id="nutrition"
           d="m 74.55532,138.26903 c -0.0637,-2.34171 1.32934,-1.76529 2.40653,-1.17371 1.16394,0.65862 2.37936,1.89926 3.49266,2.04323 0.6631,0.10012 2.78767,-1.0963 3.20555,-3.74817 0.0918,-0.82218 -0.71655,-1.79011 -1.41612,-1.9209 -1.69756,-0.25735 -2.61152,-1.25299 -3.15389,-2.2586 -2.11387,-4.80808 0.47846,-4.09151 0.51309,-3.69872 0.45524,5.1632 3.5539,5.8638 3.73387,3.61795 -0.005,-3.86658 9.34006,-2.7554 7.26168,5.11284 -2.17641,7.46521 -8.19956,5.64364 -11.96683,3.72819 -0.92563,-0.47063 -2.46105,-1.53615 -2.55901,-0.72093 -0.45433,3.7809 -1.48895,0.0691 -1.51753,-0.98118 z"
           style="fill:none;stroke:#14e809;stroke-width:0.78607702;stroke-miterlimit:4;stroke-dasharray:0.78607704, 0.78607704;stroke-dashoffset:0;stroke-opacity:1">
          <title
             id="title7952">nutrition</title>
        </path>
        <path
           id="cardio"
           d="m 78.877591,121.73496 c -4.39997,-4.47187 -4.76387,-5.08698 -4.24757,-7.17999 0.80662,-3.2699 4.71485,-4.15337 7.14873,-1.616 0.71499,0.74542 0.71499,0.74542 1.59338,-0.0873 2.93219,-2.77973 7.22081,-1.18986 7.22977,2.68019 0.004,1.64231 -0.36903,2.17173 -4.36835,6.2031 l -3.6931,3.7227 z"
           style="fill:none;stroke:#f30606;stroke-width:0.78157914;stroke-miterlimit:4;stroke-dasharray:0.78157912, 0.78157912;stroke-dashoffset:0;stroke-opacity:1">
          <title
             id="title7950">cardio</title>
        </path>
      </g>
    </g>
  </g>
</svg>
