<?xml version="1.0" encoding="UTF-8" standalone="no"?>
<!-- Created with Inkscape (http://www.inkscape.org/) -->

<svg
   xmlns:dc="http://purl.org/dc/elements/1.1/"
   xmlns:cc="http://creativecommons.org/ns#"
   xmlns:rdf="http://www.w3.org/1999/02/22-rdf-syntax-ns#"
   xmlns:svg="http://www.w3.org/2000/svg"
   xmlns="http://www.w3.org/2000/svg"
   xmlns:sodipodi="http://sodipodi.sourceforge.net/DTD/sodipodi-0.dtd"
   xmlns:inkscape="http://www.inkscape.org/namespaces/inkscape"
   id="svg8"
   version="1.1"
   viewBox="0 0 198.31808 115.12876"
   height="115.12876mm"
   width="198.31808mm"
   inkscape:version="0.92.3 (2405546, 2018-03-11)"
   sodipodi:docname="bodyplainl.svg">
  <defs
     id="defs2" />
  <sodipodi:namedview
     inkscape:window-maximized="1"
     inkscape:window-y="-9"
     inkscape:window-x="-9"
     inkscape:window-height="1051"
     inkscape:window-width="1920"
     showgrid="false"
     inkscape:current-layer="g3777"
     inkscape:document-units="mm"
     inkscape:cy="199.19844"
     inkscape:cx="373.12977"
     inkscape:zoom="2"
     inkscape:pageshadow="2"
     inkscape:pageopacity="0.0"
     borderopacity="1.0"
     bordercolor="#666666"
     pagecolor="#ffffff"
     id="base"
     fit-margin-top="0"
     fit-margin-left="0"
     fit-margin-right="0"
     fit-margin-bottom="0"
     inkscape:pagecheckerboard="false" />
  <metadata
     id="metadata5">
    <rdf:RDF>
      <cc:Work
         rdf:about="">
        <dc:format>image/svg+xml</dc:format>
        <dc:type
           rdf:resource="http://purl.org/dc/dcmitype/StillImage" />
        <dc:title></dc:title>
      </cc:Work>
    </rdf:RDF>
  </metadata>
  <g
     inkscape:label="Layer 1"
     inkscape:groupmode="layer"
     id="layer1"
     transform="translate(-5.6199014,-87.583211)">
    <g
       id="g3777"
       transform="translate(-2.8986986,-0.43480478)">
      <path
         style="fill:none;stroke:#cccccc;stroke-width:0.19200001;stroke-miterlimit:4;stroke-dasharray:none;stroke-dashoffset:0"
         d="m 36.332492,202.14292 c -2.946193,-1.41366 -3.192509,-2.22998 -1.958284,-6.48992 0.989797,-3.41629 0.869361,-6.6584 -0.367992,-9.9061 -2.345296,-6.15575 -2.850701,-9.88892 -1.931974,-14.27055 0.563111,-2.68563 0.17178,-6.47485 -1.200637,-11.62564 -2.632578,-9.88027 -2.881304,-12.90106 -1.805396,-21.92671 0.736132,-6.17531 0.30521,-12.10815 -1.028071,-14.15426 -0.283556,-0.43516 -1.573323,3.33831 -1.932705,5.65451 -0.263859,1.70056 -1.179318,3.56425 -4.777605,9.72621 -2.051156,3.51255 -2.280086,4.0661 -2.27598,5.50325 0.0059,2.08075 -3.676111,6.86325 -5.284034,6.86325 -0.236343,0 -0.60948,0.17799 -0.829195,0.39552 -0.387665,0.38381 -2.135532,0.39176 -2.884338,0.0131 -0.9020272,-0.45612 -0.7534614,-2.02147 0.390231,-4.11168 1.143017,-2.08898 1.143017,-2.08898 -0.209402,-2.16953 -1.6691468,-0.0994 -2.1576977,-1.0846 -0.7547725,-1.52203 0.4440103,-0.13844 1.1429215,-0.62502 1.5531385,-1.08128 0.41022,-0.45626 1.420539,-1.22747 2.245158,-1.71381 1.954895,-1.15294 2.611903,-2.59323 3.455997,-7.57623 0.781451,-4.6132 0.998667,-5.26771 2.36982,-7.1407 1.462233,-1.99741 1.440603,-1.93344 1.985388,-5.8728 1.274659,-9.2171 2.268422,-10.20218 13.275176,-13.15917 3.799268,-1.02068 4.533832,-2.67028 2.372015,-5.32679 -4.923585,-6.050252 -1.973304,-13.837744 5.242413,-13.837744 7.215717,0 10.210498,7.787492 5.321486,13.837744 -2.146637,2.65651 -1.402647,4.30611 2.402454,5.32679 11.040881,2.9616 12.0215,3.93248 13.360328,13.22761 0.281431,1.95391 0.689676,3.81286 0.907215,4.131 2.582463,3.77676 2.816919,4.38405 3.656593,9.47131 0.706522,4.28054 1.440112,5.79337 3.355095,6.91898 0.827398,0.48633 1.842124,1.25755 2.254952,1.71381 0.412823,0.45626 1.114515,0.94283 1.559316,1.08127 1.405425,0.43744 0.922504,1.42262 -0.746075,1.52204 -1.351958,0.0806 -1.351958,0.0806 -0.197004,2.16952 1.155636,2.09021 1.313147,3.65557 0.413726,4.11169 -0.746643,0.37864 -2.494555,0.37069 -2.884413,-0.0131 -0.220958,-0.21752 -0.595112,-0.39551 -0.831455,-0.39551 -1.607923,0 -5.317307,-4.7825 -5.323252,-6.86325 -0.0041,-1.43715 -0.2362,-1.9907 -2.307428,-5.50325 -3.633498,-6.16196 -4.559606,-8.02565 -4.833184,-9.72621 -0.372617,-2.3162 -1.683946,-6.08967 -1.965016,-5.65451 -1.321588,2.04611 -1.718608,7.97895 -0.947189,14.15426 1.127483,9.02565 0.896018,12.04644 -1.680101,21.92671 -1.342984,5.15079 -1.712662,8.94001 -1.134205,11.62564 0.943765,4.38163 0.459693,8.1148 -1.850428,14.27055 -1.218795,3.2477 -1.320704,6.48981 -0.311385,9.9061 1.262105,4.27191 1.014712,5.09609 -1.949556,6.49495 -3.292177,1.5536 -3.670781,1.15509 -3.735565,-3.93203 -0.02781,-2.18281 -0.163188,-4.88607 -0.300871,-6.00723 -0.234584,-1.91028 -0.194753,-2.12597 0.63336,-3.42946 0.988538,-1.55602 0.983196,-2.9904 -0.02991,-8.02581 -0.576985,-2.86784 -0.605307,-4.49822 -0.130461,-7.51064 0.330047,-2.0938 0.301289,-2.42941 -0.353981,-4.13103 -0.539486,-1.40095 -0.788959,-2.97991 -1.024198,-6.48229 -0.171041,-2.54661 -0.462282,-6.77333 -0.647201,-9.39271 -0.184918,-2.61937 -0.340335,-5.22882 -0.345371,-5.79878 -0.02261,-2.55798 -0.293102,-0.32916 -0.623485,5.13733 -0.892351,14.76475 -0.878753,14.62461 -1.604401,16.53645 -0.645937,1.70183 -0.672769,2.03697 -0.330714,4.13103 0.492059,3.01242 0.473054,4.6428 -0.08754,7.51064 -0.984315,5.03541 -0.98146,6.46979 0.01596,8.02581 0.835561,1.30349 0.876626,1.51918 0.652957,3.42946 -0.131277,1.12116 -0.25122,3.82442 -0.266544,6.00723 -0.03567,5.08026 -0.444256,5.50911 -3.741482,3.927 z"
         id="path4775"
         inkscape:connector-curvature="0" />
      <path
         style="fill:none;stroke:#cccccc;stroke-width:0.19200001;stroke-miterlimit:4;stroke-dasharray:none;stroke-dashoffset:0"
         d="m 39.115163,201.354 c 0.116559,-0.3841 0.1195,-1.90215 0.0065,-3.37343 -0.141616,-1.84443 -0.05935,-3.36676 0.264925,-4.90268 0.56899,-2.69495 0.01543,-4.01281 -2.250177,-5.35692 -1.331784,-0.79011 -1.331784,-0.79011 -1.523497,3.6618 -0.114321,2.65469 -0.393503,5.08217 -0.691565,6.01315 -0.710328,2.21865 -0.475389,2.80764 1.517338,3.80393 2.046841,1.02335 2.406392,1.04406 2.676443,0.15415 z"
         id="feet"
         inkscape:connector-curvature="0"
         inkscape:label="#path4773">
        <title
           id="title7920">feet</title>
      </path>
      <path
         style="fill:none;stroke:#cccccc;stroke-width:0.19200001;stroke-miterlimit:4;stroke-dasharray:none;stroke-dashoffset:0"
         d="m 48.117711,201.21089 c 2.04287,-1.00258 2.275795,-1.57716 1.546548,-3.81497 -0.303382,-0.93098 -0.596435,-3.35846 -0.725926,-6.01315 -0.217153,-4.45191 -0.217153,-4.45191 -1.544422,-3.6618 -2.25792,1.34411 -2.803956,2.66197 -2.219566,5.35692 0.333056,1.53592 0.424017,3.05825 0.29294,4.90268 -0.306415,4.31163 -0.09009,4.57528 2.650426,3.23032 z"
         id="feet2"
         inkscape:connector-curvature="0"
         inkscape:label="#path4771">
        <title
           id="title7918">feet</title>
      </path>
      <path
         style="fill:none;stroke:#cccccc;stroke-width:0.19200001;stroke-miterlimit:4;stroke-dasharray:none;stroke-dashoffset:0"
         d="m 37.968131,186.00369 c 0.198438,-1.42123 -1.137704,-2.72398 -1.653578,-1.61225 -0.36979,0.79691 -0.66702,0.89376 -1.258677,0.41011 -0.514996,-0.42099 -0.501207,0.089 0.01805,0.6676 0.389751,0.43433 2.125683,1.44277 2.55221,1.48264 0.113803,0.0106 0.267698,-0.41601 0.341992,-0.9481 z"
         id="shins8"
         inkscape:connector-curvature="0"
         inkscape:label="#path4769">
        <title
           id="title7948">shins</title>
      </path>
      <path
         style="fill:none;stroke:#cccccc;stroke-width:0.19200001;stroke-miterlimit:4;stroke-dasharray:none;stroke-dashoffset:0"
         d="m 48.063757,186.4118 c 1.057576,-0.51198 1.782666,-1.21425 1.781207,-1.72515 -3.19e-4,-0.11143 -0.174544,-0.0597 -0.387168,0.1149 -0.588893,0.48365 -0.886676,0.3868 -1.26102,-0.41011 -0.522226,-1.11173 -1.850924,0.19102 -1.644365,1.61225 0.165627,1.13958 0.05954,1.11093 1.511346,0.40811 z"
         id="shins9"
         inkscape:connector-curvature="0"
         inkscape:label="#path4767">
        <title
           id="title7946">shins</title>
      </path>
      <path
         style="fill:none;stroke:#cccccc;stroke-width:0.19200001;stroke-miterlimit:4;stroke-dasharray:none;stroke-dashoffset:0"
         d="m 38.088828,171.09613 c 0,0 0,0 1.206619,-2.64373 1.124854,-2.47525 1.051787,-4.7646 -0.152065,-4.7646 -1.265416,0 -3.237718,-1.46055 -3.269194,-2.42094 -0.01503,-0.45873 -0.216173,-0.2672 -0.767044,0.73039 -0.410668,0.74369 -1.057742,1.53099 -1.437938,1.74954 -0.661647,0.38035 -0.681391,0.5257 -0.460748,3.39186 0.159323,2.06962 0.313169,2.81025 0.498112,2.398 0.419132,-0.93427 1.311919,-0.57135 2.209175,0.89802 z"
         id="knees2"
         inkscape:connector-curvature="0"
         sodipodi:nodetypes="ccscccsccc"
         inkscape:label="#path4765">
        <title
           id="title7902">knees</title>
      </path>
      <path
         style="fill:none;stroke:#cccccc;stroke-width:0.19200001;stroke-opacity:1;stroke-miterlimit:4;stroke-dasharray:none;stroke-dashoffset:0"
         d="m 35.665315,168.11957 c -0.179891,-0.1819 -0.405733,-0.80698 -0.501868,-1.38907 -0.09614,-0.58208 -0.277031,-1.38575 -0.401982,-1.78593 -0.334362,-1.07086 0.425023,-0.92624 0.997398,0.18994 0.258781,0.50465 0.471569,1.28728 0.47286,1.73919 0.003,1.03287 1.084753,1.02075 1.214973,-0.0136 0.18056,-1.43418 0.751042,-2.64313 1.247253,-2.64313 0.395781,0 0.454056,0.15895 0.266745,0.7276 -0.131816,0.40019 -0.335484,1.20821 -0.452593,1.79562 -0.333517,1.67288 -1.832987,2.40046 -2.842786,1.37939 z"
         id="knees"
         inkscape:connector-curvature="0"
         inkscape:label="#path4763">
        <title
           id="title7944">knees</title>
      </path>
      <path
         style="fill:none;stroke:#cccccc;stroke-width:0.19200001;stroke-miterlimit:4;stroke-dasharray:none;stroke-dashoffset:0"
         d="m 48.512592,170.43467 c 0.89263,-1.46966 1.782987,-1.8319 2.207283,-0.89802 0.187298,0.41225 0.336912,-0.32838 0.484409,-2.398 0.204265,-2.86616 0.18369,-3.01151 -0.48013,-3.39186 -0.381446,-0.21855 -1.033018,-1.00585 -1.447936,-1.74954 -0.556572,-0.99759 -0.758804,-1.18912 -0.771217,-0.73039 -0.026,0.96039 -1.989945,2.42094 -3.25536,2.42094 -1.203852,0 -1.263838,2.28935 -0.124839,4.7646 0.06761,4.85342 3.38779,1.98227 3.38779,1.98227 z"
         id="knees4"
         inkscape:connector-curvature="0"
         sodipodi:nodetypes="ccscccscc"
         inkscape:label="#path4761">
        <title
           id="title7904">knees</title>
      </path>
      <path
         style="fill:none;stroke:#cccccc;stroke-width:0.19200001;stroke-miterlimit:4;stroke-dasharray:none;stroke-dashoffset:0"
         d="m 46.364475,168.12924 c -0.133697,-0.17658 -0.341646,-0.80166 -0.462112,-1.38906 -0.120465,-0.58741 -0.32875,-1.39543 -0.462853,-1.79561 -0.190561,-0.56865 -0.133194,-0.72761 0.262588,-0.72761 0.49621,0 1.0736,1.20895 1.262356,2.64313 0.136131,1.03436 1.218002,1.04648 1.215051,0.0136 -0.0013,-0.45191 0.207024,-1.23454 0.462922,-1.73919 0.565996,-1.11618 1.324555,-1.26079 0.996312,-0.18994 -0.122665,0.40018 -0.298965,1.20385 -0.391777,1.78594 -0.252764,1.58527 -2.072623,2.46837 -2.882487,1.39873 z"
         id="knees3"
         inkscape:connector-curvature="0"
         inkscape:label="#path4759">
        <title
           id="title7942">knees</title>
      </path>
      <path
         style="fill:none;stroke:#cccccc;stroke-width:0.19200001;stroke-miterlimit:4;stroke-dasharray:none;stroke-dashoffset:0"
         d="m 35.85684,175.72634 c -0.209298,-6.88463 -1.654111,-7.71765 -2.065053,-1.19063 -0.26603,4.22543 1.596037,12.50289 2.063625,9.0279 0.146859,-1.0914 0.06779,-5.65446 0.0014,-7.83727 z"
         id="shins2"
         inkscape:connector-curvature="0"
         sodipodi:nodetypes="sscs"
         inkscape:label="#path4757">
        <title
           id="title7930">shins</title>
      </path>
      <path
         style="fill:none;stroke:#cccccc;stroke-width:0.19200001;stroke-miterlimit:4;stroke-dasharray:none;stroke-dashoffset:0"
         d="m 50.243828,180.70372 c 0.352782,-2.15941 0.730783,-7.6905 -0.06125,-10.00447 -0.985556,-2.87934 -2.518626,6.68933 -1.551697,12.72357 0.357399,2.23039 1.087061,0.005 1.226215,-0.9639 z"
         id="shins4"
         inkscape:connector-curvature="0"
         sodipodi:nodetypes="ccscc"
         inkscape:label="#path4755">
        <title
           id="title7940">shins</title>
      </path>
      <path
         style="fill:none;stroke:#cccccc;stroke-width:0.19200001;stroke-opacity:1;stroke-miterlimit:4;stroke-dasharray:none;stroke-dashoffset:0"
         d="m 33.716204,180.44408 c -0.123088,-0.53098 -0.91295,-1.74546 -0.991698,-1.68078 -0.07875,0.0647 0.07653,1.56347 0.199615,2.09445 0.123087,0.53098 1.121189,2.63792 1.199937,2.57324 0.07875,-0.0647 -0.284764,-2.45594 -0.407854,-2.98691 z"
         id="shins7"
         inkscape:connector-curvature="0"
         sodipodi:nodetypes="ccccc"
         inkscape:label="#path4753">
        <title
           id="title7928">shins</title>
      </path>
      <path
         style="fill:none;stroke:#cccccc;stroke-width:0.19200001;stroke-opacity:1;stroke-miterlimit:4;stroke-dasharray:none;stroke-dashoffset:0"
         d="m 51.976618,179.097 c -0.0012,-0.41901 -1.155636,1.09596 -1.358855,1.61972 -0.141155,0.36381 -0.226219,1.7623 -0.225387,2.05334 0.0012,0.41901 1.066391,-1.42319 1.26961,-1.94695 0.141155,-0.36381 0.315464,-1.43507 0.314632,-1.72611 z"
         id="shins10"
         inkscape:connector-curvature="0"
         sodipodi:nodetypes="ccccc"
         inkscape:label="#path4751">
        <title
           id="title7936">shins</title>
      </path>
      <path
         style="fill:none;stroke:#cccccc;stroke-width:0.19200001;stroke-miterlimit:4;stroke-dasharray:none;stroke-dashoffset:0"
         d="m 39.29136,176.88779 c -0.155516,-2.39225 -0.416149,-3.70565 -1.850607,-5.10288 -2.566207,-2.77817 -0.201609,9.31511 -0.953294,10.83053 0.293907,1.62898 2.77211,2.02737 2.833647,-4.41871 z"
         id="shins"
         inkscape:connector-curvature="0"
         sodipodi:nodetypes="ccccc"
         inkscape:label="#path4749">
        <title
           id="title7922">shins</title>
      </path>
      <path
         style="fill:none;stroke:#cccccc;stroke-width:0.19200001;stroke-miterlimit:4;stroke-dasharray:none;stroke-dashoffset:0"
         d="m 47.812696,175.66316 c -0.02612,-3.16476 -2.410676,-3.87015 -2.732377,-1.96301 -0.455059,2.69773 0.109989,9.46873 2.371755,9.59307 0,0 0.372041,-6.24762 0.360622,-7.63006 z"
         id="shins3"
         inkscape:connector-curvature="0"
         sodipodi:nodetypes="cssc"
         inkscape:label="#path4747">
        <title
           id="title7932">shins</title>
      </path>
      <path
         style="fill:none;stroke:#cccccc;stroke-width:0.19200001;stroke-opacity:1;stroke-miterlimit:4;stroke-dasharray:none;stroke-dashoffset:0"
         d="m 32.613577,174.99877 c -0.07298,-0.47294 -0.48747,0.003 -0.484767,0.94915 0.0027,0.94589 1.073871,2.85001 1.144148,2.37707 0.07028,-0.47295 -0.586398,-2.85327 -0.659368,-3.32622 z"
         id="shins6"
         inkscape:connector-curvature="0"
         sodipodi:nodetypes="ccccc"
         inkscape:label="#path4745">
        <title
           id="title7926">shins</title>
      </path>
      <path
         style="fill:none;stroke:#cccccc;stroke-width:0.19200001;stroke-opacity:1;stroke-miterlimit:4;stroke-dasharray:none;stroke-dashoffset:0"
         d="m 52.256094,174.58229 c -0.07298,-0.47294 -0.755206,0.41973 -0.752503,1.36563 0.0027,0.94589 0.211163,2.82026 0.28144,2.34732 0.07028,-0.47295 0.514298,-1.90132 0.441328,-2.37427 z"
         id="shins11"
         inkscape:connector-curvature="0"
         sodipodi:nodetypes="ccccc"
         inkscape:label="#path4743">
        <title
           id="title7934">shins</title>
      </path>
      <path
         style="fill:none;stroke:#cccccc;stroke-width:0.19200001;stroke-opacity:1;stroke-miterlimit:4;stroke-dasharray:none;stroke-dashoffset:0"
         d="m 32.621577,172.1251 c -0.08195,-0.25467 -0.385799,1.02465 -0.384344,1.53397 0.0015,0.50932 0.931218,0.92592 1.011709,0.67126 0.08049,-0.25466 0.109049,-3.3785 0.02715,-3.63316 z"
         id="shins5"
         inkscape:connector-curvature="0"
         sodipodi:nodetypes="ccccc"
         inkscape:label="#path4741">
        <title
           id="title7924">shins</title>
      </path>
      <path
         style="fill:none;stroke:#cccccc;stroke-width:0.19200001;stroke-opacity:1;stroke-miterlimit:4;stroke-dasharray:none;stroke-dashoffset:0"
         d="m 51.201789,172.42259 c -0.08195,-0.25467 9.33e-4,0.9949 0.0024,1.50422 0.0015,0.50932 0.812223,-0.32352 0.892714,-0.57818 0.08049,-0.25466 -0.694162,-2.78353 -0.776062,-3.03819 z"
         id="shins12"
         inkscape:connector-curvature="0"
         sodipodi:nodetypes="ccccc"
         inkscape:label="#path4739">
        <title
           id="title7938">shins</title>
      </path>
      <path
         style="fill:none;stroke:#cccccc;stroke-width:0.19200001;stroke-miterlimit:4;stroke-dasharray:none;stroke-dashoffset:0"
         d="m 33.870922,162.16644 c 0.903092,-1.32755 1.579225,-3.62144 1.985591,-6.73645 0.574512,-4.40391 0.497104,-4.99803 -0.783397,-6.01265 -1.713901,-1.35803 -2.509335,-3.16036 -2.751621,-6.23475 l -0.208511,-2.64584 -0.739273,2.20317 c -2.065515,6.15561 -2.068441,7.57378 -0.03134,15.18853 0.729251,2.72596 1.326084,5.01791 1.326299,5.09323 0.0013,0.44054 0.620378,1.2e-4 1.202248,-0.85524 z"
         id="quads3"
         inkscape:connector-curvature="0"
         inkscape:label="#path4737">
        <title
           id="title7804">quads</title>
      </path>
      <path
         style="fill:none;stroke:#cccccc;stroke-width:0.19200001;stroke-miterlimit:4;stroke-dasharray:none;stroke-dashoffset:0"
         d="m 51.720542,163.02168 c -2.15e-4,-0.0753 0.583521,-2.36727 1.297195,-5.09323 1.993592,-7.61475 1.982562,-9.03292 -0.118128,-15.18853 l -0.751862,-2.20317 -0.193392,2.64584 c -0.224718,3.07439 -1.009853,4.87672 -2.715994,6.23475 -1.274703,1.01462 -1.348716,1.60874 -0.749039,6.01265 0.424166,3.11501 1.113407,5.4089 2.024085,6.73645 0.586758,0.85536 1.208394,1.29578 1.207135,0.85524 z"
         id="quads4"
         inkscape:connector-curvature="0"
         inkscape:label="#path4735">
        <title
           id="title7810">quads</title>
      </path>
      <path
         style="fill:none;stroke:#cccccc;stroke-width:0.19200001;stroke-miterlimit:4;stroke-dasharray:none;stroke-dashoffset:0"
         d="m 40.206116,161.26773 c 0.508154,-4.07481 0.05593,-6.18089 -1.858975,-8.65755 -1.098165,-1.42032 -1.098165,-1.42032 -1.290638,-0.13229 -1.081216,7.23557 -0.391925,10.41616 2.257372,10.41616 0.606689,0 0.713772,-0.19518 0.892241,-1.62632 z"
         id="quads5"
         inkscape:connector-curvature="0"
         inkscape:label="#path4733">
        <title
           id="title7806">quads</title>
      </path>
      <path
         style="fill:none;stroke:#cccccc;stroke-width:0.19200001;stroke-miterlimit:4;stroke-dasharray:none;stroke-dashoffset:0"
         d="m 46.455872,162.49635 c 1.429926,-0.82199 1.710097,-4.2593 0.816591,-10.01846 -0.199834,-1.28803 -0.199834,-1.28803 -1.289882,0.13229 -3.137671,4.08834 -2.770825,11.75104 0.473291,9.88617 z"
         id="quads6"
         inkscape:connector-curvature="0"
         inkscape:label="#path4731">
        <title
           id="title7812">quads</title>
      </path>
      <path
         style="fill:none;stroke:#cccccc;stroke-width:0.19200001;stroke-miterlimit:4;stroke-dasharray:none;stroke-dashoffset:0"
         d="m 40.986483,148.95601 c 0.03156,-2.16408 0.03156,-2.16408 -1.919362,-3.68541 -1.073006,-0.83672 -2.785236,-2.52627 -3.804956,-3.75454 -2.133449,-2.56978 -2.166209,-2.54387 -1.939601,1.53424 0.174681,3.14358 0.799502,4.34711 3.397658,6.54458 1.064041,0.89995 2.362182,2.32566 2.884757,3.16824 l 0.950131,1.53197 0.199907,-1.5875 c 0.109947,-0.87313 0.214106,-2.56134 0.231466,-3.75158 z"
         id="quads"
         inkscape:connector-curvature="0"
         inkscape:label="#path4729">
        <title
           id="title7802">quads</title>
      </path>
      <path
         style="fill:none;stroke:#cccccc;stroke-width:0.19200001;stroke-miterlimit:4;stroke-dasharray:none;stroke-dashoffset:0"
         d="m 47.598316,149.58974 c 2.579424,-2.19222 3.197569,-3.39737 3.354214,-6.53944 0.203305,-4.07811 0.170397,-4.10402 -1.948369,-1.53424 -1.012701,1.22827 -2.715276,2.91782 -3.7835,3.75454 -2.183115,1.71002 -2.217142,1.84742 -1.718677,6.94015 l 0.210341,2.149 0.983381,-1.56944 c 0.54086,-0.86319 1.847036,-2.30344 2.90261,-3.20057 z"
         id="quads2"
         inkscape:connector-curvature="0"
         inkscape:label="#path4727">
        <title
           id="title7808">quads</title>
      </path>
      <path
         style="fill:none;stroke:#cccccc;stroke-width:0.19200001;stroke-miterlimit:4;stroke-dasharray:none;stroke-dashoffset:0"
         d="m 12.68732,151.0334 c 0.207727,-0.1706 0.53761,-0.31019 0.733072,-0.31019 1.443622,0 5.102781,-5.02067 4.794353,-6.57826 -0.143959,-0.72701 -0.02062,-1.36246 0.425793,-2.19376 0.467291,-0.87018 0.550772,-1.3373 0.325526,-1.82153 -0.166613,-0.35818 -0.225501,-1.18702 -0.130859,-1.84186 0.172072,-1.19063 0.172072,-1.19063 -0.633182,0.0789 -0.442885,0.69822 -1.030757,1.34047 -1.306377,1.42721 -0.836423,0.26322 -6.933656,5.3346 -6.233128,5.18441 0.358604,-0.0769 0.730677,-0.24449 0.826827,-0.37244 0.226801,-0.30183 1.33835,-0.30118 1.567073,7.9e-4 0.09726,0.12846 -0.46964,1.37279 -1.259779,2.76519 -1.8311837,3.22695 -1.289852,5.45229 0.890681,3.66145 z"
         id="hands"
         inkscape:connector-curvature="0"
         inkscape:label="#path4725">
        <title
           id="title7878">hands</title>
      </path>
      <path
         style="fill:none;stroke:#cccccc;stroke-width:0.19200001;stroke-miterlimit:4;stroke-dasharray:none;stroke-dashoffset:0"
         d="m 73.775586,150.64413 c 0.129708,-0.53768 -0.218861,-1.43406 -1.272437,-3.27218 -0.798095,-1.39239 -1.372105,-2.63673 -1.275579,-2.76518 0.226997,-0.30209 1.338543,-0.30274 1.567069,-8e-4 0.09688,0.12796 0.469911,0.29556 0.828955,0.37244 0.701386,0.1502 -5.424827,-4.92118 -6.262754,-5.18441 -0.276115,-0.0867 -0.867657,-0.72898 -1.314533,-1.42721 -0.812508,-1.26962 -0.812508,-1.26962 -0.633632,-0.079 0.09838,0.65484 0.04423,1.48368 -0.120335,1.84186 -0.222479,0.48423 -0.136328,0.95135 0.335935,1.82153 0.45117,0.8313 0.578134,1.46675 0.438329,2.19376 -0.302521,1.57316 3.392946,6.57826 4.856988,6.57826 0.209235,0 0.531598,0.14883 0.716365,0.33073 0.655497,0.64534 1.940578,0.39874 2.135629,-0.40981 z"
         id="hands2"
         inkscape:connector-curvature="0"
         inkscape:label="#path4723">
        <title
           id="title7880">hands</title>
      </path>
      <path
         style="fill:none;stroke:#cccccc;stroke-width:0.19200002;stroke-miterlimit:4;stroke-dasharray:none;stroke-dashoffset:0"
         d="m 44.203426,145.00038 c 0.751592,-0.52818 2.537685,-2.32651 3.969096,-3.99627 2.592951,-3.02473 3.933043,-4.03636 5.349383,-4.03824 0.434061,-5.3e-4 0.658498,-0.11604 0.537132,-0.27634 -0.276712,-0.36546 -1.3686,-0.0739 -2.632361,0.70293 -2.571935,1.58096 -3.131098,0.50512 -2.513792,-4.83657 0.742068,-6.42131 0.60845,-9.83668 -0.397081,-10.14964 -1.343347,-0.41811 -1.439812,-0.30436 -0.437037,0.51536 1.327136,1.08487 1.177445,3.72452 -0.21121,3.72452 -0.397974,0 -0.316513,0.14114 0.316488,0.54837 1.985573,1.27737 0.835905,3.04341 -1.941023,2.98165 -1.881986,-0.0419 -1.881986,-0.0419 -0.365231,0.28608 2.856687,0.61763 3.550224,2.52661 1.357072,3.73538 -1.011147,0.55731 -1.011147,0.55731 -0.04017,0.85734 2.256765,0.69735 0.962,6.1471 -2.108954,8.87672 -2.252572,2.0022 -2.882098,0.93053 -2.740264,-4.6649 0.08711,-3.43655 0.141854,-3.71985 0.78661,-4.07068 0.692986,-0.37707 0.692986,-0.37707 -0.08362,-1.01191 -1.134272,-0.92721 -1.15006,-3.44422 -0.02425,-3.86497 0.760778,-0.28432 0.760778,-0.28432 -0.0026,-0.90834 -0.574021,-0.46924 -0.764204,-0.91696 -0.766742,-1.80503 -0.0048,-1.68452 0.225579,-2.01804 1.394008,-2.01804 1.007766,0 1.007766,0 -0.198328,-0.81302 -2.044723,-1.37832 -1.554378,-3.15574 0.870592,-3.15574 0.800769,0 0.775619,-0.0459 -0.62787,-1.14527 -1.941331,-4.63793 -3.240471,0 -3.240471,0 -1.397206,1.0994 -1.422095,1.14527 -0.621325,1.14527 2.42497,0 2.925471,1.77742 0.888625,3.15574 -1.201449,0.81302 -1.201449,0.81302 -0.193682,0.81302 1.168428,0 1.400726,0.33352 1.405538,2.01804 0.0025,0.88807 -0.185087,1.33579 -0.756433,1.80503 -0.759807,0.62402 -0.759807,0.62402 0.0026,0.90834 1.12822,0.42075 1.126815,2.93776 -0.0022,3.86497 -0.772977,0.63484 -0.772977,0.63484 -0.07784,1.01191 0.646761,0.35083 0.703124,0.63413 0.809872,4.07068 0.173807,5.59543 -0.449595,6.6671 -2.713608,4.6649 -3.086552,-2.72962 -4.412458,-8.17937 -2.159678,-8.87672 0.969261,-0.30003 0.969261,-0.30003 -0.04507,-0.85734 -2.20006,-1.20877 -1.517431,-3.11775 1.335726,-3.73538 1.514882,-0.32793 1.514882,-0.32793 -0.366865,-0.28608 -2.776575,0.0618 -3.936335,-1.70428 -1.958061,-2.98165 0.630674,-0.40723 0.711328,-0.54837 0.313354,-0.54837 -1.388655,0 -1.55343,-2.63965 -0.232492,-3.72452 0.998091,-0.81972 0.900976,-0.93347 -0.439982,-0.51536 -1.003743,0.31296 -1.117845,3.72833 -0.339083,10.14964 0.647829,5.34169 0.09481,6.41753 -2.486155,4.83657 -1.2682,-0.77682 -2.361754,-1.06839 -2.636378,-0.70293 -0.12045,0.1603 0.104647,0.27576 0.538711,0.27634 1.416351,0.002 2.762223,1.01351 5.372459,4.03824 4.296413,4.97866 5.718095,5.67898 8.112547,3.99627 z"
         id="abs1"
         inkscape:connector-curvature="0"
         sodipodi:nodetypes="ccccsscsscccccsscccccscsccscscscccssccsccsscscccscc"
         inkscape:label="#path4721">
        <title
           id="title7848">abs</title>
      </path>
      <path
         style="fill:none;stroke:#cccccc;stroke-width:0.19200001;stroke-miterlimit:4;stroke-dasharray:none;stroke-dashoffset:0"
         d="m 31.406183,140.06681 c 0.757596,-1.70884 0.767273,-1.80493 0.206524,-2.05052 -1.597205,-0.69951 -1.814884,-0.21479 -2.082466,4.63713 -0.16051,2.91042 -0.16051,2.91042 0.460291,1.05833 0.341441,-1.01864 0.978483,-2.65887 1.415651,-3.64494 z"
         id="hips"
         inkscape:connector-curvature="0"
         inkscape:label="#path4719">
        <title
           id="title7830">hips</title>
      </path>
      <path
         style="fill:none;stroke:#cccccc;stroke-width:0.19200001;stroke-miterlimit:4;stroke-dasharray:none;stroke-dashoffset:0"
         d="m 54.781769,142.58727 c -0.366737,-4.82199 -0.571556,-5.2632 -2.126375,-4.58054 -0.523083,0.22966 -0.473196,0.47055 0.671235,3.24115 0.679969,1.64617 1.23936,3.26093 1.243092,3.58835 0.0038,0.32743 0.101636,0.59532 0.217575,0.59532 0.115935,0 0.113447,-1.27993 -0.0055,-2.84428 z"
         id="hips2"
         inkscape:connector-curvature="0"
         inkscape:label="#path4717">
        <title
           id="title7828">hips</title>
      </path>
      <path
         style="fill:none;stroke:#cccccc;stroke-width:0.19200001;stroke-miterlimit:4;stroke-dasharray:none;stroke-dashoffset:0"
         d="m 40.998328,139.89208 c -0.0119,-4.16424 -0.104551,-4.33132 -2.329257,-4.20014 -2.421123,0.14276 -2.17434,4.13786 0.421314,6.8205 1.765114,1.82427 1.920034,1.6115 1.907943,-2.62036 z"
         id="abs2"
         inkscape:connector-curvature="0"
         inkscape:label="#path4715">
        <title
           id="title7834">abs</title>
      </path>
      <path
         style="fill:none;stroke:#cccccc;stroke-width:0.19200001;stroke-miterlimit:4;stroke-dasharray:none;stroke-dashoffset:0"
         d="m 46.669058,140.52956 c 1.068493,-2.29454 0.509298,-4.74246 -1.105083,-4.83762 -2.223298,-0.13105 -2.317146,0.0388 -2.305337,4.17166 0.0057,1.99522 0.119605,3.71763 0.25312,3.82758 0.359551,0.2961 2.584791,-1.93219 3.1573,-3.16162 z"
         id="abs3"
         inkscape:connector-curvature="0"
         inkscape:label="#path4713">
        <title
           id="title7832">abs</title>
      </path>
      <path
         style="fill:none;stroke:#cccccc;stroke-width:0.20163058;stroke-miterlimit:4;stroke-dasharray:none;stroke-dashoffset:0"
         d="m 24.338254,132.06292 c 1.136064,-2.58112 1.028949,-3.5411 -0.266322,-2.38682 -1.584309,1.41185 -3.926701,6.79632 -4.244306,9.75642 -0.193067,1.79937 2.185321,-2.0865 4.510628,-7.3696 z"
         id="extensor"
         inkscape:connector-curvature="0"
         inkscape:label="#path4711" />
      <path
         style="fill:none;stroke:#cccccc;stroke-width:0.20041703;stroke-miterlimit:4;stroke-dasharray:none;stroke-dashoffset:0"
         d="m 64.04809,136.15798 c -1.173833,-3.73082 -5.033449,-9.05924 -5.461612,-7.5401 -0.192598,0.68334 0.592002,2.23359 3.343093,6.60544 2.553407,4.05765 3.189407,4.33827 2.118519,0.93466 z"
         id="extensor2"
         inkscape:connector-curvature="0"
         inkscape:label="#path4709" />
      <path
         style="fill:none;stroke:#cccccc;stroke-width:0.20450877;stroke-miterlimit:4;stroke-dasharray:none;stroke-dashoffset:0"
         d="m 19.186724,134.00444 c 2.057318,-4.49066 2.144419,-5.89685 0.365255,-5.89685 -0.946485,0 -1.286595,0.88824 -2.052376,5.36001 -0.3587,2.09464 -0.732192,4.18928 -0.829981,4.65475 -0.284413,1.3538 0.892192,-0.57109 2.517102,-4.11791 z"
         id="flexor"
         inkscape:connector-curvature="0"
         inkscape:label="#path4707" />
      <path
         style="fill:none;stroke:#cccccc;stroke-width:0.20550939;stroke-miterlimit:4;stroke-dasharray:none;stroke-dashoffset:0"
         d="m 66.797349,133.78821 c -0.933247,-5.34162 -1.240335,-6.21325 -2.189033,-6.21325 -1.990484,0 -1.094067,3.9705 2.239209,9.91814 0.849165,1.51518 0.848101,1.43658 -0.05018,-3.70489 z"
         id="flexor2"
         inkscape:connector-curvature="0"
         inkscape:label="#path4705" />
      <path
         style="fill:none;stroke:#cccccc;stroke-width:0.19200001;stroke-miterlimit:4;stroke-dasharray:none;stroke-dashoffset:0"
         d="m 34.680452,136.73138 c 0.10533,-0.27394 -0.03603,-2.31468 -0.314112,-4.53498 -0.278091,-2.2203 -0.509144,-5.27038 -0.513452,-6.77796 -0.0078,-2.74106 -0.0078,-2.74106 -1.094479,-2.74106 -1.379742,0 -2.60156,-0.7816 -3.439203,-2.20006 -0.864127,-1.46331 -0.675551,1.28117 0.405689,5.90423 0.47393,2.02639 0.714208,4.06486 0.719353,6.1029 0.0078,3.0602 0.0078,3.0602 1.38128,3.52523 0.755456,0.25577 1.546049,0.63486 1.756871,0.84241 0.520524,0.51246 0.869345,0.47411 1.098053,-0.12071 z"
         id="lats6"
         inkscape:connector-curvature="0"
         inkscape:label="#path4703">
        <title
           id="title7850">lats</title>
      </path>
      <path
         style="fill:none;stroke:#cccccc;stroke-width:0.19200001;stroke-miterlimit:4;stroke-dasharray:none;stroke-dashoffset:0"
         d="m 51.203354,136.5613 c 0.659863,-0.36749 1.5098,-0.73197 1.888755,-0.80994 0.654467,-0.13467 0.688494,-0.29681 0.678802,-3.23444 -0.0069,-2.07246 0.218814,-4.0964 0.684038,-6.13537 1.054823,-4.62306 1.227716,-7.36754 0.37195,-5.90423 -0.829537,1.41846 -2.046888,2.20006 -3.426631,2.20006 -1.086648,0 -1.086648,0 -1.078816,2.74106 0.0043,1.50758 -0.209317,4.55766 -0.47472,6.77796 -0.622304,5.206 -0.553153,5.42849 1.356622,4.3649 z"
         id="lats5"
         inkscape:connector-curvature="0"
         inkscape:label="#path4701">
        <title
           id="title7852">lats</title>
      </path>
      <path
         style="fill:none;stroke:#cccccc;stroke-width:0.19200001;stroke-miterlimit:4;stroke-dasharray:none;stroke-dashoffset:0"
         d="m 40.473026,133.63869 c 1.194046,-0.98066 0.645922,-2.84607 -0.78131,-2.659 -3.022735,0.39619 -3.822589,1.21955 -2.279729,2.34672 1.115662,0.81507 2.301531,0.93605 3.061039,0.31228 z"
         id="abs5"
         inkscape:connector-curvature="0"
         inkscape:label="#path4699">
        <title
           id="title7838">abs</title>
      </path>
      <path
         style="fill:none;stroke:#cccccc;stroke-width:0.19200001;stroke-miterlimit:4;stroke-dasharray:none;stroke-dashoffset:0"
         d="m 46.807542,133.32641 c 1.536419,-1.12717 0.73186,-1.95053 -2.293139,-2.34672 -1.281628,-0.16786 -1.281628,-0.16786 -1.278183,1.03768 0.0059,2.06743 1.694117,2.68623 3.571322,1.30904 z"
         id="abs4"
         inkscape:connector-curvature="0"
         inkscape:label="#path4697">
        <title
           id="title7836">abs</title>
      </path>
      <path
         style="fill:none;stroke:#cccccc;stroke-width:0.19200001;stroke-miterlimit:4;stroke-dasharray:none;stroke-dashoffset:0"
         d="m 23.23507,129.15967 c 0.909048,-0.79375 0.909048,-0.79375 -0.44843,-0.79375 -1.357481,0 -1.357481,0 -1.237908,1.30476 0.09855,1.07537 0.177385,1.21492 0.44843,0.79375 0.180871,-0.28106 0.73793,-0.8682 1.237908,-1.30476 z"
         id="path4695"
         inkscape:connector-curvature="0" />
      <path
         style="fill:none;stroke:#cccccc;stroke-width:0.19200001;stroke-miterlimit:4;stroke-dasharray:none;stroke-dashoffset:0"
         d="m 62.671791,129.29196 c 0.102914,-0.92384 0.09996,-0.92604 -1.240326,-0.92604 -1.343483,0 -1.343483,0 -0.24581,0.99295 0.603719,0.54612 1.114954,1.14144 1.136075,1.32292 0.051,0.43823 0.222085,-0.24103 0.350061,-1.38983 z"
         id="path4693"
         inkscape:connector-curvature="0" />
      <path
         style="fill:none;stroke:#cccccc;stroke-width:0.19200001;stroke-miterlimit:4;stroke-dasharray:none;stroke-dashoffset:0"
         d="m 40.402087,128.99196 c 0.757637,-0.33262 0.813535,-2.61041 0.06406,-2.61041 -2.183108,0 -5.427811,2.48016 -3.937874,3.01 0.528664,0.188 3.151705,-0.0826 3.873814,-0.39959 z"
         id="abs7"
         inkscape:connector-curvature="0"
         inkscape:label="#path4691">
        <title
           id="title7842">abs</title>
      </path>
      <path
         style="fill:none;stroke:#cccccc;stroke-width:0.19200001;stroke-miterlimit:4;stroke-dasharray:none;stroke-dashoffset:0"
         d="m 47.561645,129.39595 c 1.611946,-0.50729 -1.588445,-3.0144 -3.847948,-3.0144 -0.604684,0 -0.702495,2.24098 -0.110868,2.54014 0.905436,0.45785 3.154723,0.72731 3.958816,0.47426 z"
         id="abs6"
         inkscape:connector-curvature="0"
         inkscape:label="#path4689">
        <title
           id="title7840">abs</title>
      </path>
      <path
         style="fill:none;stroke:#cccccc;stroke-width:0.19200001;stroke-miterlimit:4;stroke-dasharray:none;stroke-dashoffset:0"
         d="m 24.452797,126.77485 c 2.982843,-2.79104 4.546835,-8.19078 2.713931,-9.36993 -1.459107,-0.93869 -2.604008,-0.30589 -3.395954,1.87698 -0.205684,0.56694 -0.694216,1.29496 -1.085623,1.61782 -0.468057,0.3861 -0.791382,1.08514 -0.944588,2.04224 -0.128119,0.80037 -0.432677,1.85481 -0.676802,2.34321 -0.452383,0.90506 -0.397105,1.13945 0.461348,1.95627 0.766089,0.72893 1.831468,0.55914 2.927688,-0.46659 z"
         id="biceps"
         inkscape:connector-curvature="0"
         inkscape:label="#path4687">
        <title
           id="title7876">biceps</title>
      </path>
      <path
         style="fill:none;stroke:#cccccc;stroke-width:0.19200001;stroke-miterlimit:4;stroke-dasharray:none;stroke-dashoffset:0"
         d="m 62.980147,126.90053 c 0.551948,-0.61056 0.56504,-0.75495 0.143953,-1.5875 -0.254771,-0.50373 -0.571782,-1.5707 -0.704474,-2.37107 -0.158675,-0.9571 -0.485995,-1.65614 -0.956258,-2.04224 -0.393252,-0.32286 -0.885944,-1.05088 -1.094867,-1.61782 -0.80442,-2.18287 -1.952937,-2.81567 -3.40668,-1.87698 -1.113861,0.71921 -1.137136,2.35717 -0.06978,4.91087 1.951665,4.66948 4.367117,6.48847 6.08811,4.58474 z"
         id="biceps2"
         inkscape:connector-curvature="0"
         inkscape:label="#path4685">
        <title
           id="title7874">biceps</title>
      </path>
      <path
         style="fill:none;stroke:#cccccc;stroke-width:0.19200001;stroke-miterlimit:4;stroke-dasharray:none;stroke-dashoffset:0"
         d="m 39.758386,124.31307 c 2.601268,-1.41157 0.542988,-2.57113 -2.212247,-1.24631 -1.239965,0.59623 -1.437261,0.81097 -1.435116,1.56205 0.0041,1.42969 0.511834,1.38574 3.647363,-0.31574 z"
         id="abs9"
         inkscape:connector-curvature="0"
         inkscape:label="#path4683">
        <title
           id="title7846">abs</title>
      </path>
      <path
         style="fill:none;stroke:#cccccc;stroke-width:0.19200001;stroke-miterlimit:4;stroke-dasharray:none;stroke-dashoffset:0"
         d="m 48.058886,124.65729 c -0.0031,-1.07654 -2.192897,-2.34695 -3.786975,-2.19699 -1.707834,0.16066 -1.200296,1.1846 1.167931,2.35625 2.315372,1.1455 2.622719,1.12681 2.619044,-0.15926 z"
         id="abs8"
         inkscape:connector-curvature="0"
         inkscape:label="#path4681">
        <title
           id="title7844">abs</title>
      </path>
      <path
         style="fill:none;stroke:#cccccc;stroke-width:0.19200001;stroke-miterlimit:4;stroke-dasharray:none;stroke-dashoffset:0"
         d="m 37.1651,121.20483 c 4.784326,-1.35247 5.580228,-7.42763 1.200428,-9.1629 -2.600084,-1.03014 -6.302935,-1.01371 -6.959226,0.0309 -0.289493,0.46077 -1.308152,1.24817 -2.263691,1.74975 -2.581209,1.35495 -3.312655,2.33032 -1.956554,2.60904 0.925954,0.19031 1.861094,1.18818 2.644068,2.82143 1.364675,2.84666 2.809436,3.2311 7.334975,1.95178 z"
         id="path4679"
         inkscape:connector-curvature="0">
        <title
           id="title7956">pecks</title>
      </path>
      <path
         style="fill:none;stroke:#cccccc;stroke-width:0.19200001;stroke-miterlimit:4;stroke-dasharray:none;stroke-dashoffset:0"
         d="m 53.14,121.15603 c 0.33673,-0.40018 0.862773,-1.25652 1.168985,-1.90297 0.773641,-1.63325 1.703079,-2.63112 2.627945,-2.82143 1.354509,-0.27872 0.617489,-1.25409 -1.971463,-2.60904 -0.958405,-0.50158 -1.981563,-1.28898 -2.273689,-1.74975 -1.016493,-1.60336 -7.544121,-0.64566 -8.950745,1.31319 -0.740773,1.03159 -0.77984,5.19264 -0.05667,6.03578 1.747456,2.03738 8.204133,3.22157 9.45564,1.73422 z"
         id="path4677"
         inkscape:connector-curvature="0">
        <title
           id="title7954">pecks</title>
      </path>
      <path
         style="fill:none;stroke:#cccccc;stroke-width:0.19200001;stroke-miterlimit:4;stroke-dasharray:none;stroke-dashoffset:0"
         d="m 24.667476,116.47862 c 0.371445,-0.1351 0.849222,-0.64217 1.061725,-1.12682 0.268978,-0.61345 0.991953,-1.2161 2.379491,-1.98346 2.930459,-1.62066 3.090077,-1.95561 1.265989,-2.65663 -2.711032,-1.04187 -5.514648,1.52797 -6.681578,6.12446 -0.77,3.033 -0.614123,3.6301 0.419757,1.60788 0.522945,-1.02285 1.152942,-1.81933 1.554616,-1.96543 z"
         id="delts"
         inkscape:connector-curvature="0"
         inkscape:label="#path4675">
        <title
           id="title7868">delts</title>
      </path>
      <path
         style="fill:none;stroke:#cccccc;stroke-width:0.19200001;stroke-miterlimit:4;stroke-dasharray:none;stroke-dashoffset:0"
         d="m 61.604498,117.54446 c -1.098785,-5.02452 -4.031461,-7.9333 -6.888877,-6.83275 -1.820082,0.70102 -1.65855,1.03597 1.281169,2.65663 1.391923,0.76736 2.118343,1.37001 2.390826,1.98346 0.215272,0.48465 0.698278,0.99172 1.073346,1.12682 0.412801,0.14869 1.002907,0.89285 1.495189,1.88549 0.98205,1.98024 1.2003,1.70432 0.648347,-0.81965 z"
         id="delts2"
         inkscape:connector-curvature="0"
         inkscape:label="#path4673">
        <title
           id="title7866">delts</title>
      </path>
      <path
         style="fill:none;stroke:#cccccc;stroke-width:0.19200002;stroke-miterlimit:4;stroke-dasharray:none;stroke-dashoffset:0"
         d="m 38.182024,105.05782 c -0.08761,1.8644 0.678472,4.18362 1.934895,5.46045 1.95499,1.98675 1.09255,-1.07868 0.446745,-3.0461 -0.736723,-2.08683 -2.178573,-5.49403 -2.38164,-2.41435 z"
         id="sternos"
         inkscape:connector-curvature="0"
         sodipodi:nodetypes="cscc"
         inkscape:label="#path4671">
        <title
           id="title7788">sternos</title>
      </path>
      <path
         style="fill:none;stroke:#cccccc;stroke-width:0.19200002;stroke-miterlimit:4;stroke-dasharray:none;stroke-dashoffset:0"
         d="m 45.018469,103.63584 c -0.998294,0.93584 -1.702638,3.65828 -2.147899,5.62339 -0.469994,2.07426 -0.0051,2.84927 1.725712,0.40629 0.989576,-1.83337 1.955112,-6.70532 0.422187,-6.02968 z"
         id="sternos2"
         inkscape:connector-curvature="0"
         sodipodi:nodetypes="cscc"
         inkscape:label="#path4669">
        <title
           id="title7786">sternos</title>
      </path>
      <path
         style="fill:none;stroke:#cccccc;stroke-width:0.19200001;stroke-miterlimit:4;stroke-dasharray:none;stroke-dashoffset:0"
         d="m 35.617011,110.07952 c 0.603376,-0.23486 1.096959,-0.45844 1.096849,-0.49685 -1.09e-4,-0.0384 0.223472,-0.51093 0.496847,-1.05004 0.584788,-1.15324 0.966144,-1.18174 -4.331015,0.3236 -2.972981,0.84486 -3.279951,0.98949 -2.760055,1.30045 0.818049,0.48928 4.162754,0.44234 5.497374,-0.0772 z"
         id="traps"
         inkscape:connector-curvature="0"
         inkscape:label="#path4667">
        <title
           id="title7794">traps</title>
      </path>
      <path
         style="fill:none;stroke:#cccccc;stroke-width:0.19200001;stroke-miterlimit:4;stroke-dasharray:none;stroke-dashoffset:0"
         d="m 53.967493,110.15672 c 0.551072,-0.33073 -2.328378,-1.34965 -6.860461,-2.42764 -1.343427,-0.31955 -0.141835,1.70472 1.403292,2.36406 1.191008,0.50824 4.649147,0.54852 5.457169,0.0636 z"
         id="traps2"
         inkscape:connector-curvature="0"
         inkscape:label="#path4665">
        <title
           id="title7796">traps</title>
      </path>
      <path
         style="fill:none;stroke:#cccccc;stroke-width:0.19200001;stroke-miterlimit:4;stroke-dasharray:none;stroke-dashoffset:0"
         d="m 44.157737,103.66674 c 9.731499,-5.376629 3.828898,-17.564176 -4.797072,-14.245844 -8.2767,3.183971 -4.122878,15.000274 2.666513,15.000274 0.374463,0 1.333216,-0.3395 2.130559,-0.75443 z"
         id="head"
         inkscape:connector-curvature="0"
         sodipodi:nodetypes="cssc"
         inkscape:label="#path4663">
        <title
           id="title4779">head</title>
      </path>
      <path
         style="fill:none;stroke:#cccccc;stroke-width:0.19200001;stroke-miterlimit:4;stroke-dasharray:none;stroke-dashoffset:0"
         d="m 166.47701,201.83783 c -2.37164,-1.31468 -2.57268,-1.92838 -1.68133,-5.13229 0.94696,-3.40378 0.94576,-8.44973 -0.003,-10.68514 -2.37248,-5.59261 -2.92822,-9.26467 -2.13285,-14.0928 0.6685,-4.05804 0.44634,-6.21783 -1.30999,-12.73547 -2.24566,-8.33348 -2.65727,-13.48869 -1.66176,-20.81291 0.69911,-5.14357 0.63098,-8.07991 -0.28019,-12.07565 l -0.77198,-3.3853 -0.87297,2.59446 c -0.48014,1.42695 -0.87193,2.96146 -0.87065,3.41003 0.004,1.27337 -1.03192,3.46086 -4.22951,8.93432 -2.6835,4.59348 -2.94905,5.187 -2.87482,6.42543 0.12353,2.06111 -3.70743,7.23449 -5.35724,7.23449 -0.24009,0 -0.65407,0.17867 -0.91995,0.39703 -0.45991,0.37772 -2.24581,0.39201 -2.97397,0.0238 -0.91167,-0.461 -0.71865,-2.02819 0.51731,-4.20009 1.24599,-2.18951 1.24599,-2.18951 0.16594,-2.08617 -1.94438,0.18604 -2.76823,-0.96797 -1.09647,-1.5359 0.52095,-0.17698 1.27565,-0.7159 1.67711,-1.19761 0.40146,-0.48171 1.1237,-1.06668 1.60496,-1.29994 2.37692,-1.15204 2.90109,-2.24868 3.9812,-8.3292 0.67311,-3.7893 0.83579,-4.25905 2.33666,-6.74688 1.29684,-2.14962 1.65269,-3.03721 1.81459,-4.52608 1.0925,-10.04678 2.2765,-11.37566 12.63967,-14.18642 4.87909,-1.32333 5.52955,-2.25589 3.31501,-4.75269 -6.27188,-7.071264 0.29081,-17.813359 8.66796,-14.188107 4.66652,2.019458 5.71358,10.347969 1.78341,14.185677 -1.91463,1.8696 -1.13761,3.52166 2.05578,4.37087 11.55398,3.07254 12.47593,3.93735 13.84095,12.98317 0.62082,4.1141 0.64004,4.17433 1.81826,5.69983 1.415,1.83207 1.88799,3.18345 2.74078,7.83071 0.888,4.83917 1.59528,6.40206 3.28354,7.25575 0.60446,0.30566 1.61491,1.07011 2.24543,1.69879 0.63051,0.62868 1.50409,1.21656 1.94128,1.30642 1.683,0.3459 0.54163,1.60214 -1.29598,1.42641 -0.62423,-0.0597 -1.13489,-0.0844 -1.1348,-0.0548 8e-5,0.0296 0.58515,1.04784 1.30014,2.26283 1.21267,2.06071 1.27336,2.27123 0.90346,3.13427 -0.21809,0.50885 -0.4038,0.94864 -0.41268,0.97731 -0.009,0.0287 -0.4775,0.11876 -1.04136,0.20019 -3.07418,0.44394 -8.12417,-4.27931 -8.16503,-7.63676 -0.0173,-1.41689 -0.30434,-2.04998 -3.05958,-6.74688 -3.22578,-5.49903 -3.92578,-7.01352 -4.24341,-9.18083 -0.31873,-2.1748 -1.6735,-5.6354 -1.89866,-4.84988 -1.38112,4.81852 -1.62877,7.89554 -1.01614,12.62524 0.82451,6.36543 0.98609,10.41087 0.55397,13.86974 -0.35175,2.81548 -0.69911,4.37776 -2.40023,10.79517 -1.03686,3.91153 -1.33885,7.96632 -0.78821,10.58334 0.92715,4.40652 0.46597,7.87167 -1.8795,14.1216 -1.2188,3.2477 -1.32071,6.48981 -0.31139,9.9061 1.21302,4.10577 0.93641,5.13363 -1.71673,6.37907 -3.54398,1.66362 -3.90172,1.3317 -3.97033,-3.68386 -0.0289,-2.11005 -0.16558,-4.86982 -0.3038,-6.13282 -0.2413,-2.20487 -0.21602,-2.3459 0.63457,-3.5399 0.98775,-1.38656 0.98358,-2.45883 -0.0305,-7.83443 -0.57001,-3.02172 -0.59923,-4.96595 -0.11641,-7.74712 0.34206,-1.97037 0.31507,-2.26474 -0.35863,-3.91194 -0.54784,-1.33946 -0.80215,-2.81586 -1.0254,-5.95282 -0.9363,-13.15667 -1.26516,-14.00864 -1.91663,-4.96534 -0.51529,7.15285 -0.84115,9.5762 -1.52268,11.32377 -0.56197,1.44103 -0.56874,1.70517 -0.11135,4.34985 0.46098,2.66541 0.44963,3.04242 -0.2127,7.06477 -0.90517,5.49706 -0.88682,6.3888 0.16299,7.9214 0.73945,1.07951 0.81678,1.42208 0.64955,2.87759 -0.1044,0.90871 -0.25904,3.49767 -0.34364,5.75324 -0.22665,6.04317 -0.55713,6.37065 -4.32258,4.28333 z"
         id="path4661"
         inkscape:connector-curvature="0" />
      <path
         style="fill:none;stroke:#cccccc;stroke-width:0.19200001;stroke-miterlimit:4;stroke-dasharray:none;stroke-dashoffset:0"
         d="m 169.75495,201.32482 c 0.0328,-0.40019 0.0717,-2.21589 0.0863,-4.0349 0.0147,-1.81901 0.14523,-4.10742 0.2901,-5.08535 0.36972,-2.49562 -0.99247,-4.1266 -2.16111,-2.58757 -0.40882,0.5384 -1.21463,0.72809 -1.21589,0.28623 -0.002,-0.59489 0.46715,-1.13902 1.17035,-1.35828 0.67951,-0.21187 0.76248,-0.40418 0.76176,-1.76567 -4.7e-4,-0.84034 0.0848,-1.95823 0.18949,-2.48418 0.17353,-0.87196 0.1142,-0.97192 -0.67294,-1.1337 -0.54858,-0.11275 -1.0171,-0.47559 -1.28534,-0.9954 -0.25458,-0.49335 -0.51098,-0.6997 -0.64605,-0.51995 -0.12317,0.16392 -0.57866,0.29804 -1.01218,0.29804 -0.99118,0 -0.98353,0.1238 0.19525,3.16194 1.27514,3.28645 1.39411,7.77629 0.30582,11.54103 -0.85999,2.97495 -0.71204,3.50814 1.26176,4.54721 1.99058,1.04791 2.65485,1.07964 2.73265,0.13055 z"
         id="feet3"
         inkscape:connector-curvature="0"
         inkscape:label="#path4659">
        <title
           id="title7916">feet</title>
      </path>
      <path
         style="fill:none;stroke:#cccccc;stroke-width:0.19200001;stroke-miterlimit:4;stroke-dasharray:none;stroke-dashoffset:0"
         d="m 178.89748,201.21093 c 2.11827,-1.03959 2.27756,-1.53611 1.42357,-4.43732 -1.06496,-3.61795 -0.92703,-8.71464 0.32536,-12.02226 0.54054,-1.42761 0.93672,-2.62617 0.8804,-2.66346 -0.68802,-0.45547 -2.20177,-0.31586 -2.64806,0.24423 -0.27617,0.34659 -0.80238,0.70831 -1.16935,0.80381 -0.687,0.17879 -0.88761,5.14927 -0.20809,5.15572 0.3794,0.004 1.84566,1.25652 1.84658,1.57791 0.001,0.46237 -0.66985,0.31003 -1.26075,-0.28617 -1.60551,-1.61989 -2.83441,0.45205 -2.14598,3.61818 0.30406,1.3984 0.40364,3.0412 0.29067,4.79551 -0.27736,4.30718 -0.0704,4.55664 2.66565,3.21385 z"
         id="feet4"
         inkscape:connector-curvature="0"
         inkscape:label="#path4657">
        <title
           id="title7914">feet</title>
      </path>
      <path
         style="fill:none;stroke:#cccccc;stroke-width:0.19200001;stroke-miterlimit:4;stroke-dasharray:none;stroke-dashoffset:0"
         d="m 169.14418,181.87794 c 1.50204,-5.48763 0.8061,-8.89881 -2.69741,-13.22136 -1.17617,-1.45114 -1.18681,-1.29096 -0.27025,4.07068 0.45612,2.66816 0.92763,5.68464 1.0478,6.70328 0.21115,1.78986 0.80721,3.04271 1.4476,3.04271 0.17012,0 0.38264,-0.26789 0.47226,-0.59531 z"
         id="calves2"
         inkscape:connector-curvature="0"
         inkscape:label="#path4655">
        <title
           id="title7906">calves</title>
      </path>
      <path
         style="fill:none;stroke:#cccccc;stroke-width:0.19200001;stroke-miterlimit:4;stroke-dasharray:none;stroke-dashoffset:0"
         d="m 178.01157,182.09856 c 0.20815,-0.20608 0.50175,-1.3766 0.65244,-2.60115 0.15069,-1.22455 0.57107,-4.00273 0.93418,-6.17374 1.08744,-6.50189 1.05367,-5.90567 0.29157,-5.14782 -3.26139,3.24316 -4.42543,7.33858 -3.45663,12.1614 0.45365,2.25833 0.74644,2.58504 1.57844,1.76131 z"
         id="calves3"
         inkscape:connector-curvature="0"
         inkscape:label="#path4653">
        <title
           id="title7912">calves</title>
      </path>
      <path
         style="fill:none;stroke:#cccccc;stroke-width:0.19200001;stroke-miterlimit:4;stroke-dasharray:none;stroke-dashoffset:0"
         d="m 166.13662,180.49573 c 0.28467,-0.51456 0.17241,-1.74569 -0.52474,-5.75469 -0.48779,-2.80504 -0.96984,-5.60609 -1.07122,-6.22456 -0.30784,-1.87803 -0.67151,-1.26701 -0.86612,1.45521 -0.10143,1.41883 -0.27233,3.65125 -0.37979,4.96094 -0.37734,4.59899 1.42422,8.12564 2.84187,5.5631 z"
         id="calves"
         inkscape:connector-curvature="0"
         inkscape:label="#path4651">
        <title
           id="title7908">calves</title>
      </path>
      <path
         style="fill:none;stroke:#cccccc;stroke-width:0.19200001;stroke-miterlimit:4;stroke-dasharray:none;stroke-dashoffset:0"
         d="m 181.90887,180.61487 c 0.84857,-1.30486 1.07201,-4.80909 0.50817,-7.96959 -0.29907,-1.67636 -0.54518,-3.54413 -0.54692,-4.1506 -0.002,-0.60647 -0.14846,-1.10268 -0.32606,-1.10268 -0.1776,0 -0.32158,0.4652 -0.31996,1.03377 0.002,0.56857 -0.35448,3.07994 -0.79134,5.58082 -0.88989,5.09433 -0.96441,6.3651 -0.40028,6.82625 0.59165,0.48364 1.48781,0.37955 1.87639,-0.21797 z"
         id="calves4"
         inkscape:connector-curvature="0"
         inkscape:label="#path4649">
        <title
           id="title7910">calves</title>
      </path>
      <path
         style="fill:none;stroke:#cccccc;stroke-width:0.19200001;stroke-miterlimit:4;stroke-dasharray:none;stroke-dashoffset:0"
         d="m 169.91076,166.26527 c -0.35236,-0.4717 -0.65226,-1.1553 -0.66644,-1.5191 -0.0649,-1.66516 -0.41907,-1.65089 -1.94473,0.0784 -1.46915,1.66522 -1.46915,1.66522 -0.0635,3.3731 0.7731,0.93934 1.50309,1.94602 1.62222,2.23706 0.16294,0.39811 0.39943,0.0535 0.95486,-1.39131 0.73828,-1.92048 0.73828,-1.92048 0.0976,-2.77813 z"
         id="knees5"
         inkscape:connector-curvature="0"
         inkscape:label="#path4647">
        <title
           id="title7900">knees</title>
      </path>
      <path
         style="fill:none;stroke:#cccccc;stroke-width:0.19200001;stroke-miterlimit:4;stroke-dasharray:none;stroke-dashoffset:0"
         d="m 179.24665,165.62999 c -0.47747,-0.45978 -1.13445,-1.20392 -1.45996,-1.65364 -0.80643,-1.11416 -0.97732,-1.03749 -1.20065,0.5387 -0.1057,0.74601 -0.4308,1.65584 -0.72244,2.02185 -0.45257,0.56798 -0.47241,0.82242 -0.13543,1.73685 0.94655,2.56856 0.79963,2.55424 2.68481,0.26172 1.7018,-2.06951 1.7018,-2.06951 0.83367,-2.90548 z"
         id="knees6"
         inkscape:connector-curvature="0"
         inkscape:label="#path4645">
        <title
           id="title7898">knees</title>
      </path>
      <path
         style="fill:none;stroke:#cccccc;stroke-width:0.19200001;stroke-miterlimit:4;stroke-dasharray:none;stroke-dashoffset:0"
         d="m 167.6381,162.9984 c 1.09602,-1.48751 1.09602,-1.48751 1.47358,-7.21208 0.4359,-6.60904 0.56768,-6.12215 -1.40556,-5.19306 -3.61745,1.70326 -4.39208,3.09567 -3.61875,6.50475 0.42253,1.86262 0.51807,6.46421 0.17106,8.23914 -0.27741,1.419 1.53502,0.16478 3.37967,-2.33875 z"
         id="hams"
         inkscape:connector-curvature="0"
         inkscape:label="#path4643">
        <title
           id="title7896">hams</title>
      </path>
      <path
         style="fill:none;stroke:#cccccc;stroke-width:0.19200001;stroke-miterlimit:4;stroke-dasharray:none;stroke-dashoffset:0"
         d="m 181.35124,163.0925 c -0.1517,-2.09654 -0.0748,-3.71969 0.26001,-5.4901 0.79997,-4.22983 0.40775,-5.07651 -3.14181,-6.78218 -2.40409,-1.15523 -2.24455,-1.58541 -1.79353,4.83616 0.43685,6.21981 0.64308,6.80924 3.19534,9.13274 1.81463,1.65198 1.72936,1.74973 1.47999,-1.69662 z"
         id="hams2"
         inkscape:connector-curvature="0"
         inkscape:label="#path4641">
        <title
           id="title7894">hams</title>
      </path>
      <path
         style="fill:none;stroke:#cccccc;stroke-width:0.19200001;stroke-miterlimit:4;stroke-dasharray:none;stroke-dashoffset:0"
         d="m 175.95248,162.35775 c 0.36666,-5.08769 -0.53187,-12.96858 -1.57834,-13.8435 -0.93425,-0.78108 -0.93425,-0.78108 -0.77786,0.11864 0.27534,1.58412 1.10955,10.04157 1.35278,13.71492 0.26401,3.98709 0.71648,3.99158 1.00342,0.01 z"
         id="quads9"
         inkscape:connector-curvature="0"
         inkscape:label="#path4639">
        <title
           id="title7890">quads</title>
      </path>
      <path
         style="fill:none;stroke:#cccccc;stroke-width:0.19200001;stroke-miterlimit:4;stroke-dasharray:none;stroke-dashoffset:0"
         d="m 171.51726,154.99385 c 0.70628,-7.34813 0.71485,-7.19454 -0.34953,-6.2639 -0.89907,0.78611 -1.39522,5.84978 -1.20638,12.31203 0.12307,4.21125 0.706,6.05705 0.8356,2.64584 0.0415,-1.09141 0.3656,-5.0037 0.72031,-8.69397 z"
         id="quads8"
         inkscape:connector-curvature="0"
         inkscape:label="#path4637">
        <title
           id="title7892">quads</title>
      </path>
      <path
         style="fill:none;stroke:#cccccc;stroke-width:0.19200001;stroke-miterlimit:4;stroke-dasharray:none;stroke-dashoffset:0"
         d="m 183.65646,158.55277 c 2.73067,-10.35778 2.71846,-15.00578 -0.0323,-12.31967 -1.10602,1.08001 -1.22108,1.79048 -1.11277,6.87138 0.0512,2.4011 0.007,5.85391 -0.0989,7.67292 -0.10558,1.81901 -0.11854,3.00963 -0.0288,2.64583 0.0897,-0.3638 0.66252,-2.55551 1.27282,-4.87046 z"
         id="quads10"
         inkscape:connector-curvature="0"
         inkscape:label="#path4635">
        <title
           id="title7816">quads</title>
      </path>
      <path
         style="fill:none;stroke:#cccccc;stroke-width:0.19200001;stroke-miterlimit:4;stroke-dasharray:none;stroke-dashoffset:0"
         d="m 163.28362,158.01737 c -0.40559,-2.08815 -0.44984,-3.08671 -0.20047,-4.52387 0.79604,-4.58765 0.0587,-7.25399 -2.21044,-7.99357 -1.07356,-0.34991 -1.07356,-0.34991 -0.8604,1.84138 0.4282,4.40199 2.47567,13.84447 3.3724,15.55276 0.45577,0.86823 0.38898,-2.35365 -0.10109,-4.8767 z"
         id="quads7"
         inkscape:connector-curvature="0"
         inkscape:label="#path4633">
        <title
           id="title7814">quads</title>
      </path>
      <path
         style="fill:none;stroke:#cccccc;stroke-width:0.19200001;stroke-miterlimit:4;stroke-dasharray:none;stroke-dashoffset:0"
         d="m 143.963,150.72321 c 0.44108,0 3.76604,-3.18805 4.4343,-4.25171 0.30109,-0.47924 0.46099,-1.35775 0.41809,-2.29706 0.26357,-4.04295 1.78743,-11.50053 -2.14481,-4.27476 -0.37378,0.70893 -1.09395,1.46898 -1.72903,1.82477 -0.96792,0.54226 -4.14893,3.12027 -4.14824,3.36189 1.5e-4,0.0518 0.42847,-0.0874 0.95182,-0.30946 2.34646,-0.99542 2.43892,-0.48636 0.51107,2.8139 -1.75803,3.00954 -1.29672,4.91843 0.84001,3.47593 0.27985,-0.18892 0.66992,-0.3435 0.86681,-0.3435 z"
         id="hands3"
         inkscape:connector-curvature="0"
         sodipodi:nodetypes="csccccccccc"
         inkscape:label="#path4631">
        <title
           id="title7882">hands</title>
      </path>
      <path
         style="fill:none;stroke:#cccccc;stroke-width:0.19200001;stroke-miterlimit:4;stroke-dasharray:none;stroke-dashoffset:0"
         d="m 182.24427,146.29592 c 0.53474,-0.84762 1.96804,-1.65812 2.93224,-1.65812 0.54285,0 0.69142,-1.77636 0.28591,-3.41845 -0.3832,-1.55171 -4.72914,-3.71538 -6.20208,-3.08776 -1.34591,0.57349 -5.854,6.54899 -5.85055,7.75496 0.003,0.88267 2.17936,2.63183 4.83543,3.88542 1.40996,0.66547 2.68256,1.36009 2.82799,1.54361 0.15409,0.19446 0.34097,-0.60465 0.44791,-1.91528 0.10619,-1.30149 0.41084,-2.60934 0.72315,-3.10438 z"
         id="glutes2"
         inkscape:connector-curvature="0"
         inkscape:label="#path4629">
        <title
           id="title7888">glutes</title>
      </path>
      <path
         style="fill:none;stroke:#cccccc;stroke-width:0.19200001;stroke-miterlimit:4;stroke-dasharray:none;stroke-dashoffset:0"
         d="m 204.49597,150.91475 c -0.0498,-0.22892 0.0563,-0.49065 0.23569,-0.58163 0.19556,-0.0992 -0.25647,-1.11156 -1.12885,-2.52821 -2.03673,-3.30739 -1.89752,-4.03098 0.57739,-3.00117 1.03466,0.43052 1.03466,0.43052 0.1211,-0.37784 -1.7423,-1.54165 -2.38394,-2.04085 -3.59028,-2.79321 -0.66682,-0.41589 -1.47715,-1.25946 -1.80073,-1.87462 -0.32358,-0.61516 -1.25994,-1.91953 -2.08081,-2.8986 l -1.49248,-1.78012 0.007,2.36505 c 0.006,1.94749 0.15005,2.62912 0.81832,3.86073 0.58872,1.08499 0.81288,1.95853 0.81637,3.18135 0.004,1.54043 0.10948,1.79769 1.21945,2.98554 2.42805,2.59839 3.16759,3.25118 3.68325,3.25118 0.28906,1e-5 0.68689,0.15884 0.88408,0.35297 0.50086,0.49309 1.84576,0.36766 1.73075,-0.16142 z"
         id="hands4"
         inkscape:connector-curvature="0"
         inkscape:label="#path4627">
        <title
           id="title7884">hands</title>
      </path>
      <path
         style="fill:none;stroke:#cccccc;stroke-width:0.19200001;stroke-miterlimit:4;stroke-dasharray:none;stroke-dashoffset:0"
         d="m 165.17356,151.00975 c 0.10026,-0.13343 1.34539,-0.79303 2.76695,-1.46578 4.90676,-2.32212 5.14169,-2.98339 2.4729,-6.96065 -3.64653,-5.43438 -4.51984,-5.64939 -9.6414,-2.37369 -1.02411,0.65501 -1.09606,4.42813 -0.0844,4.42813 1.96844,0 3.67857,2.42163 3.69022,5.22552 0.005,1.27242 0.33941,1.75379 0.79577,1.14647 z"
         id="glutes"
         inkscape:connector-curvature="0"
         inkscape:label="#path4625">
        <title
           id="title7886">glutes</title>
      </path>
      <path
         style="fill:none;fill-opacity:1;stroke:#cccccc;stroke-width:0.19200001;stroke-miterlimit:4;stroke-dasharray:none;stroke-dashoffset:0"
         d="m 173.87053,142.98238 c 0.69562,-0.9916 0.76656,-1.22191 0.33448,-1.08593 -0.97535,0.30694 -1.12087,-0.4627 -1.14184,-6.03887 -0.0252,-6.68693 0.29839,-7.66638 2.08036,-6.29772 0.69333,0.53253 0.69333,0.53253 -0.035,-1.25677 -1.69878,-4.17322 -1.93646,-6.30503 -1.8588,-16.67211 0.0623,-8.32085 0.009,-9.59114 -0.40526,-9.59114 -0.41055,0 -0.49211,1.46703 -0.5847,10.51719 -0.11544,11.28371 -0.37489,13.34726 -2.09138,16.63393 -0.67454,1.29159 -0.67454,1.29159 -0.005,0.56398 0.74056,-0.80521 1.73045,-0.95556 2.03507,-0.30909 0.57792,1.22652 0.23576,12.29712 -0.38599,12.48845 -0.59172,0.18209 -0.58324,0.23666 0.20584,1.32523 0.45263,0.62442 0.85599,1.10067 0.89635,1.05833 0.0404,-0.0423 0.47068,-0.64331 0.95625,-1.33548 z"
         id="erector"
         inkscape:connector-curvature="0"
         inkscape:label="#path4623">
        <title
           id="title7818">erector</title>
      </path>
      <path
         style="fill:none;stroke:#cccccc;stroke-width:0.19200001;stroke-miterlimit:4;stroke-dasharray:none;stroke-dashoffset:0"
         d="m 171.5916,130.66925 c -0.17028,-0.5618 -0.36341,-0.46406 -2.59062,1.31101 -2.85916,2.27875 -2.86748,2.32874 -0.74655,4.48783 0.91165,0.92806 2.0418,2.32305 2.51143,3.09999 0.85389,1.41262 0.85389,1.41262 0.93182,-3.43958 0.0429,-2.66871 -0.005,-5.12537 -0.10608,-5.45925 z"
         id="erector3"
         inkscape:connector-curvature="0"
         inkscape:label="#path4621">
        <title
           id="title7822">erector</title>
      </path>
      <path
         style="fill:none;stroke:#cccccc;stroke-width:0.19200001;stroke-miterlimit:4;stroke-dasharray:none;stroke-dashoffset:0"
         d="m 177.57015,136.34372 c 0.89109,-0.89408 1.6197,-1.78828 1.61913,-1.98709 -8.9e-4,-0.31233 -4.67596,-4.27096 -5.04392,-4.27096 -0.0742,0 -0.12537,2.41102 -0.11373,5.35781 0.0212,5.35782 0.0212,5.35782 0.96975,3.94184 0.52173,-0.77879 1.67767,-2.14751 2.56877,-3.0416 z"
         id="erector2"
         inkscape:connector-curvature="0"
         inkscape:label="#path4619">
        <title
           id="title7820">erector</title>
      </path>
      <path
         style="fill:none;stroke:#cccccc;stroke-width:0.19200001;stroke-opacity:1;stroke-miterlimit:4;stroke-dasharray:none;stroke-dashoffset:0"
         d="m 179.8868,137.22942 c 0.70413,0 1.74583,0.1922 2.31489,0.42711 1.16276,0.47998 0.95014,0.27758 -0.82556,-0.7859 -0.86057,-0.5154 -1.21357,-0.92547 -1.21496,-1.41139 -0.002,-0.64864 -0.0463,-0.63041 -0.83919,0.3442 -0.46048,0.56601 -1.16605,1.32676 -1.56793,1.69057 -0.40189,0.3638 -0.99513,1.01864 -1.31832,1.4552 -0.38839,0.52463 -0.11999,0.36764 0.7916,-0.46302 1.20438,-1.09745 1.54151,-1.25677 2.65947,-1.25677 z"
         id="hips6"
         inkscape:connector-curvature="0"
         inkscape:label="#path4617" />
      <path
         style="fill:none;stroke:#cccccc;stroke-width:0.19200001;stroke-opacity:1;stroke-miterlimit:4;stroke-dasharray:none;stroke-dashoffset:0"
         d="m 165.57722,137.22942 c 1.28156,0 1.59879,0.12822 2.737,1.10618 1.48069,1.27224 1.02487,0.39028 -0.54962,-1.06344 -0.57709,-0.53283 -1.29374,-1.26316 -1.59255,-1.62296 -0.53612,-0.64555 -0.54327,-0.64645 -0.54161,-0.0676 0.001,0.4405 -0.63889,0.93289 -2.57039,1.97711 -1.41463,0.76478 -2.57508,1.47611 -2.57879,1.58072 -0.004,0.10462 0.81522,-0.28234 1.81983,-0.8599 1.4701,-0.84517 2.10944,-1.0501 3.27613,-1.0501 z"
         id="hips5"
         inkscape:connector-curvature="0"
         inkscape:label="#path4615" />
      <path
         style="fill:#000000;stroke:#cccccc;stroke-width:0.19200001;stroke-opacity:1;stroke-miterlimit:4;stroke-dasharray:none;stroke-dashoffset:0"
         d="m 185.33829,139.13855 c -3.2e-4,-0.11414 -0.47346,-0.42002 -1.05141,-0.67973 -1.05081,-0.4722 -1.05081,-0.4722 -0.0801,0.20622 1.07034,0.74807 1.13241,0.77405 1.13155,0.47351 z"
         id="path4613"
         inkscape:connector-curvature="0" />
      <path
         style="fill:none;stroke:#cccccc;stroke-width:0.19200001;stroke-miterlimit:4;stroke-dasharray:none;stroke-dashoffset:0"
         d="m 194.05052,133.6936 c -0.43871,-1.71222 -1.24207,-2.80831 -2.7459,-3.74647 -2.1402,-1.33516 -2.22065,0.1156 0.87774,5.52547 1.66564,2.90822 2.03322,2.67848 2.1265,1.13592 0.0513,-0.8484 -0.0649,-2.16012 -0.25834,-2.91492 z"
         id="extensor4"
         inkscape:connector-curvature="0"
         sodipodi:nodetypes="csccc"
         inkscape:label="#path4611" />
      <path
         style="fill:none;stroke:#cccccc;stroke-width:0.19200001;stroke-miterlimit:4;stroke-dasharray:none;stroke-dashoffset:0"
         d="m 155.84227,130.93398 c 0.65381,-1.61152 0.0851,-1.8991 -1.51269,-0.99037 -2.0169,1.1471 -3.78862,5.67619 -2.95098,7.5437 0.18872,0.42075 3.58667,-4.39166 4.46367,-6.55333 z"
         id="extensor3"
         inkscape:connector-curvature="0"
         sodipodi:nodetypes="ccsc"
         inkscape:label="#path4609" />
      <path
         style="fill:none;stroke:#cccccc;stroke-width:0.19200001;stroke-miterlimit:4;stroke-dasharray:none;stroke-dashoffset:0"
         d="m 163.61415,136.2549 c 1.35741,-0.82912 1.35531,-0.83651 -0.73394,-2.58571 -1.78028,-1.49052 -1.78028,-1.49052 -1.77695,-0.32687 0.002,0.64001 -0.0913,1.92212 -0.20687,2.84914 -0.23313,1.8694 -0.23868,1.86927 2.71776,0.0634 z"
         id="hips3"
         inkscape:connector-curvature="0"
         inkscape:label="#path4607">
        <title
           id="title7824">hips</title>
      </path>
      <path
         style="fill:none;stroke:#cccccc;stroke-width:0.19200001;stroke-miterlimit:4;stroke-dasharray:none;stroke-dashoffset:0"
         d="m 184.85738,136.2372 c -0.55402,-4.20321 -0.38514,-3.9778 -2.00776,-2.67999 -2.35621,1.88456 -2.35711,1.92963 -0.0628,3.14282 1.101,0.58219 2.06239,1.05852 2.13644,1.05852 0.074,0 0.0444,-0.68461 -0.0659,-1.52135 z"
         id="hips4"
         inkscape:connector-curvature="0"
         inkscape:label="#path4605">
        <title
           id="title7826">hips</title>
      </path>
      <path
         style="fill:none;stroke:#cccccc;stroke-width:0.19200001;stroke-miterlimit:4;stroke-dasharray:none;stroke-dashoffset:0"
         d="m 150.16998,133.04816 c 0.9732,-2.28651 0.76672,-7.00425 -0.14875,-5.82582 -1.16704,1.50228 -2.52413,6.12193 -2.14342,8.94399 -0.008,0.67584 1.62027,-1.53955 2.29217,-3.11817 z"
         id="flexor3"
         inkscape:connector-curvature="0"
         sodipodi:nodetypes="cccc"
         inkscape:label="#path4603" />
      <path
         style="fill:none;stroke:#cccccc;stroke-width:0.19200001;stroke-miterlimit:4;stroke-dasharray:none;stroke-dashoffset:0"
         d="m 197.81525,133.35347 c -0.60307,-3.70574 -2.23839,-6.70741 -3.03645,-6.70741 -1.03337,0 0.51053,6.53212 2.0509,8.6772 1.07831,1.50164 1.50606,1.22864 0.98555,-1.96979 z"
         id="flexor4"
         inkscape:connector-curvature="0"
         sodipodi:nodetypes="sscs"
         inkscape:label="#path4601" />
      <path
         style="fill:#000000;stroke:#cccccc;stroke-width:0.19200001;stroke-opacity:1;stroke-miterlimit:4;stroke-dasharray:none;stroke-dashoffset:0"
         d="m 166.31089,132.77382 c 0.24221,-0.25583 0.11424,-0.18479 -0.28438,0.15788 -0.41469,0.35647 -0.70977,0.92802 -0.68969,1.33588 0.0326,0.66216 0.0528,0.65094 0.28439,-0.15788 0.13711,-0.4789 0.44746,-1.08005 0.68968,-1.33588 z"
         id="path4599"
         inkscape:connector-curvature="0" />
      <path
         style="fill:#000000;stroke:#cccccc;stroke-width:0.19200001;stroke-opacity:1;stroke-miterlimit:4;stroke-dasharray:none;stroke-dashoffset:0"
         d="m 180.34515,133.85975 c -0.10712,-0.2745 -0.73367,-0.90856 -1.39234,-1.409 -1.19759,-0.9099 -1.19759,-0.9099 0.003,0.21534 0.66033,0.61889 1.20116,1.32334 1.20185,1.56545 6.9e-4,0.24212 0.087,0.36981 0.19175,0.28376 0.10477,-0.086 0.10285,-0.38104 -0.004,-0.65555 z"
         id="path4597"
         inkscape:connector-curvature="0" />
      <path
         style="fill:none;stroke:#cccccc;stroke-width:0.19200001;stroke-miterlimit:4;stroke-dasharray:none;stroke-dashoffset:0"
         d="m 183.7456,131.4816 c 0.55781,-0.74125 1.59684,-4.76171 2.31957,-8.97543 0.18818,-1.09719 0.18818,-1.09719 -0.76158,-0.36865 -1.29446,0.99296 -3.43749,1.44428 -5.94656,1.25234 -4.96752,-0.38 -5.285,4.80427 -0.48106,7.85544 1.123,0.71326 1.99394,1.49255 2.11856,1.8956 0.24534,0.79355 1.4537,0.0647 2.75107,-1.6593 z"
         id="lats3"
         inkscape:connector-curvature="0"
         inkscape:label="#path4595">
        <title
           id="title7856">lats</title>
      </path>
      <path
         style="fill:none;stroke:#cccccc;stroke-width:0.19200001;stroke-miterlimit:4;stroke-dasharray:none;stroke-dashoffset:0"
         d="m 169.14631,129.07267 c 2.1078,-3.34174 0.76949,-5.96585 -2.90492,-5.69584 -2.50505,0.18408 -4.44283,-0.19235 -5.80097,-1.12687 -1.20783,-0.8311 -1.20297,-0.95279 -0.15783,3.95539 1.50185,7.0529 2.66757,8.07844 6.09772,5.36445 1.30757,-1.03457 2.55227,-2.15828 2.766,-2.49713 z"
         id="lats4"
         inkscape:connector-curvature="0"
         inkscape:label="#path4593">
        <title
           id="title7854">lats</title>
      </path>
      <path
         style="fill:none;stroke:#cccccc;stroke-width:0.19200001;stroke-miterlimit:4;stroke-dasharray:none;stroke-dashoffset:0"
         d="m 154.47127,128.8819 c 1.09148,-0.47706 1.16658,-0.58603 0.99392,-1.44209 -0.10272,-0.50932 -0.19099,-1.84165 -0.19614,-2.96073 l 0.63426,-4.33205 -2.64619,3.85552 c -1.63534,1.42031 -2.23266,0.17973 -1.31583,4.02138 1.71572,-0.48129 0.22871,1.88609 2.53034,0.85797 z"
         id="path4591"
         inkscape:connector-curvature="0"
         sodipodi:nodetypes="cccccccc" />
      <path
         style="fill:none;stroke:#cccccc;stroke-width:0.19200001;stroke-miterlimit:4;stroke-dasharray:none;stroke-dashoffset:0"
         d="m 192.13346,123.4789 c -0.98314,-0.85984 -2.36487,-3.12416 -2.36487,-3.12416 0,0 0.22991,2.39495 0.32563,3.59407 0.076,0.95153 0.29298,1.99878 0.19731,2.85687 -0.17398,1.56017 -0.17398,1.56017 1.32475,2.32263 2.24557,1.35435 -0.55949,-1.71267 2.01693,-1.0965 0.0843,-2.71528 1.02244,-3.87171 -0.44266,-3.9556 -1e-4,-1e-5 -0.75244,-0.33087 -1.05709,-0.59731 z"
         id="path4589"
         inkscape:connector-curvature="0"
         sodipodi:nodetypes="acacccsa" />
      <path
         style="fill:none;stroke:#cccccc;stroke-width:0.19200001;stroke-miterlimit:4;stroke-dasharray:none;stroke-dashoffset:0"
         d="m 157.57574,123.26026 c 0.99221,-2.57347 1.07488,-3.83907 0.25828,-3.9538 -1.26156,-0.17723 -1.45009,0.31916 -1.50262,3.95637 -0.0279,1.93354 0.0273,3.2774 0.12261,2.98635 0.0954,-0.29104 0.60014,-1.63605 1.12173,-2.98892 z"
         id="path4587"
         inkscape:connector-curvature="0" />
      <path
         style="fill:none;stroke:#cccccc;stroke-width:0.19200001;stroke-miterlimit:4;stroke-dasharray:none;stroke-dashoffset:0"
         d="m 189.4115,123.17416 c -0.1871,-3.57353 -0.33178,-3.9231 -1.62748,-3.93239 -0.8711,-0.006 -0.7307,1.31978 0.48282,4.56001 1.34075,3.57995 1.36427,3.56705 1.14466,-0.62762 z"
         id="path4585"
         inkscape:connector-curvature="0" />
      <path
         style="fill:none;stroke:#cccccc;stroke-width:0.19200001;stroke-miterlimit:4;stroke-dasharray:none;stroke-dashoffset:0"
         d="m 171.23359,121.48826 c 0.34492,-2.19222 0.39781,-4.75644 0.22973,-11.13792 -0.21394,-8.12261 -0.48699,-10.07116 -0.8471,-6.04512 -0.23113,2.584 -0.38318,2.7065 -4.89669,3.94502 -3.15852,0.86671 -4.5546,1.46247 -3.42706,1.46247 2.08296,0 4.66952,3.58714 4.76955,6.61459 0.0904,2.73523 0.65209,4.3151 2.43111,6.83768 1.23229,1.74734 1.19625,1.78206 1.74046,-1.67672 z"
         id="traps3"
         inkscape:connector-curvature="0"
         inkscape:label="#path4583">
        <title
           id="title7800">traps</title>
      </path>
      <path
         style="fill:none;fill-opacity:1;stroke:#cccccc;stroke-width:0.19200001;stroke-miterlimit:4;stroke-dasharray:none;stroke-dashoffset:0"
         d="m 177.59123,120.74428 c 0.47057,-0.95999 0.7351,-2.26952 0.87748,-4.34403 0.23646,-3.44516 0.89403,-4.53541 3.62146,-6.00442 1.99673,-1.07546 2.10997,-0.97248 -2.37425,-2.15888 -4.51056,-1.19337 -4.8033,-1.45626 -4.81148,-4.32096 -0.0112,-3.928185 -0.56927,-1.31477 -0.7456,3.49176 -0.34204,9.32345 -0.12779,14.50388 0.6905,16.69622 0.22667,0.60727 1.6556,-1.14363 2.74189,-3.35969 z"
         id="traps4"
         inkscape:connector-curvature="0"
         inkscape:label="#path4581">
        <title
           id="title7798">traps</title>
      </path>
      <path
         style="fill:none;stroke:#cccccc;stroke-width:0.19200001;stroke-miterlimit:4;stroke-dasharray:none;stroke-dashoffset:0"
         d="m 154.14183,122.01616 c 1.22682,-1.72966 1.51705,-2.52114 0.85392,-2.32869 -1.42799,0.41443 -2.21103,1.3532 -2.61118,3.13049 -0.32598,1.4478 0.39499,1.11884 1.75726,-0.8018 z"
         id="path4579"
         inkscape:connector-curvature="0" />
      <path
         style="fill:none;stroke:#cccccc;stroke-width:0.19200001;stroke-miterlimit:4;stroke-dasharray:none;stroke-dashoffset:0"
         d="m 192.97145,121.7498 c -0.37765,-0.93233 -2.36119,-2.46851 -2.76216,-2.1392 -0.25208,0.20703 1.10312,2.39539 2.05497,3.31835 1.12298,1.0889 1.42316,0.58838 0.70719,-1.17915 z"
         id="path4577"
         inkscape:connector-curvature="0" />
      <path
         style="fill:none;stroke:#cccccc;stroke-width:0.19200001;stroke-miterlimit:4;stroke-dasharray:none;stroke-dashoffset:0"
         d="m 167.31416,122.52569 c 0.4132,-0.13004 0.38597,-0.3277 -0.19139,-1.38907 -0.38652,-0.71053 -0.73858,-2.03655 -0.82681,-3.11414 -0.23439,-2.86274 -2.40832,-3.39741 -4.1087,-1.01051 -0.47554,0.66754 -1.31135,1.3681 -1.9558,1.63933 -3.2689,1.37577 3.41107,5.02986 7.0827,3.87439 z"
         id="lats"
         inkscape:connector-curvature="0"
         inkscape:label="#path4575">
        <title
           id="title7858">lats</title>
      </path>
      <path
         style="fill:none;stroke:#cccccc;stroke-width:0.19200001;stroke-miterlimit:4;stroke-dasharray:none;stroke-dashoffset:0"
         d="m 182.92831,122.39588 c 2.12583,-0.65869 3.99885,-2.99599 2.83322,-3.5355 -0.67089,-0.31052 -1.64646,-1.11632 -3.0291,-2.50196 -1.56601,-1.56943 -3.12534,-0.83361 -3.36624,1.58848 -0.0986,0.99174 -0.48043,2.36384 -0.84842,3.04911 -0.52427,0.97626 -0.58003,1.29217 -0.25767,1.45956 0.59419,0.30853 3.60405,0.27005 4.66821,-0.0597 z"
         id="lats2"
         inkscape:connector-curvature="0"
         inkscape:label="#path4573">
        <title
           id="title7860">lats</title>
      </path>
      <path
         style="fill:none;stroke:#cccccc;stroke-width:0.19200001;stroke-miterlimit:4;stroke-dasharray:none;stroke-dashoffset:0"
         d="m 156.61077,118.67881 c 2.35614,-0.31102 3.58023,-0.79715 4.35046,-1.72772 0.31767,-0.38379 0.94663,-1.02323 1.39771,-1.42098 1.39896,-1.23357 -3.59175,-5.24373 -5.41541,-4.35143 -1.89076,0.92514 -3.42141,3.78398 -4.06592,7.59404 -0.16751,0.99022 -0.16751,0.99022 0.80646,0.57704 0.53568,-0.22725 1.8527,-0.52918 2.9267,-0.67095 z"
         id="delts3"
         inkscape:connector-curvature="0"
         inkscape:label="#path4571">
        <title
           id="title7870">delts</title>
      </path>
      <path
         style="fill:none;stroke:#cccccc;stroke-width:0.19200001;stroke-miterlimit:4;stroke-dasharray:none;stroke-dashoffset:0"
         d="m 192.38347,117.29292 c -0.81097,-3.33775 -2.27128,-5.56504 -4.17762,-6.3718 -0.83148,-0.35188 -0.90839,-0.30944 -3.37318,1.86159 -1.38727,1.22192 -2.36378,2.22167 -2.17003,2.22167 0.19375,0 0.79174,0.583 1.32888,1.29555 1.12647,1.49437 2.21328,1.99902 5.1351,2.38442 1.12844,0.14885 2.35996,0.43986 2.7367,0.64669 0.92158,0.50594 1.03258,0.071 0.52015,-2.03812 z"
         id="delts4"
         inkscape:connector-curvature="0"
         inkscape:label="#path4569">
        <title
           id="title7872">delts</title>
      </path>
      <path
         style="fill:none;stroke:#cccccc;stroke-width:0.19200001;stroke-miterlimit:4;stroke-dasharray:none;stroke-dashoffset:0"
         d="m 166.04461,114.40907 c -0.55312,-2.11454 -6.62706,-5.96737 -6.62202,-4.20048 0.002,0.64979 5.69107,5.06037 6.52738,5.06037 0.1909,0 0.22901,-0.34621 0.0946,-0.85989 z"
         id="traps5"
         inkscape:connector-curvature="0"
         inkscape:label="#path4567">
        <title
           id="title7862">traps</title>
      </path>
      <path
         style="fill:none;stroke:#cccccc;stroke-width:0.19200001;stroke-miterlimit:4;stroke-dasharray:none;stroke-dashoffset:0"
         d="m 181.39711,114.31407 c 1.34764,-0.84359 4.82802,-3.84002 4.82712,-4.15591 -0.004,-1.28516 -5.08511,1.3797 -6.31489,3.31172 -1.14619,1.80068 -0.56609,2.12984 1.48777,0.84419 z"
         id="traps6"
         inkscape:connector-curvature="0"
         inkscape:label="#path4565">
        <title
           id="title7864">traps</title>
      </path>
      <path
         style="fill:none;stroke:#cccccc;stroke-width:0.19200001;stroke-miterlimit:4;stroke-dasharray:none;stroke-dashoffset:0"
         d="m 169.7105,104.02425 c 0.01,-0.94673 -0.0747,-1.21006 -0.29792,-0.92604 -0.17154,0.21828 -0.30203,1.05172 -0.28998,1.85208 0.0281,1.86382 0.56741,1.01426 0.5879,-0.92604 z"
         id="sternos3"
         inkscape:connector-curvature="0"
         inkscape:label="#path4563">
        <title
           id="title7790">sternos</title>
      </path>
      <path
         style="fill:none;stroke:#cccccc;stroke-width:0.19200001;stroke-miterlimit:4;stroke-dasharray:none;stroke-dashoffset:0"
         d="m 175.84556,102.7297 c -0.2945,-0.22413 -0.33637,-0.0832 -0.17822,0.60002 0.11369,0.49113 0.11567,1.97901 0.14982,2.43376 0.0342,0.45476 0.64982,-0.17224 0.71369,-0.95701 0.0718,-0.88286 -0.44708,-1.8955 -0.68529,-2.07677 z"
         id="sternos4"
         inkscape:connector-curvature="0"
         sodipodi:nodetypes="ccccc"
         inkscape:label="#path4561">
        <title
           id="title7792">sternos</title>
      </path>
      <path
         style="fill:none;stroke:#cccccc;stroke-width:0.19200001;stroke-miterlimit:4;stroke-dasharray:none;stroke-dashoffset:0"
         d="m 168.76455,102.32634 c -0.003,-1.12609 5.75523,-1.33871 7.51038,-0.27731 0.51532,0.31164 0.97959,0.52636 1.0317,0.47717 2.67264,-2.52298 3.93945,-7.537962 0.40903,-11.867353 -5.13836,-4.782388 -12.91951,-0.08814 -12.13733,7.32456 0.25946,2.458943 3.19117,6.068723 3.18624,4.342933 z"
         id="head2"
         inkscape:connector-curvature="0"
         sodipodi:nodetypes="ccccscc"
         inkscape:label="#path4559">
        <title
           id="title4781">head</title>
      </path>
      <path
         style="fill:none;stroke:#cccccc;stroke-width:0.19200001;stroke-opacity:1;stroke-miterlimit:4;stroke-dasharray:none;stroke-dashoffset:0"
         d="m 98.47954,149.54148 c -0.103414,-3.41904 2.15747,-2.57741 3.90569,-1.71368 1.88903,0.96164 3.86162,2.77304 5.66847,2.98323 1.07618,0.14618 4.52427,-1.60066 5.20247,-5.47255 0.14893,-1.20043 -1.16293,-2.61367 -2.29831,-2.80463 -2.75507,-0.37575 -4.23838,-1.82944 -5.11863,-3.29769 -3.43073,-7.02009 0.77652,-5.97386 0.83273,-5.40035 0.73883,7.53859 5.76784,8.5615 6.05992,5.28242 -0.008,-5.64544 15.15853,-4.02305 11.78541,7.46505 -3.53223,10.89967 -13.30757,8.24005 -19.42167,5.44339 -1.50227,-0.68716 -3.99421,-2.24287 -4.15319,-1.0526 -0.73736,5.52034 -2.416507,0.10089 -2.46289,-1.43259 z"
         id="nutrition"
         inkscape:connector-curvature="0"
         sodipodi:nodetypes="scccccsccsss"
         inkscape:label="#path4555">
        <title
           id="title7952">nutrition</title>
      </path>
      <path
         style="fill:none;stroke:#cccccc;stroke-width:0.19200001;stroke-miterlimit:4;stroke-dasharray:none;stroke-dashoffset:0"
         d="m 104.03089,123.40806 c -7.820236,-6.43973 -8.467001,-7.32553 -7.549356,-10.33956 1.433639,-4.70882 8.379886,-5.98107 12.705676,-2.32712 1.2708,1.07343 1.2708,1.07343 2.83197,-0.12571 5.21149,-4.00296 12.83381,-1.71347 12.84973,3.85962 0.007,2.365 -0.65588,3.12739 -7.76401,8.93277 l -6.56389,5.36089 z"
         id="cardio"
         inkscape:connector-curvature="0"
         inkscape:label="#path4553">
        <title
           id="title7950">cardio</title>
      </path>
    </g>
  </g>
</svg>
