<?xml version="1.0" encoding="UTF-8" standalone="no"?>
<svg
   xmlns:dc="http://purl.org/dc/elements/1.1/"
   xmlns:cc="http://creativecommons.org/ns#"
   xmlns:rdf="http://www.w3.org/1999/02/22-rdf-syntax-ns#"
   xmlns:svg="http://www.w3.org/2000/svg"
   xmlns="http://www.w3.org/2000/svg"
   id="svg8"
   version="1.1"
   viewBox="0 0 123.74858 115.02098"
   height="115.02099mm"
   width="123.74859mm">
  <defs
     id="defs2" />
  <metadata
     id="metadata5">
    <rdf:RDF>
      <cc:Work
         rdf:about="">
        <dc:format>image/svg+xml</dc:format>
        <dc:type
           rdf:resource="http://purl.org/dc/dcmitype/StillImage" />
        <dc:title></dc:title>
      </cc:Work>
    </rdf:RDF>
  </metadata>
  <g
     id="layer1"
     transform="translate(-49.012363,-87.63596)">
    <g
       id="g3777"
       transform="translate(-2.8986986,-0.43480478)">
      <path
         style="fill:none;stroke:#cccccc;stroke-width:0.18309165;stroke-miterlimit:4;stroke-dasharray:none;stroke-dashoffset:0"
         d="m 77.158348,202.14292 c -2.678531,-1.41366 -2.902469,-2.22998 -1.780374,-6.48992 0.899874,-3.41629 0.79038,-6.6584 -0.334561,-9.9061 -2.132223,-6.15575 -2.591712,-9.88892 -1.756452,-14.27055 0.511952,-2.68563 0.156174,-6.47485 -1.091559,-11.62564 -2.393408,-9.88027 -2.619537,-12.90106 -1.641375,-21.92671 0.669254,-6.17531 0.277481,-12.10815 -0.93467,-14.15426 -0.257796,-0.43516 -1.430387,3.33831 -1.757119,5.65451 -0.239887,1.70056 -1.072176,3.56425 -4.343557,9.72621 -1.864809,3.51255 -2.07294,4.0661 -2.069208,5.50325 0.0054,2.08075 -3.342134,6.86325 -4.803977,6.86325 -0.214871,0 -0.554108,0.17799 -0.753862,0.39552 -0.352446,0.38381 -1.941519,0.39176 -2.622295,0.0131 -0.820078,-0.45612 -0.685009,-2.02147 0.354779,-4.11168 1.039173,-2.08898 1.039173,-2.08898 -0.190378,-2.16953 -1.517504,-0.0994 -1.96167,-1.0846 -0.686201,-1.52203 0.403671,-0.13844 1.039086,-0.62502 1.412034,-1.08128 0.372953,-0.45626 1.291484,-1.22747 2.041185,-1.71381 1.777292,-1.15294 2.374611,-2.59323 3.142018,-7.57623 0.710456,-4.6132 0.907939,-5.26771 2.154522,-7.1407 1.329388,-1.99741 1.309724,-1.93344 1.805014,-5.8728 1.158857,-9.2171 2.062336,-10.20218 12.069122,-13.15917 3.454104,-1.02068 4.121933,-2.67028 2.156518,-5.32679 -4.476276,-6.050252 -1.79403,-13.837744 4.766137,-13.837744 6.560167,0 9.282871,7.787492 4.838027,13.837744 -1.951614,2.65651 -1.275216,4.30611 2.18419,5.32679 10.037814,2.9616 10.929344,3.93248 12.146544,13.22761 0.25586,1.95391 0.62701,3.81286 0.82479,4.131 2.34784,3.77676 2.561,4.38405 3.32439,9.47131 0.64233,4.28054 1.30927,5.79337 3.05028,6.91898 0.75223,0.48633 1.67477,1.25755 2.05009,1.71381 0.37532,0.45626 1.01326,0.94283 1.41765,1.08127 1.27775,0.43744 0.8387,1.42262 -0.67829,1.52204 -1.22913,0.0806 -1.22913,0.0806 -0.17911,2.16952 1.05065,2.09021 1.19385,3.65557 0.37614,4.11169 -0.67881,0.37864 -2.26792,0.37069 -2.62236,-0.0131 -0.20088,-0.21752 -0.54105,-0.39551 -0.75592,-0.39551 -1.46184,0 -4.83423,-4.7825 -4.83963,-6.86325 -0.004,-1.43715 -0.21474,-1.9907 -2.0978,-5.50325 -3.303391,-6.16196 -4.145363,-8.02565 -4.394087,-9.72621 -0.338764,-2.3162 -1.530958,-6.08967 -1.786493,-5.65451 -1.201522,2.04611 -1.562471,7.97895 -0.861136,14.15426 1.02505,9.02565 0.814615,12.04644 -1.527463,21.92671 -1.220974,5.15079 -1.557067,8.94001 -1.031163,11.62564 0.858023,4.38163 0.417929,8.1148 -1.682315,14.27055 -1.108068,3.2477 -1.200719,6.48981 -0.283097,9.9061 1.147442,4.27191 0.922526,5.09609 -1.772437,6.49495 -2.993082,1.5536 -3.33729,1.15509 -3.396188,-3.93203 -0.02529,-2.18281 -0.148362,-4.88607 -0.273537,-6.00723 -0.213272,-1.91028 -0.177059,-2.12597 0.575819,-3.42946 0.898728,-1.55602 0.893873,-2.9904 -0.0272,-8.02581 -0.524565,-2.86784 -0.550315,-4.49822 -0.118608,-7.51064 0.300062,-2.0938 0.273916,-2.42941 -0.321822,-4.13103 -0.490474,-1.40095 -0.717282,-2.97991 -0.931149,-6.48229 -0.155502,-2.54661 -0.420285,-6.77333 -0.588402,-9.39271 -0.168119,-2.61937 -0.309416,-5.22882 -0.313995,-5.79878 -0.02056,-2.55798 -0.266473,-0.32916 -0.566841,5.13733 -0.81128,14.76475 -0.798918,14.62461 -1.45864,16.53645 -0.587255,1.70183 -0.611648,2.03697 -0.30067,4.13103 0.447356,3.01242 0.430078,4.6428 -0.07959,7.51064 -0.89489,5.03541 -0.892293,6.46979 0.01451,8.02581 0.75965,1.30349 0.796984,1.51918 0.593636,3.42946 -0.119352,1.12116 -0.228397,3.82442 -0.242329,6.00723 -0.03243,5.08026 -0.403895,5.50911 -3.401567,3.927 z"
         id="path4775" />
      <path
         style="fill:none;stroke:#cccccc;stroke-width:0.18307075;stroke-miterlimit:4;stroke-dasharray:none;stroke-dashoffset:0"
         d="m 79.688212,201.354 c 0.105969,-0.3841 0.108644,-1.90215 0.0059,-3.37343 -0.12875,-1.84443 -0.05396,-3.36676 0.240857,-4.90268 0.517295,-2.69495 0.01402,-4.01281 -2.045748,-5.35692 -1.210792,-0.79011 -1.210792,-0.79011 -1.385087,3.6618 -0.103936,2.65469 -0.357753,5.08217 -0.628736,6.01315 -0.645795,2.21865 -0.432201,2.80764 1.379487,3.80393 1.860885,1.02335 2.187771,1.04406 2.433287,0.15415 z"
         id="feet">
        <title
           id="title7920">feet</title>
      </path>
      <path
         style="fill:none;stroke:#cccccc;stroke-width:0.18307075;stroke-miterlimit:4;stroke-dasharray:none;stroke-dashoffset:0"
         d="m 87.872875,201.21089 c 1.857274,-1.00258 2.069039,-1.57716 1.406044,-3.81497 -0.275819,-0.93098 -0.542249,-3.35846 -0.659975,-6.01315 -0.197425,-4.45191 -0.197425,-4.45191 -1.404111,-3.6618 -2.052788,1.34411 -2.549216,2.66197 -2.017918,5.35692 0.302798,1.53592 0.385495,3.05825 0.266327,4.90268 -0.278579,4.31163 -0.0819,4.57528 2.409633,3.23032 z"
         id="feet2">
        <title
           id="title7918">feet</title>
      </path>
      <path
         style="fill:none;stroke:#cccccc;stroke-width:0.18307075;stroke-miterlimit:4;stroke-dasharray:none;stroke-dashoffset:0"
         d="m 78.645388,186.00369 c 0.18041,-1.42123 -1.034343,-2.72398 -1.50335,-1.61225 -0.336194,0.79691 -0.606421,0.89376 -1.144325,0.41011 -0.468208,-0.42099 -0.455672,0.089 0.01641,0.6676 0.354342,0.43433 1.932563,1.44277 2.320341,1.48264 0.103464,0.0106 0.243378,-0.41601 0.310921,-0.9481 z"
         id="shins8">
        <title
           id="title7948">shins</title>
      </path>
      <path
         style="fill:none;stroke:#cccccc;stroke-width:0.18307075;stroke-miterlimit:4;stroke-dasharray:none;stroke-dashoffset:0"
         d="m 87.823823,186.4118 c 0.961495,-0.51198 1.62071,-1.21425 1.619384,-1.72515 -2.9e-4,-0.11143 -0.158687,-0.0597 -0.351993,0.1149 -0.535393,0.48365 -0.806122,0.3868 -1.146456,-0.41011 -0.474782,-1.11173 -1.682768,0.19102 -1.494974,1.61225 0.150579,1.13958 0.05414,1.11093 1.374039,0.40811 z"
         id="shins9">
        <title
           id="title7946">shins</title>
      </path>
      <path
         style="fill:none;stroke:#cccccc;stroke-width:0.18307075;stroke-miterlimit:4;stroke-dasharray:none;stroke-dashoffset:0"
         d="m 78.75512,171.09613 c 0,0 0,0 1.096997,-2.64373 1.022661,-2.47525 0.956231,-4.7646 -0.13825,-4.7646 -1.150452,0 -2.94357,-1.46055 -2.972186,-2.42094 -0.01366,-0.45873 -0.196534,-0.2672 -0.697358,0.73039 -0.37336,0.74369 -0.961645,1.53099 -1.307301,1.74954 -0.601537,0.38035 -0.619486,0.5257 -0.41889,3.39186 0.144849,2.06962 0.284718,2.81025 0.452859,2.398 0.381053,-0.93427 1.192731,-0.57135 2.008471,0.89802 z"
         id="knees2">
        <title
           id="title7902">knees</title>
      </path>
      <path
         style="fill:none;stroke:#cccccc;stroke-width:0.18307075;stroke-miterlimit:4;stroke-dasharray:none;stroke-dashoffset:0;stroke-opacity:1"
         d="m 76.551784,168.11957 c -0.163548,-0.1819 -0.368872,-0.80698 -0.456274,-1.38907 -0.0874,-0.58208 -0.251862,-1.38575 -0.365461,-1.78593 -0.303985,-1.07086 0.386409,-0.92624 0.906784,0.18994 0.235271,0.50465 0.428726,1.28728 0.4299,1.73919 0.0028,1.03287 0.986203,1.02075 1.104592,-0.0136 0.164156,-1.43418 0.682811,-2.64313 1.133941,-2.64313 0.359823,0 0.412804,0.15895 0.24251,0.7276 -0.11984,0.40019 -0.305004,1.20821 -0.411475,1.79562 -0.303216,1.67288 -1.666459,2.40046 -2.584517,1.37939 z"
         id="knees">
        <title
           id="title7944">knees</title>
      </path>
      <path
         style="fill:none;stroke:#cccccc;stroke-width:0.18307075;stroke-miterlimit:4;stroke-dasharray:none;stroke-dashoffset:0"
         d="m 88.231881,170.43467 c 0.811534,-1.46966 1.621002,-1.8319 2.006751,-0.89802 0.170282,0.41225 0.306304,-0.32838 0.440401,-2.398 0.185706,-2.86616 0.167001,-3.01151 -0.436511,-3.39186 -0.346792,-0.21855 -0.939168,-1.00585 -1.316391,-1.74954 -0.506007,-0.99759 -0.689866,-1.18912 -0.701151,-0.73039 -0.02364,0.96039 -1.809158,2.42094 -2.95961,2.42094 -1.094482,0 -1.149017,2.28935 -0.113498,4.7646 0.06146,4.85342 3.080009,1.98227 3.080009,1.98227 z"
         id="knees4">
        <title
           id="title7904">knees</title>
      </path>
      <path
         style="fill:none;stroke:#cccccc;stroke-width:0.18307075;stroke-miterlimit:4;stroke-dasharray:none;stroke-dashoffset:0"
         d="m 86.278921,168.12924 c -0.121551,-0.17658 -0.310607,-0.80166 -0.420129,-1.38906 -0.109521,-0.58741 -0.298883,-1.39543 -0.420802,-1.79561 -0.173248,-0.56865 -0.121094,-0.72761 0.238731,-0.72761 0.451131,0 0.976064,1.20895 1.147671,2.64313 0.123764,1.03436 1.107345,1.04648 1.104662,0.0136 -0.0012,-0.45191 0.188217,-1.23454 0.420867,-1.73919 0.514574,-1.11618 1.204218,-1.26079 0.905796,-0.18994 -0.11152,0.40018 -0.271804,1.20385 -0.356184,1.78594 -0.2298,1.58527 -1.884324,2.46837 -2.620612,1.39873 z"
         id="knees3">
        <title
           id="title7942">knees</title>
      </path>
      <path
         style="fill:none;stroke:#cccccc;stroke-width:0.18307075;stroke-miterlimit:4;stroke-dasharray:none;stroke-dashoffset:0"
         d="m 76.725909,175.72634 c -0.190284,-6.88463 -1.503836,-7.71765 -1.877443,-1.19063 -0.241861,4.22543 1.451038,12.50289 1.876144,9.0279 0.133518,-1.0914 0.06163,-5.65446 0.0013,-7.83727 z"
         id="shins2">
        <title
           id="title7930">shins</title>
      </path>
      <path
         style="fill:none;stroke:#cccccc;stroke-width:0.18307075;stroke-miterlimit:4;stroke-dasharray:none;stroke-dashoffset:0"
         d="m 89.805833,180.70372 c 0.320733,-2.15941 0.664392,-7.6905 -0.05568,-10.00447 -0.896017,-2.87934 -2.289808,6.68933 -1.410725,12.72357 0.32493,2.23039 0.988303,0.005 1.114814,-0.9639 z"
         id="shins4">
        <title
           id="title7940">shins</title>
      </path>
      <path
         style="fill:none;stroke:#cccccc;stroke-width:0.18307075;stroke-miterlimit:4;stroke-dasharray:none;stroke-dashoffset:0;stroke-opacity:1"
         d="m 74.779751,180.44408 c -0.111907,-0.53098 -0.83001,-1.74546 -0.901602,-1.68078 -0.0716,0.0647 0.06958,1.56347 0.181479,2.09445 0.111905,0.53098 1.019329,2.63792 1.090922,2.57324 0.07159,-0.0647 -0.258892,-2.45594 -0.370799,-2.98691 z"
         id="shins7">
        <title
           id="title7928">shins</title>
      </path>
      <path
         style="fill:none;stroke:#cccccc;stroke-width:0.18307075;stroke-miterlimit:4;stroke-dasharray:none;stroke-dashoffset:0;stroke-opacity:1"
         d="m 91.381199,179.097 c -0.0011,-0.41901 -1.050646,1.09596 -1.235403,1.61972 -0.12833,0.36381 -0.205666,1.7623 -0.20491,2.05334 0.0011,0.41901 0.969508,-1.42319 1.154265,-1.94695 0.128331,-0.36381 0.286804,-1.43507 0.286048,-1.72611 z"
         id="shins10">
        <title
           id="title7936">shins</title>
      </path>
      <path
         style="fill:none;stroke:#cccccc;stroke-width:0.18307075;stroke-miterlimit:4;stroke-dasharray:none;stroke-dashoffset:0"
         d="m 79.848401,176.88779 c -0.141387,-2.39225 -0.378342,-3.70565 -1.682479,-5.10288 -2.333065,-2.77817 -0.183292,9.31511 -0.866687,10.83053 0.267206,1.62898 2.520263,2.02737 2.576209,-4.41871 z"
         id="shins">
        <title
           id="title7922">shins</title>
      </path>
      <path
         style="fill:none;stroke:#cccccc;stroke-width:0.18307075;stroke-miterlimit:4;stroke-dasharray:none;stroke-dashoffset:0"
         d="m 87.595571,175.66316 c -0.02375,-3.16476 -2.191665,-3.87015 -2.484139,-1.96301 -0.413717,2.69773 0.1,9.46873 2.156279,9.59307 0,0 0.338242,-6.24762 0.32786,-7.63006 z"
         id="shins3">
        <title
           id="title7932">shins</title>
      </path>
      <path
         style="fill:none;stroke:#cccccc;stroke-width:0.18307075;stroke-miterlimit:4;stroke-dasharray:none;stroke-dashoffset:0;stroke-opacity:1"
         d="m 73.777297,174.99877 c -0.06635,-0.47294 -0.443183,0.003 -0.440725,0.94915 0.0025,0.94589 0.976308,2.85001 1.040201,2.37707 0.0639,-0.47295 -0.533123,-2.85327 -0.599464,-3.32622 z"
         id="shins6">
        <title
           id="title7926">shins</title>
      </path>
      <path
         style="fill:none;stroke:#cccccc;stroke-width:0.18307075;stroke-miterlimit:4;stroke-dasharray:none;stroke-dashoffset:0;stroke-opacity:1"
         d="m 91.635284,174.58229 c -0.06635,-0.47294 -0.686595,0.41973 -0.684137,1.36563 0.0025,0.94589 0.191978,2.82026 0.25587,2.34732 0.0639,-0.47295 0.467574,-1.90132 0.401234,-2.37427 z"
         id="shins11">
        <title
           id="title7934">shins</title>
      </path>
      <path
         style="fill:none;stroke:#cccccc;stroke-width:0.18307075;stroke-miterlimit:4;stroke-dasharray:none;stroke-dashoffset:0;stroke-opacity:1"
         d="m 73.78457,172.1251 c -0.07451,-0.25467 -0.350748,1.02465 -0.349426,1.53397 0.0014,0.50932 0.846617,0.92592 0.919795,0.67126 0.07318,-0.25466 0.09914,-3.3785 0.02468,-3.63316 z"
         id="shins5">
        <title
           id="title7924">shins</title>
      </path>
      <path
         style="fill:none;stroke:#cccccc;stroke-width:0.18307075;stroke-miterlimit:4;stroke-dasharray:none;stroke-dashoffset:0;stroke-opacity:1"
         d="m 90.676763,172.42259 c -0.07451,-0.25467 8.29e-4,0.9949 0.0022,1.50422 0.0014,0.50932 0.738431,-0.32352 0.81161,-0.57818 0.07317,-0.25466 -0.631098,-2.78353 -0.705556,-3.03819 z"
         id="shins12">
        <title
           id="title7938">shins</title>
      </path>
      <path
         style="fill:none;stroke:#cccccc;stroke-width:0.18307075;stroke-miterlimit:4;stroke-dasharray:none;stroke-dashoffset:0"
         d="m 74.920412,162.16644 c 0.821046,-1.32755 1.435751,-3.62144 1.805199,-6.73645 0.522318,-4.40391 0.451943,-4.99803 -0.712225,-6.01265 -1.558193,-1.35803 -2.281362,-3.16036 -2.501635,-6.23475 l -0.189567,-2.64584 -0.67211,2.20317 c -1.877863,6.15561 -1.880523,7.57378 -0.0285,15.18853 0.662999,2.72596 1.205609,5.01791 1.205805,5.09323 0.0012,0.44054 0.564017,1.2e-4 1.093024,-0.85524 z"
         id="quads3">
        <title
           id="title7804">quads</title>
      </path>
      <path
         style="fill:none;stroke:#cccccc;stroke-width:0.18307075;stroke-miterlimit:4;stroke-dasharray:none;stroke-dashoffset:0"
         d="m 91.148387,163.02168 c -1.94e-4,-0.0753 0.530509,-2.36727 1.179345,-5.09323 1.812473,-7.61475 1.802446,-9.03292 -0.107396,-15.18853 l -0.683554,-2.20317 -0.175823,2.64584 c -0.204302,3.07439 -0.918108,4.87672 -2.469246,6.23475 -1.158895,1.01462 -1.226183,1.60874 -0.680987,6.01265 0.385629,3.11501 1.012252,5.4089 1.840195,6.73645 0.533451,0.85536 1.098612,1.29578 1.097466,0.85524 z"
         id="quads4">
        <title
           id="title7810">quads</title>
      </path>
      <path
         style="fill:none;stroke:#cccccc;stroke-width:0.18307075;stroke-miterlimit:4;stroke-dasharray:none;stroke-dashoffset:0"
         d="m 80.680052,161.26773 c 0.461987,-4.07481 0.05085,-6.18089 -1.690087,-8.65755 -0.998396,-1.42032 -0.998396,-1.42032 -1.173383,-0.13229 -0.982987,7.23557 -0.356319,10.41616 2.052289,10.41616 0.551571,0 0.648925,-0.19518 0.811181,-1.62632 z"
         id="quads5">
        <title
           id="title7806">quads</title>
      </path>
      <path
         style="fill:none;stroke:#cccccc;stroke-width:0.18307075;stroke-miterlimit:4;stroke-dasharray:none;stroke-dashoffset:0"
         d="m 86.362016,162.49635 c 1.300016,-0.82199 1.554733,-4.2593 0.742402,-10.01846 -0.181679,-1.28803 -0.181679,-1.28803 -1.172696,0.13229 -2.852613,4.08834 -2.519093,11.75104 0.430294,9.88617 z"
         id="quads6">
        <title
           id="title7812">quads</title>
      </path>
      <path
         style="fill:none;stroke:#cccccc;stroke-width:0.18307075;stroke-miterlimit:4;stroke-dasharray:none;stroke-dashoffset:0"
         d="m 81.389522,148.95601 c 0.02869,-2.16408 0.02869,-2.16408 -1.744987,-3.68541 -0.975524,-0.83672 -2.532197,-2.52627 -3.459276,-3.75454 -1.939624,-2.56978 -1.969408,-2.54387 -1.763386,1.53424 0.15881,3.14358 0.726866,4.34711 3.088979,6.54458 0.967372,0.89995 2.147576,2.32566 2.622676,3.16824 l 0.863811,1.53197 0.181746,-1.5875 c 0.09996,-0.87313 0.194654,-2.56134 0.210437,-3.75158 z"
         id="quads">
        <title
           id="title7802">quads</title>
      </path>
      <path
         style="fill:none;stroke:#cccccc;stroke-width:0.18307075;stroke-miterlimit:4;stroke-dasharray:none;stroke-dashoffset:0"
         d="m 87.400668,149.58974 c 2.345082,-2.19222 2.907067,-3.39737 3.049482,-6.53944 0.184835,-4.07811 0.154916,-4.10402 -1.771359,-1.53424 -0.920696,1.22827 -2.468592,2.91782 -3.439768,3.75454 -1.984778,1.71002 -2.015714,1.84742 -1.562534,6.94015 l 0.191231,2.149 0.894041,-1.56944 c 0.491722,-0.86319 1.679231,-2.30344 2.638907,-3.20057 z"
         id="quads2">
        <title
           id="title7808">quads</title>
      </path>
      <path
         style="fill:none;stroke:#cccccc;stroke-width:0.18307075;stroke-miterlimit:4;stroke-dasharray:none;stroke-dashoffset:0"
         d="m 55.661347,151.0334 c 0.188855,-0.1706 0.488768,-0.31019 0.666473,-0.31019 1.312468,0 4.63919,-5.02067 4.358784,-6.57826 -0.130881,-0.72701 -0.01874,-1.36246 0.387109,-2.19376 0.424838,-0.87018 0.500735,-1.3373 0.295953,-1.82153 -0.151477,-0.35818 -0.205015,-1.18702 -0.118971,-1.84186 0.156439,-1.19063 0.156439,-1.19063 -0.575657,0.0789 -0.402649,0.69822 -0.937113,1.34047 -1.187693,1.42721 -0.760434,0.26322 -6.303731,5.3346 -5.666846,5.18441 0.326025,-0.0769 0.664295,-0.24449 0.75171,-0.37244 0.206195,-0.30183 1.216761,-0.30118 1.424703,7.9e-4 0.08843,0.12846 -0.426973,1.37279 -1.145328,2.76519 -1.664819,3.22695 -1.172668,5.45229 0.809763,3.66145 z"
         id="hands">
        <title
           id="title7878">hands</title>
      </path>
      <path
         style="fill:none;stroke:#cccccc;stroke-width:0.18307075;stroke-miterlimit:4;stroke-dasharray:none;stroke-dashoffset:0"
         d="m 111.19972,150.64413 c 0.11793,-0.53768 -0.19897,-1.43406 -1.15683,-3.27218 -0.72559,-1.39239 -1.24745,-2.63673 -1.15969,-2.76518 0.20637,-0.30209 1.21693,-0.30274 1.4247,-8e-4 0.0881,0.12796 0.42721,0.29556 0.75364,0.37244 0.63767,0.1502 -4.93198,-4.92118 -5.69378,-5.18441 -0.25103,-0.0867 -0.78883,-0.72898 -1.19511,-1.42721 -0.73869,-1.26962 -0.73869,-1.26962 -0.57606,-0.079 0.0894,0.65484 0.0402,1.48368 -0.1094,1.84186 -0.20227,0.48423 -0.12395,0.95135 0.30541,1.82153 0.41018,0.8313 0.52561,1.46675 0.3985,2.19376 -0.27503,1.57316 3.0847,6.57826 4.41574,6.57826 0.19022,0 0.4833,0.14883 0.65128,0.33073 0.59595,0.64534 1.76427,0.39874 1.9416,-0.40981 z"
         id="hands2">
        <title
           id="title7880">hands</title>
      </path>
      <path
         style="fill:none;stroke:#cccccc;stroke-width:0.18307075;stroke-miterlimit:4;stroke-dasharray:none;stroke-dashoffset:0"
         d="m 84.314205,145.00038 c 0.683309,-0.52818 2.307135,-2.32651 3.608502,-3.99627 2.35738,-3.02473 3.575724,-4.03636 4.86339,-4.03824 0.394626,-5.3e-4 0.598673,-0.11604 0.488333,-0.27634 -0.251573,-0.36546 -1.244262,-0.0739 -2.393211,0.70293 -2.338272,1.58096 -2.846637,0.50512 -2.285412,-4.83657 0.674651,-6.42131 0.553172,-9.83668 -0.361007,-10.14964 -1.221303,-0.41811 -1.309004,-0.30436 -0.397332,0.51536 1.206566,1.08487 1.070474,3.72452 -0.192021,3.72452 -0.361818,0 -0.287758,0.14114 0.287734,0.54837 1.805183,1.27737 0.759964,3.04341 -1.764679,2.98165 -1.711007,-0.0419 -1.711007,-0.0419 -0.332051,0.28608 2.597156,0.61763 3.227686,2.52661 1.233782,3.73538 -0.919283,0.55731 -0.919283,0.55731 -0.03652,0.85734 2.051737,0.69735 0.874602,6.1471 -1.917356,8.87672 -2.047924,2.0022 -2.620257,0.93053 -2.491308,-4.6649 0.07919,-3.43655 0.128966,-3.71985 0.715145,-4.07068 0.630029,-0.37707 0.630029,-0.37707 -0.07602,-1.01191 -1.031222,-0.92721 -1.045577,-3.44422 -0.02204,-3.86497 0.691661,-0.28432 0.691661,-0.28432 -0.0023,-0.90834 -0.521872,-0.46924 -0.694776,-0.91696 -0.697083,-1.80503 -0.0044,-1.68452 0.205084,-2.01804 1.267361,-2.01804 0.91621,0 0.91621,0 -0.18031,-0.81302 -1.858959,-1.37832 -1.413162,-3.15574 0.791498,-3.15574 0.728019,0 0.705154,-0.0459 -0.570827,-1.14527 -1.764961,-4.63793 -2.946073,0 -2.946073,0 -1.27027,1.0994 -1.292897,1.14527 -0.564878,1.14527 2.204662,0 2.659691,1.77742 0.807894,3.15574 -1.092297,0.81302 -1.092297,0.81302 -0.176087,0.81302 1.062277,0 1.27347,0.33352 1.277845,2.01804 0.0023,0.88807 -0.168271,1.33579 -0.68771,1.80503 -0.690779,0.62402 -0.690779,0.62402 0.0023,0.90834 1.025721,0.42075 1.024444,2.93776 -0.002,3.86497 -0.702753,0.63484 -0.702753,0.63484 -0.07076,1.01191 0.588002,0.35083 0.639244,0.63413 0.736294,4.07068 0.158017,5.59543 -0.408749,6.6671 -2.467075,4.6649 -2.806139,-2.72962 -4.011585,-8.17937 -1.963471,-8.87672 0.881204,-0.30003 0.881204,-0.30003 -0.04098,-0.85734 -2.000184,-1.20877 -1.379572,-3.11775 1.214374,-3.73538 1.377255,-0.32793 1.377255,-0.32793 -0.333535,-0.28608 -2.524322,0.0618 -3.578718,-1.70428 -1.78017,-2.98165 0.573378,-0.40723 0.646703,-0.54837 0.284886,-0.54837 -1.262496,0 -1.412301,-2.63965 -0.211371,-3.72452 0.907415,-0.81972 0.819123,-0.93347 -0.400009,-0.51536 -0.912553,0.31296 -1.016288,3.72833 -0.308278,10.14964 0.588974,5.34169 0.0862,6.41753 -2.260287,4.83657 -1.152983,-0.77682 -2.147187,-1.06839 -2.396861,-0.70293 -0.109508,0.1603 0.09514,0.27576 0.489769,0.27634 1.287675,0.002 2.511274,1.01351 4.884369,4.03824 3.906083,4.97866 5.198603,5.67898 7.375519,3.99627 z"
         id="abs1">
        <title
           id="title7848">abs</title>
      </path>
      <path
         style="fill:none;stroke:#cccccc;stroke-width:0.18307075;stroke-miterlimit:4;stroke-dasharray:none;stroke-dashoffset:0"
         d="m 72.679595,140.06681 c 0.688768,-1.70884 0.697566,-1.80493 0.187762,-2.05052 -1.4521,-0.69951 -1.650001,-0.21479 -1.893274,4.63713 -0.145928,2.91042 -0.145928,2.91042 0.418473,1.05833 0.310421,-1.01864 0.889587,-2.65887 1.287039,-3.64494 z"
         id="hips">
        <title
           id="title7830">hips</title>
      </path>
      <path
         style="fill:none;stroke:#cccccc;stroke-width:0.18307075;stroke-miterlimit:4;stroke-dasharray:none;stroke-dashoffset:0"
         d="m 93.931502,142.58727 c -0.333419,-4.82199 -0.51963,-5.2632 -1.933193,-4.58054 -0.475562,0.22966 -0.430206,0.47055 0.610252,3.24115 0.618194,1.64617 1.126763,3.26093 1.130157,3.58835 0.0035,0.32743 0.0924,0.59532 0.197808,0.59532 0.105402,0 0.103141,-1.27993 -0.005,-2.84428 z"
         id="hips2">
        <title
           id="title7828">hips</title>
      </path>
      <path
         style="fill:none;stroke:#cccccc;stroke-width:0.18307075;stroke-miterlimit:4;stroke-dasharray:none;stroke-dashoffset:0"
         d="m 81.400291,139.89208 c -0.01081,-4.16424 -0.09505,-4.33132 -2.117643,-4.20014 -2.201164,0.14276 -1.976801,4.13786 0.383037,6.8205 1.604752,1.82427 1.745597,1.6115 1.734606,-2.62036 z"
         id="abs2">
        <title
           id="title7834">abs</title>
      </path>
      <path
         style="fill:none;stroke:#cccccc;stroke-width:0.18307075;stroke-miterlimit:4;stroke-dasharray:none;stroke-dashoffset:0"
         d="m 86.555832,140.52956 c 0.971421,-2.29454 0.46303,-4.74246 -1.004685,-4.83762 -2.02131,-0.13105 -2.106633,0.0388 -2.095896,4.17166 0.0052,1.99522 0.108739,3.71763 0.230123,3.82758 0.326886,0.2961 2.349963,-1.93219 2.870458,-3.16162 z"
         id="abs3">
        <title
           id="title7832">abs</title>
      </path>
      <path
         style="fill:none;stroke:#cccccc;stroke-width:0.19225343;stroke-miterlimit:4;stroke-dasharray:none;stroke-dashoffset:0"
         d="m 66.25379,132.06292 c 1.032852,-2.58112 0.935468,-3.5411 -0.242126,-2.38682 -1.440375,1.41185 -3.569959,6.79632 -3.85871,9.75642 -0.175526,1.79937 1.986783,-2.0865 4.100836,-7.3696 z"
         id="extensor" />
      <path
         style="fill:none;stroke:#cccccc;stroke-width:0.19109631;stroke-miterlimit:4;stroke-dasharray:none;stroke-dashoffset:0"
         d="m 102.35597,136.15798 c -1.06719,-3.73082 -4.576154,-9.05924 -4.965419,-7.5401 -0.1751,0.68334 0.538218,2.23359 3.039369,6.60544 2.32143,4.05765 2.89965,4.33827 1.92605,0.93466 z"
         id="extensor2" />
      <path
         style="fill:none;stroke:#cccccc;stroke-width:0.19499777;stroke-miterlimit:4;stroke-dasharray:none;stroke-dashoffset:0"
         d="m 61.570277,134.00444 c 1.870411,-4.49066 1.949599,-5.89685 0.332073,-5.89685 -0.860497,0 -1.169708,0.88824 -1.865917,5.36001 -0.326112,2.09464 -0.665673,4.18928 -0.754577,4.65475 -0.258574,1.3538 0.811136,-0.57109 2.288421,-4.11791 z"
         id="flexor" />
      <path
         style="fill:none;stroke:#cccccc;stroke-width:0.19595185;stroke-miterlimit:4;stroke-dasharray:none;stroke-dashoffset:0"
         d="m 104.85546,133.78821 c -0.84846,-5.34162 -1.12765,-6.21325 -1.99016,-6.21325 -1.80965,0 -0.99467,3.9705 2.03578,9.91814 0.77202,1.51518 0.77105,1.43658 -0.0456,-3.70489 z"
         id="flexor2" />
      <path
         style="fill:none;stroke:#cccccc;stroke-width:0.18307075;stroke-miterlimit:4;stroke-dasharray:none;stroke-dashoffset:0"
         d="m 75.656397,136.73138 c 0.09576,-0.27394 -0.03276,-2.31468 -0.285576,-4.53498 -0.252826,-2.2203 -0.462888,-5.27038 -0.466805,-6.77796 -0.0071,-2.74106 -0.0071,-2.74106 -0.995044,-2.74106 -1.254393,0 -2.365209,-0.7816 -3.126751,-2.20006 -0.785621,-1.46331 -0.614177,1.28117 0.368832,5.90423 0.430873,2.02639 0.649322,4.06486 0.653999,6.1029 0.0071,3.0602 0.0071,3.0602 1.25579,3.52523 0.686823,0.25577 1.405591,0.63486 1.597259,0.84241 0.473235,0.51246 0.790365,0.47411 0.998296,-0.12071 z"
         id="lats6">
        <title
           id="title7850">lats</title>
      </path>
      <path
         style="fill:none;stroke:#cccccc;stroke-width:0.18307075;stroke-miterlimit:4;stroke-dasharray:none;stroke-dashoffset:0"
         d="m 90.678186,136.5613 c 0.599915,-0.36749 1.372634,-0.73197 1.717162,-0.80994 0.595008,-0.13467 0.625943,-0.29681 0.617132,-3.23444 -0.0063,-2.07246 0.198935,-4.0964 0.621893,-6.13537 0.958993,-4.62306 1.116178,-7.36754 0.338159,-5.90423 -0.754174,1.41846 -1.860927,2.20006 -3.115321,2.20006 -0.987926,0 -0.987926,0 -0.980805,2.74106 0.0039,1.50758 -0.190301,4.55766 -0.431592,6.77796 -0.565767,5.206 -0.502899,5.42849 1.233372,4.3649 z"
         id="lats5">
        <title
           id="title7852">lats</title>
      </path>
      <path
         style="fill:none;stroke:#cccccc;stroke-width:0.18307075;stroke-miterlimit:4;stroke-dasharray:none;stroke-dashoffset:0"
         d="m 80.922712,133.63869 c 1.085568,-0.98066 0.58724,-2.84607 -0.710328,-2.659 -2.748118,0.39619 -3.475304,1.21955 -2.072614,2.34672 1.014304,0.81507 2.092437,0.93605 2.782942,0.31228 z"
         id="abs5">
        <title
           id="title7838">abs</title>
      </path>
      <path
         style="fill:none;stroke:#cccccc;stroke-width:0.18307075;stroke-miterlimit:4;stroke-dasharray:none;stroke-dashoffset:0"
         d="m 86.681735,133.32641 c 1.396835,-1.12717 0.66537,-1.95053 -2.084806,-2.34672 -1.165191,-0.16786 -1.165191,-0.16786 -1.16206,1.03768 0.0054,2.06743 1.540206,2.68623 3.246866,1.30904 z"
         id="abs4">
        <title
           id="title7836">abs</title>
      </path>
      <path
         style="fill:none;stroke:#cccccc;stroke-width:0.18307075;stroke-miterlimit:4;stroke-dasharray:none;stroke-dashoffset:0"
         d="m 65.25083,129.15967 c 0.826462,-0.79375 0.826462,-0.79375 -0.40769,-0.79375 -1.234153,0 -1.234153,0 -1.125442,1.30476 0.0896,1.07537 0.161269,1.21492 0.407689,0.79375 0.164439,-0.28106 0.670889,-0.8682 1.125443,-1.30476 z"
         id="path4695" />
      <path
         style="fill:none;stroke:#cccccc;stroke-width:0.18307075;stroke-miterlimit:4;stroke-dasharray:none;stroke-dashoffset:0"
         d="m 101.10471,129.29196 c 0.0936,-0.92384 0.0909,-0.92604 -1.127639,-0.92604 -1.221428,0 -1.221428,0 -0.223479,0.99295 0.548868,0.54612 1.013658,1.14144 1.032858,1.32292 0.0464,0.43823 0.20191,-0.24103 0.31826,-1.38983 z"
         id="path4693" />
      <path
         style="fill:none;stroke:#cccccc;stroke-width:0.18307075;stroke-miterlimit:4;stroke-dasharray:none;stroke-dashoffset:0"
         d="m 80.858219,128.99196 c 0.688805,-0.33262 0.739624,-2.61041 0.05824,-2.61041 -1.984771,0 -4.934693,2.48016 -3.580115,3.01 0.480634,0.188 2.865371,-0.0826 3.521875,-0.39959 z"
         id="abs7">
        <title
           id="title7842">abs</title>
      </path>
      <path
         style="fill:none;stroke:#cccccc;stroke-width:0.18307075;stroke-miterlimit:4;stroke-dasharray:none;stroke-dashoffset:0"
         d="m 87.367328,129.39595 c 1.4655,-0.50729 -1.444135,-3.0144 -3.498361,-3.0144 -0.549748,0 -0.638672,2.24098 -0.100796,2.54014 0.823178,0.45785 2.868117,0.72731 3.599157,0.47426 z"
         id="abs6">
        <title
           id="title7840">abs</title>
      </path>
      <path
         style="fill:none;stroke:#cccccc;stroke-width:0.18307075;stroke-miterlimit:4;stroke-dasharray:none;stroke-dashoffset:0"
         d="m 66.357927,126.77485 c 2.71185,-2.79104 4.133753,-8.19078 2.467369,-9.36993 -1.326546,-0.93869 -2.367433,-0.30589 -3.08743,1.87698 -0.186998,0.56694 -0.631146,1.29496 -0.986994,1.61782 -0.425535,0.3861 -0.719485,1.08514 -0.858772,2.04224 -0.116479,0.80037 -0.393368,1.85481 -0.615314,2.34321 -0.411284,0.90506 -0.361028,1.13945 0.419435,1.95627 0.696489,0.72893 1.665077,0.55914 2.661706,-0.46659 z"
         id="biceps">
        <title
           id="title7876">biceps</title>
      </path>
      <path
         style="fill:none;stroke:#cccccc;stroke-width:0.18307075;stroke-miterlimit:4;stroke-dasharray:none;stroke-dashoffset:0"
         d="m 101.38505,126.90053 c 0.50181,-0.61056 0.51371,-0.75495 0.13088,-1.5875 -0.23163,-0.50373 -0.51984,-1.5707 -0.64047,-2.37107 -0.14426,-0.9571 -0.44185,-1.65614 -0.86938,-2.04224 -0.35753,-0.32286 -0.805461,-1.05088 -0.995403,-1.61782 -0.731338,-2.18287 -1.775512,-2.81567 -3.097182,-1.87698 -1.012667,0.71921 -1.033827,2.35717 -0.06344,4.91087 1.774357,4.66948 3.970364,6.48847 5.535005,4.58474 z"
         id="biceps2">
        <title
           id="title7874">biceps</title>
      </path>
      <path
         style="fill:none;stroke:#cccccc;stroke-width:0.18307075;stroke-miterlimit:4;stroke-dasharray:none;stroke-dashoffset:0"
         d="m 80.272998,124.31307 c 2.364941,-1.41157 0.493657,-2.57113 -2.011264,-1.24631 -1.127314,0.59623 -1.306686,0.81097 -1.304735,1.56205 0.0038,1.42969 0.465334,1.38574 3.315999,-0.31574 z"
         id="abs9">
        <title
           id="title7846">abs</title>
      </path>
      <path
         style="fill:none;stroke:#cccccc;stroke-width:0.18307075;stroke-miterlimit:4;stroke-dasharray:none;stroke-dashoffset:0"
         d="m 87.819395,124.65729 c -0.0028,-1.07654 -1.993672,-2.34695 -3.442928,-2.19699 -1.552676,0.16066 -1.091248,1.1846 1.061825,2.35625 2.105019,1.1455 2.384444,1.12681 2.381103,-0.15926 z"
         id="abs8">
        <title
           id="title7844">abs</title>
      </path>
      <path
         style="fill:none;stroke:#cccccc;stroke-width:0.18307075;stroke-miterlimit:4;stroke-dasharray:none;stroke-dashoffset:0"
         d="m 77.915312,121.20483 c 4.349668,-1.35247 5.073263,-7.42763 1.091369,-9.1629 -2.363866,-1.03014 -5.730311,-1.01371 -6.326978,0.0309 -0.263192,0.46077 -1.189305,1.24817 -2.058033,1.74975 -2.346706,1.35495 -3.011699,2.33032 -1.778801,2.60904 0.841831,0.19031 1.692013,1.18818 2.403854,2.82143 1.240693,2.84666 2.554197,3.2311 6.668589,1.95178 z"
         id="path4679">
        <title
           id="title7956">pecks</title>
      </path>
      <path
         style="fill:none;stroke:#cccccc;stroke-width:0.18307075;stroke-miterlimit:4;stroke-dasharray:none;stroke-dashoffset:0"
         d="m 92.438887,121.15603 c 0.306138,-0.40018 0.78439,-1.25652 1.062783,-1.90297 0.703355,-1.63325 1.548354,-2.63112 2.389195,-2.82143 1.231451,-0.27872 0.56139,-1.25409 -1.792355,-2.60904 -0.871333,-0.50158 -1.801537,-1.28898 -2.067124,-1.74975 -0.924144,-1.60336 -6.858735,-0.64566 -8.137566,1.31319 -0.673474,1.03159 -0.708991,5.19264 -0.05151,6.03578 1.588698,2.03738 7.458784,3.22157 8.596591,1.73422 z"
         id="path4677">
        <title
           id="title7954">pecks</title>
      </path>
      <path
         style="fill:none;stroke:#cccccc;stroke-width:0.18307075;stroke-miterlimit:4;stroke-dasharray:none;stroke-dashoffset:0"
         d="m 66.553102,116.47862 c 0.337698,-0.1351 0.772069,-0.64217 0.965267,-1.12682 0.244541,-0.61345 0.901833,-1.2161 2.163313,-1.98346 2.664226,-1.62066 2.809343,-1.95561 1.150974,-2.65663 -2.464734,-1.04187 -5.013641,1.52797 -6.074555,6.12446 -0.700045,3.033 -0.55833,3.6301 0.381623,1.60788 0.475434,-1.02285 1.048196,-1.81933 1.413378,-1.96543 z"
         id="delts">
        <title
           id="title7868">delts</title>
      </path>
      <path
         style="fill:none;stroke:#cccccc;stroke-width:0.18307075;stroke-miterlimit:4;stroke-dasharray:none;stroke-dashoffset:0"
         d="m 100.13438,117.54446 c -0.998957,-5.02452 -3.665199,-7.9333 -6.263018,-6.83275 -1.654726,0.70102 -1.507869,1.03597 1.164775,2.65663 1.265467,0.76736 1.925891,1.37001 2.173619,1.98346 0.195714,0.48465 0.634839,0.99172 0.975831,1.12682 0.375299,0.14869 0.911793,0.89285 1.359351,1.88549 0.892832,1.98024 1.091252,1.70432 0.589442,-0.81965 z"
         id="delts2">
        <title
           id="title7866">delts</title>
      </path>
      <path
         style="fill:none;stroke:#cccccc;stroke-width:0.18307075;stroke-miterlimit:4;stroke-dasharray:none;stroke-dashoffset:0"
         d="m 78.839849,105.05782 c -0.07965,1.8644 0.616832,4.18362 1.759109,5.46045 1.777379,1.98675 0.993291,-1.07868 0.406158,-3.0461 -0.669792,-2.08683 -1.980649,-5.49403 -2.165267,-2.41435 z"
         id="sternos">
        <title
           id="title7788">sternos</title>
      </path>
      <path
         style="fill:none;stroke:#cccccc;stroke-width:0.18307075;stroke-miterlimit:4;stroke-dasharray:none;stroke-dashoffset:0"
         d="m 85.055201,103.63584 c -0.907598,0.93584 -1.547953,3.65828 -1.952762,5.62339 -0.427295,2.07426 -0.0046,2.84927 1.568931,0.40629 0.899672,-1.83337 1.777489,-6.70532 0.383831,-6.02968 z"
         id="sternos2">
        <title
           id="title7786">sternos</title>
      </path>
      <path
         style="fill:none;stroke:#cccccc;stroke-width:0.18307075;stroke-miterlimit:4;stroke-dasharray:none;stroke-dashoffset:0"
         d="m 76.507868,110.07952 c 0.548559,-0.23486 0.997299,-0.45844 0.9972,-0.49685 -9.8e-5,-0.0384 0.20317,-0.51093 0.451708,-1.05004 0.53166,-1.15324 0.87837,-1.18174 -3.937541,0.3236 -2.702884,0.84486 -2.981966,0.98949 -2.509302,1.30045 0.743728,0.48928 3.784565,0.44234 4.997935,-0.0772 z"
         id="traps">
        <title
           id="title7794">traps</title>
      </path>
      <path
         style="fill:none;stroke:#cccccc;stroke-width:0.18307075;stroke-miterlimit:4;stroke-dasharray:none;stroke-dashoffset:0"
         d="m 93.191202,110.15672 c 0.501008,-0.33073 -2.116844,-1.34965 -6.237186,-2.42764 -1.221376,-0.31955 -0.128949,1.70472 1.275803,2.36406 1.082804,0.50824 4.226771,0.54852 4.961383,0.0636 z"
         id="traps2">
        <title
           id="title7796">traps</title>
      </path>
      <path
         style="fill:none;stroke:#2c9ced;stroke-width:0.6593416;stroke-miterlimit:4;stroke-dasharray:0.6593416,0.6593416;stroke-dashoffset:0;stroke-opacity:1"
         d="m 84.272666,103.66674 c 8.84739,-5.376629 3.481042,-17.564176 -4.361256,-14.245844 -7.52476,3.183971 -3.748313,15.000274 2.424259,15.000274 0.340443,0 1.212093,-0.3395 1.936997,-0.75443 z"
         id="head">
        <title
           id="title4779">head</title>
      </path>
      <path
         style="fill:none;stroke:#cccccc;stroke-width:0.18228914;stroke-miterlimit:4;stroke-dasharray:none;stroke-dashoffset:0"
         d="m 139.32156,201.83783 c -2.13781,-1.31468 -2.31903,-1.92838 -1.51556,-5.13229 0.8536,-3.40378 0.85252,-8.44973 -0.003,-10.68514 -2.13856,-5.59261 -2.6395,-9.26467 -1.92256,-14.0928 0.60259,-4.05804 0.40234,-6.21783 -1.18083,-12.73547 -2.02423,-8.33348 -2.39527,-13.48869 -1.49791,-20.81291 0.63018,-5.14357 0.56876,-8.07991 -0.25256,-12.07565 l -0.69587,-3.3853 -0.78689,2.59446 c -0.43281,1.42695 -0.78597,2.96146 -0.78481,3.41003 0.004,1.27337 -0.93018,3.46086 -3.81249,8.93432 -2.41893,4.59348 -2.65829,5.187 -2.59137,6.42543 0.11129,2.06111 -3.3419,7.23449 -4.82904,7.23449 -0.21643,0 -0.58958,0.17867 -0.82925,0.39703 -0.41456,0.37772 -2.02439,0.39201 -2.68075,0.0238 -0.82177,-0.461 -0.64779,-2.02819 0.46631,-4.20009 1.12314,-2.18951 1.12314,-2.18951 0.14958,-2.08617 -1.75267,0.18604 -2.49528,-0.96797 -0.98837,-1.5359 0.4696,-0.17698 1.14989,-0.7159 1.51176,-1.19761 0.36188,-0.48171 1.01291,-1.06668 1.44672,-1.29994 2.14256,-1.15204 2.61505,-2.24868 3.58867,-8.3292 0.60673,-3.7893 0.75338,-4.25905 2.10626,-6.74688 1.16897,-2.14962 1.48975,-3.03721 1.63568,-4.52608 0.98478,-10.04678 2.05205,-11.37566 11.39345,-14.18642 4.39802,-1.32333 4.98435,-2.25589 2.98815,-4.75269 -5.65348,-7.071264 0.26213,-17.813359 7.81333,-14.188107 4.20641,2.019458 5.15024,10.347969 1.60757,14.185677 -1.72586,1.8696 -1.02545,3.52166 1.85309,4.37087 10.41479,3.07254 11.24583,3.93735 12.47626,12.98317 0.55961,4.1141 0.57694,4.17433 1.63899,5.69983 1.27549,1.83207 1.70185,3.18345 2.47056,7.83071 0.80043,4.83917 1.43797,6.40206 2.95979,7.25575 0.54485,0.30566 1.45568,1.07011 2.02403,1.69879 0.56835,0.62868 1.35579,1.21656 1.74988,1.30642 1.51706,0.3459 0.48823,1.60214 -1.16821,1.42641 -0.56267,-0.0597 -1.02299,-0.0844 -1.0229,-0.0548 7e-5,0.0296 0.52745,1.04784 1.17195,2.26283 1.09309,2.06071 1.1478,2.27123 0.81439,3.13427 -0.1966,0.50885 -0.36401,0.94864 -0.37202,0.97731 -0.009,0.0287 -0.4304,0.11876 -0.93866,0.20019 -2.77108,0.44394 -7.32316,-4.27931 -7.35999,-7.63676 -0.0156,-1.41689 -0.27434,-2.04998 -2.75791,-6.74688 -2.90772,-5.49903 -3.53872,-7.01352 -3.82503,-9.18083 -0.2873,-2.1748 -1.50851,-5.6354 -1.71146,-4.84988 -1.24495,4.81852 -1.46818,7.89554 -0.91595,12.62524 0.74321,6.36543 0.88886,10.41087 0.49935,13.86974 -0.31706,2.81548 -0.63018,4.37776 -2.16358,10.79517 -0.93462,3.91153 -1.20685,7.96632 -0.71048,10.58334 0.83573,4.40652 0.42003,7.87167 -1.6942,14.1216 -1.09862,3.2477 -1.1905,6.48981 -0.28068,9.9061 1.09341,4.10577 0.84408,5.13363 -1.54747,6.37907 -3.19456,1.66362 -3.51702,1.3317 -3.57887,-3.68386 -0.0261,-2.11005 -0.14925,-4.86982 -0.27384,-6.13282 -0.21751,-2.20487 -0.19472,-2.3459 0.572,-3.5399 0.89036,-1.38656 0.8866,-2.45883 -0.0274,-7.83443 -0.51381,-3.02172 -0.54016,-4.96595 -0.10497,-7.74712 0.30833,-1.97037 0.284,-2.26474 -0.32327,-3.91194 -0.49383,-1.33946 -0.72306,-2.81586 -0.9243,-5.95282 -0.84397,-13.15667 -1.14041,-14.00864 -1.72766,-4.96534 -0.46449,7.15285 -0.75822,9.5762 -1.37254,11.32377 -0.50656,1.44103 -0.51267,1.70517 -0.10041,4.34985 0.41552,2.66541 0.4053,3.04242 -0.19174,7.06477 -0.81591,5.49706 -0.79938,6.3888 0.14693,7.9214 0.66654,1.07951 0.73624,1.42208 0.5855,2.87759 -0.0941,0.90871 -0.23351,3.49767 -0.30975,5.75324 -0.20431,6.04317 -0.5022,6.37065 -3.89639,4.28333 z"
         id="path4661" />
      <path
         style="fill:none;stroke:#cccccc;stroke-width:0.18228914;stroke-miterlimit:4;stroke-dasharray:none;stroke-dashoffset:0"
         d="m 142.2763,201.32482 c 0.0296,-0.40019 0.0646,-2.21589 0.0778,-4.0349 0.0134,-1.81901 0.13091,-4.10742 0.2615,-5.08535 0.33327,-2.49562 -0.89461,-4.1266 -1.94804,-2.58757 -0.3685,0.5384 -1.09486,0.72809 -1.096,0.28623 -0.003,-0.59489 0.4211,-1.13902 1.05496,-1.35828 0.6125,-0.21187 0.6873,-0.40418 0.68666,-1.76567 -4.3e-4,-0.84034 0.0765,-1.95823 0.17079,-2.48418 0.15643,-0.87196 0.10301,-0.97192 -0.60657,-1.1337 -0.4945,-0.11275 -0.91683,-0.47559 -1.15862,-0.9954 -0.22947,-0.49335 -0.46061,-0.6997 -0.58235,-0.51995 -0.11104,0.16392 -0.5216,0.29804 -0.91239,0.29804 -0.89345,0 -0.88655,0.1238 0.17601,3.16194 1.14942,3.28645 1.25665,7.77629 0.27566,11.54103 -0.77519,2.97495 -0.64184,3.50814 1.13736,4.54721 1.79432,1.04791 2.39309,1.07964 2.46321,0.13055 z"
         id="feet3">
        <title
           id="title7916">feet</title>
      </path>
      <path
         style="fill:none;stroke:#cccccc;stroke-width:0.18228914;stroke-miterlimit:4;stroke-dasharray:none;stroke-dashoffset:0"
         d="m 150.5174,201.21093 c 1.90941,-1.03959 2.05301,-1.53611 1.2832,-4.43732 -0.95995,-3.61795 -0.83561,-8.71464 0.2933,-12.02226 0.48724,-1.42761 0.84435,-2.62617 0.79359,-2.66346 -0.62019,-0.45547 -1.98469,-0.31586 -2.38697,0.24423 -0.24894,0.34659 -0.72328,0.70831 -1.05406,0.80381 -0.61927,0.17879 -0.8001,5.14927 -0.18758,5.15572 0.34199,0.004 1.66369,1.25652 1.66452,1.57791 7.8e-4,0.46237 -0.60379,0.31003 -1.13644,-0.28617 -1.44722,-1.61989 -2.55494,0.45205 -1.9344,3.61818 0.27409,1.3984 0.36384,3.0412 0.26202,4.79551 -0.25003,4.30718 -0.0635,4.55664 2.40282,3.21385 z"
         id="feet4">
        <title
           id="title7914">feet</title>
      </path>
      <path
         style="fill:none;stroke:#cccccc;stroke-width:0.18228914;stroke-miterlimit:4;stroke-dasharray:none;stroke-dashoffset:0"
         d="m 141.72576,181.87794 c 1.35392,-5.48763 0.72662,-8.89881 -2.43146,-13.22136 -1.0602,-1.45114 -1.0698,-1.29096 -0.24361,4.07068 0.41115,2.66816 0.83618,5.68464 0.9445,6.70328 0.19033,1.78986 0.72761,3.04271 1.30487,3.04271 0.15334,0 0.3449,-0.26789 0.4257,-0.59531 z"
         id="calves2">
        <title
           id="title7906">calves</title>
      </path>
      <path
         style="fill:none;stroke:#cccccc;stroke-width:0.18228914;stroke-miterlimit:4;stroke-dasharray:none;stroke-dashoffset:0"
         d="m 149.71885,182.09856 c 0.18762,-0.20608 0.45227,-1.3766 0.58811,-2.60115 0.13583,-1.22455 0.51475,-4.00273 0.84207,-6.17374 0.98023,-6.50189 0.94978,-5.90567 0.26283,-5.14782 -2.93985,3.24316 -3.98911,7.33858 -3.11582,12.1614 0.40892,2.25833 0.67283,2.58504 1.42281,1.76131 z"
         id="calves3">
        <title
           id="title7912">calves</title>
      </path>
      <path
         style="fill:none;stroke:#cccccc;stroke-width:0.18228914;stroke-miterlimit:4;stroke-dasharray:none;stroke-dashoffset:0"
         d="m 139.01473,180.49573 c 0.25659,-0.51456 0.1554,-1.74569 -0.473,-5.75469 -0.4397,-2.80504 -0.87423,-5.60609 -0.96561,-6.22456 -0.27748,-1.87803 -0.6053,-1.26701 -0.78072,1.45521 -0.0913,1.41883 -0.24549,3.65125 -0.34234,4.96094 -0.34014,4.59899 1.28379,8.12564 2.56167,5.5631 z"
         id="calves">
        <title
           id="title7908">calves</title>
      </path>
      <path
         style="fill:none;stroke:#cccccc;stroke-width:0.18228914;stroke-miterlimit:4;stroke-dasharray:none;stroke-dashoffset:0"
         d="m 153.23189,180.61487 c 0.7649,-1.30486 0.96631,-4.80909 0.45806,-7.96959 -0.26959,-1.67636 -0.49142,-3.54413 -0.493,-4.1506 -0.003,-0.60647 -0.13383,-1.10268 -0.29391,-1.10268 -0.1601,0 -0.28988,0.4652 -0.28841,1.03377 0.003,0.56857 -0.31953,3.07994 -0.71332,5.58082 -0.80215,5.09433 -0.86932,6.3651 -0.36082,6.82625 0.53333,0.48364 1.34112,0.37955 1.6914,-0.21797 z"
         id="calves4">
        <title
           id="title7910">calves</title>
      </path>
      <path
         style="fill:none;stroke:#cccccc;stroke-width:0.18228914;stroke-miterlimit:4;stroke-dasharray:none;stroke-dashoffset:0"
         d="m 142.41676,166.26527 c -0.31764,-0.4717 -0.58797,-1.1553 -0.60074,-1.5191 -0.0585,-1.66516 -0.37776,-1.65089 -1.75299,0.0784 -1.32429,1.66522 -1.32429,1.66522 -0.0573,3.3731 0.69688,0.93934 1.35489,1.94602 1.46228,2.23706 0.14688,0.39811 0.36005,0.0535 0.86071,-1.39131 0.66549,-1.92048 0.66549,-1.92048 0.0879,-2.77813 z"
         id="knees5">
        <title
           id="title7900">knees</title>
      </path>
      <path
         style="fill:none;stroke:#cccccc;stroke-width:0.18228914;stroke-miterlimit:4;stroke-dasharray:none;stroke-dashoffset:0"
         d="m 150.83214,165.62999 c -0.43039,-0.45978 -1.0226,-1.20392 -1.316,-1.65364 -0.72692,-1.11416 -0.88097,-1.03749 -1.08228,0.5387 -0.0953,0.74601 -0.38832,1.65584 -0.65121,2.02185 -0.40795,0.56798 -0.42583,0.82242 -0.12207,1.73685 0.85324,2.56856 0.7208,2.55424 2.4201,0.26172 1.53401,-2.06951 1.53401,-2.06951 0.75147,-2.90548 z"
         id="knees6">
        <title
           id="title7898">knees</title>
      </path>
      <path
         style="fill:none;stroke:#cccccc;stroke-width:0.18228914;stroke-miterlimit:4;stroke-dasharray:none;stroke-dashoffset:0"
         d="m 140.36817,162.9984 c 0.98794,-1.48751 0.98794,-1.48751 1.32828,-7.21208 0.39293,-6.60904 0.51172,-6.12215 -1.26697,-5.19306 -3.26079,1.70326 -3.95903,3.09567 -3.26196,6.50475 0.38086,1.86262 0.46701,6.46421 0.1542,8.23914 -0.25007,1.419 1.38368,0.16478 3.04645,-2.33875 z"
         id="hams">
        <title
           id="title7896">hams</title>
      </path>
      <path
         style="fill:none;stroke:#cccccc;stroke-width:0.18228914;stroke-miterlimit:4;stroke-dasharray:none;stroke-dashoffset:0"
         d="m 152.72923,163.0925 c -0.13674,-2.09654 -0.0675,-3.71969 0.23438,-5.4901 0.72108,-4.22983 0.36754,-5.07651 -2.83205,-6.78218 -2.16705,-1.15523 -2.02325,-1.58541 -1.61668,4.83616 0.39376,6.21981 0.57967,6.80924 2.88028,9.13274 1.63571,1.65198 1.55884,1.74973 1.33407,-1.69662 z"
         id="hams2">
        <title
           id="title7894">hams</title>
      </path>
      <path
         style="fill:none;stroke:#cccccc;stroke-width:0.18228914;stroke-miterlimit:4;stroke-dasharray:none;stroke-dashoffset:0"
         d="m 147.86278,162.35775 c 0.3305,-5.08769 -0.47944,-12.96858 -1.42273,-13.8435 -0.84214,-0.78108 -0.84214,-0.78108 -0.70117,0.11864 0.2482,1.58412 1.00016,10.04157 1.2194,13.71492 0.23799,3.98709 0.64584,3.99158 0.9045,0.01 z"
         id="quads9">
        <title
           id="title7890">quads</title>
      </path>
      <path
         style="fill:none;stroke:#cccccc;stroke-width:0.18228914;stroke-miterlimit:4;stroke-dasharray:none;stroke-dashoffset:0"
         d="m 143.86484,154.99385 c 0.63665,-7.34813 0.64437,-7.19454 -0.31506,-6.2639 -0.81042,0.78611 -1.25765,5.84978 -1.08743,12.31203 0.11092,4.21125 0.63639,6.05705 0.75321,2.64584 0.0374,-1.09141 0.32955,-5.0037 0.64928,-8.69397 z"
         id="quads8">
        <title
           id="title7892">quads</title>
      </path>
      <path
         style="fill:none;stroke:#cccccc;stroke-width:0.18228914;stroke-miterlimit:4;stroke-dasharray:none;stroke-dashoffset:0"
         d="m 154.80716,158.55277 c 2.46144,-10.35778 2.45043,-15.00578 -0.0291,-12.31967 -0.99697,1.08001 -1.10069,1.79048 -1.00306,6.87138 0.0462,2.4011 0.006,5.85391 -0.0891,7.67292 -0.0952,1.81901 -0.10684,3.00963 -0.026,2.64583 0.0809,-0.3638 0.5972,-2.55551 1.14733,-4.87046 z"
         id="quads10">
        <title
           id="title7816">quads</title>
      </path>
      <path
         style="fill:none;stroke:#cccccc;stroke-width:0.18228914;stroke-miterlimit:4;stroke-dasharray:none;stroke-dashoffset:0"
         d="m 136.44303,158.01737 c -0.36561,-2.08815 -0.40549,-3.08671 -0.18072,-4.52387 0.71756,-4.58765 0.0529,-7.25399 -1.99249,-7.99357 -0.96771,-0.34991 -0.96771,-0.34991 -0.77557,1.84138 0.38598,4.40199 2.23159,13.84447 3.0399,15.55276 0.41083,0.86823 0.35062,-2.35365 -0.0911,-4.8767 z"
         id="quads7">
        <title
           id="title7814">quads</title>
      </path>
      <path
         style="fill:none;stroke:#cccccc;stroke-width:0.18228914;stroke-miterlimit:4;stroke-dasharray:none;stroke-dashoffset:0"
         d="m 119.02736,150.72321 c 0.39759,0 3.39472,-3.18805 3.9971,-4.25171 0.2714,-0.47924 0.41553,-1.35775 0.37686,-2.29706 0.23759,-4.04295 1.61119,-11.50053 -1.93333,-4.27476 -0.33695,0.70893 -0.9861,1.46898 -1.55856,1.82477 -0.87249,0.54226 -3.73985,3.12027 -3.73925,3.36189 1.5e-4,0.0518 0.38623,-0.0874 0.85798,-0.30946 2.11511,-0.99542 2.19845,-0.48636 0.46068,2.8139 -1.58469,3.00954 -1.16886,4.91843 0.7572,3.47593 0.25223,-0.18892 0.60387,-0.3435 0.78133,-0.3435 z"
         id="hands3">
        <title
           id="title7882">hands</title>
      </path>
      <path
         style="fill:none;stroke:#cccccc;stroke-width:0.18228914;stroke-miterlimit:4;stroke-dasharray:none;stroke-dashoffset:0"
         d="m 153.53421,146.29592 c 0.48201,-0.84762 1.77401,-1.65812 2.64313,-1.65812 0.48932,0 0.62325,-1.77636 0.25772,-3.41845 -0.34543,-1.55171 -4.26286,-3.71538 -5.59058,-3.08776 -1.2132,0.57349 -5.27679,6.54899 -5.27371,7.75496 0.003,0.88267 1.96449,2.63183 4.35868,3.88542 1.27095,0.66547 2.41806,1.36009 2.54917,1.54361 0.13889,0.19446 0.30734,-0.60465 0.40373,-1.91528 0.0957,-1.30149 0.37035,-2.60934 0.65186,-3.10438 z"
         id="glutes2">
        <title
           id="title7888">glutes</title>
      </path>
      <path
         style="fill:none;stroke:#cccccc;stroke-width:0.18228914;stroke-miterlimit:4;stroke-dasharray:none;stroke-dashoffset:0"
         d="m 173.59196,150.91475 c -0.0449,-0.22892 0.0508,-0.49065 0.21244,-0.58163 0.17628,-0.0992 -0.23117,-1.11156 -1.01753,-2.52821 -1.83593,-3.30739 -1.71043,-4.03098 0.52045,-3.00117 0.93266,0.43052 0.93266,0.43052 0.10919,-0.37784 -1.57051,-1.54165 -2.14889,-2.04085 -3.23629,-2.79321 -0.60108,-0.41589 -1.33151,-1.25946 -1.62317,-1.87462 -0.29167,-0.61516 -1.13573,-1.91953 -1.87566,-2.8986 l -1.34533,-1.78012 0.006,2.36505 c 0.006,1.94749 0.13527,2.62912 0.73764,3.86073 0.53068,1.08499 0.73274,1.95853 0.73588,3.18135 0.004,1.54043 0.0987,1.79769 1.09922,2.98554 2.18865,2.59839 2.85529,3.25118 3.3201,3.25118 0.26056,1e-5 0.61916,0.15884 0.79691,0.35297 0.45147,0.49309 1.66376,0.36766 1.5601,-0.16142 z"
         id="hands4">
        <title
           id="title7884">hands</title>
      </path>
      <path
         style="fill:none;stroke:#cccccc;stroke-width:0.18228914;stroke-miterlimit:4;stroke-dasharray:none;stroke-dashoffset:0"
         d="m 138.14662,151.00975 c 0.0904,-0.13343 1.21274,-0.79303 2.49415,-1.46578 4.42295,-2.32212 4.63472,-2.98339 2.22906,-6.96065 -3.28697,-5.43438 -4.0742,-5.64939 -8.69078,-2.37369 -0.92313,0.65501 -0.988,4.42813 -0.0761,4.42813 1.77437,0 3.31588,2.42163 3.32637,5.22552 0.005,1.27242 0.30595,1.75379 0.71732,1.14647 z"
         id="glutes">
        <title
           id="title7886">glutes</title>
      </path>
      <path
         style="fill:none;fill-opacity:1;stroke:#cccccc;stroke-width:0.18228914;stroke-miterlimit:4;stroke-dasharray:none;stroke-dashoffset:0"
         d="m 145.9861,142.98238 c 0.62703,-0.9916 0.69099,-1.22191 0.3015,-1.08593 -0.87918,0.30694 -1.01035,-0.4627 -1.02927,-6.03887 -0.0227,-6.68693 0.26898,-7.66638 1.87525,-6.29772 0.62496,0.53253 0.62496,0.53253 -0.0315,-1.25677 -1.5313,-4.17322 -1.74554,-6.30503 -1.67553,-16.67211 0.0562,-8.32085 0.009,-9.59114 -0.36531,-9.59114 -0.37006,0 -0.44358,1.46703 -0.52705,10.51719 -0.10399,11.28371 -0.33792,13.34726 -1.88518,16.63393 -0.60802,1.29159 -0.60802,1.29159 -0.005,0.56398 0.66753,-0.80521 1.55982,-0.95556 1.83442,-0.30909 0.52093,1.22652 0.21251,12.29712 -0.34794,12.48845 -0.53339,0.18209 -0.52574,0.23666 0.18554,1.32523 0.40802,0.62442 0.7716,1.10067 0.80799,1.05833 0.0364,-0.0423 0.42427,-0.64331 0.86195,-1.33548 z"
         id="erector">
        <title
           id="title7818">erector</title>
      </path>
      <path
         style="fill:none;stroke:#cccccc;stroke-width:0.18228914;stroke-miterlimit:4;stroke-dasharray:none;stroke-dashoffset:0"
         d="m 143.93186,130.66925 c -0.15349,-0.5618 -0.32758,-0.46406 -2.33519,1.31101 -2.57725,2.27875 -2.58475,2.32874 -0.67295,4.48783 0.82177,0.92806 1.84049,2.32305 2.26381,3.09999 0.76971,1.41262 0.76971,1.41262 0.83995,-3.43958 0.0386,-2.66871 -0.005,-5.12537 -0.0955,-5.45925 z"
         id="erector3">
        <title
           id="title7822">erector</title>
      </path>
      <path
         style="fill:none;stroke:#cccccc;stroke-width:0.18228914;stroke-miterlimit:4;stroke-dasharray:none;stroke-dashoffset:0"
         d="m 149.32094,136.34372 c 0.80323,-0.89408 1.46,-1.78828 1.45949,-1.98709 -7.7e-4,-0.31233 -4.21491,-4.27096 -4.54661,-4.27096 -0.067,0 -0.11303,2.41102 -0.10251,5.35781 0.019,5.35782 0.019,5.35782 0.87414,3.94184 0.47029,-0.77879 1.51226,-2.14751 2.31549,-3.0416 z"
         id="erector2">
        <title
           id="title7820">erector</title>
      </path>
      <path
         style="fill:none;stroke:#cccccc;stroke-width:0.18228914;stroke-miterlimit:4;stroke-dasharray:none;stroke-dashoffset:0;stroke-opacity:1"
         d="m 151.40918,137.22942 c 0.6347,0 1.5737,0.1922 2.08665,0.42711 1.04812,0.47998 0.85646,0.27758 -0.74417,-0.7859 -0.77572,-0.5154 -1.09391,-0.92547 -1.09517,-1.41139 -0.003,-0.64864 -0.0417,-0.63041 -0.75645,0.3442 -0.41508,0.56601 -1.05108,1.32676 -1.41333,1.69057 -0.36226,0.3638 -0.89701,1.01864 -1.18834,1.4552 -0.35009,0.52463 -0.1082,0.36764 0.71356,-0.46302 1.08562,-1.09745 1.38952,-1.25677 2.39725,-1.25677 z"
         id="hips6" />
      <path
         style="fill:none;stroke:#cccccc;stroke-width:0.18228914;stroke-miterlimit:4;stroke-dasharray:none;stroke-dashoffset:0;stroke-opacity:1"
         d="m 138.51049,137.22942 c 1.15519,0 1.44113,0.12822 2.46713,1.10618 1.33471,1.27224 0.92383,0.39028 -0.49543,-1.06344 -0.52018,-0.53283 -1.16619,-1.26316 -1.43554,-1.62296 -0.48325,-0.64555 -0.48968,-0.64645 -0.4882,-0.0676 7.8e-4,0.4405 -0.57589,0.93289 -2.31695,1.97711 -1.27516,0.76478 -2.3212,1.47611 -2.32454,1.58072 -0.004,0.10462 0.73486,-0.28234 1.6404,-0.8599 1.32517,-0.84517 1.90147,-1.0501 2.95313,-1.0501 z"
         id="hips5" />
      <path
         style="fill:none;stroke:#cccccc;stroke-width:0.18228914;stroke-miterlimit:4;stroke-dasharray:none;stroke-dashoffset:0"
         d="m 164.17641,133.6936 c -0.39546,-1.71222 -1.1196,-2.80831 -2.47517,-3.74647 -1.92918,-1.33516 -2.00172,0.1156 0.79119,5.52547 1.50142,2.90822 1.83276,2.67848 1.91684,1.13592 0.0462,-0.8484 -0.0586,-2.16012 -0.23286,-2.91492 z"
         id="extensor4" />
      <path
         style="fill:none;stroke:#cccccc;stroke-width:0.18228914;stroke-miterlimit:4;stroke-dasharray:none;stroke-dashoffset:0"
         d="m 129.73537,130.93398 c 0.58935,-1.61152 0.0767,-1.8991 -1.36354,-0.99037 -1.81804,1.1471 -3.41508,5.67619 -2.66003,7.5437 0.17012,0.42075 3.23304,-4.39166 4.02357,-6.55333 z"
         id="extensor3" />
      <path
         style="fill:none;stroke:#cccccc;stroke-width:0.18228914;stroke-miterlimit:4;stroke-dasharray:none;stroke-dashoffset:0"
         d="m 136.74096,136.2549 c 1.22357,-0.82912 1.2217,-0.83651 -0.66156,-2.58571 -1.60477,-1.49052 -1.60477,-1.49052 -1.60176,-0.32687 0.003,0.64001 -0.0824,1.92212 -0.18647,2.84914 -0.21015,1.8694 -0.21515,1.86927 2.44979,0.0634 z"
         id="hips3">
        <title
           id="title7824">hips</title>
      </path>
      <path
         style="fill:none;stroke:#cccccc;stroke-width:0.18228914;stroke-miterlimit:4;stroke-dasharray:none;stroke-dashoffset:0"
         d="m 155.88968,136.2372 c -0.4994,-4.20321 -0.34717,-3.9778 -1.8098,-2.67999 -2.1239,1.88456 -2.12471,1.92963 -0.0566,3.14282 0.99245,0.58219 1.85906,1.05852 1.9258,1.05852 0.0666,0 0.04,-0.68461 -0.0594,-1.52135 z"
         id="hips4">
        <title
           id="title7826">hips</title>
      </path>
      <path
         style="fill:none;stroke:#cccccc;stroke-width:0.18228914;stroke-miterlimit:4;stroke-dasharray:none;stroke-dashoffset:0"
         d="m 124.62236,133.04816 c 0.87724,-2.28651 0.6911,-7.00425 -0.1341,-5.82582 -1.05197,1.50228 -2.27526,6.12193 -1.93209,8.94399 -0.006,0.67584 1.46053,-1.53955 2.06619,-3.11817 z"
         id="flexor3" />
      <path
         style="fill:none;stroke:#cccccc;stroke-width:0.18228914;stroke-miterlimit:4;stroke-dasharray:none;stroke-dashoffset:0"
         d="m 167.56994,133.35347 c -0.54361,-3.70574 -2.01769,-6.70741 -2.73706,-6.70741 -0.93149,0 0.46018,6.53212 1.84869,8.6772 0.97199,1.50164 1.35756,1.22864 0.88837,-1.96979 z"
         id="flexor4" />
      <path
         style="fill:none;stroke:#cccccc;stroke-width:0.18228914;stroke-miterlimit:4;stroke-dasharray:none;stroke-dashoffset:0"
         d="m 154.88751,131.4816 c 0.50282,-0.74125 1.4394,-4.76171 2.09087,-8.97543 0.16963,-1.09719 0.16963,-1.09719 -0.68648,-0.36865 -1.16685,0.99296 -3.09857,1.44428 -5.36026,1.25234 -4.47774,-0.38 -4.7639,4.80427 -0.43363,7.85544 1.01228,0.71326 1.79735,1.49255 1.90969,1.8956 0.22113,0.79355 1.31036,0.0647 2.47981,-1.6593 z"
         id="lats3">
        <title
           id="title7856">lats</title>
      </path>
      <path
         style="fill:none;stroke:#cccccc;stroke-width:0.18228914;stroke-miterlimit:4;stroke-dasharray:none;stroke-dashoffset:0"
         d="m 141.72766,129.07267 c 1.89999,-3.34174 0.69362,-5.96585 -2.61849,-5.69584 -2.25807,0.18408 -4.00478,-0.19235 -5.22902,-1.12687 -1.08875,-0.8311 -1.08435,-0.95279 -0.14227,3.95539 1.35378,7.0529 2.40456,8.07844 5.49652,5.36445 1.17865,-1.03457 2.30061,-2.15828 2.49326,-2.49713 z"
         id="lats4">
        <title
           id="title7854">lats</title>
      </path>
      <path
         style="fill:none;stroke:#cccccc;stroke-width:0.18228914;stroke-miterlimit:4;stroke-dasharray:none;stroke-dashoffset:0"
         d="m 128.49956,128.8819 c 0.98384,-0.47706 1.05153,-0.58603 0.89591,-1.44209 -0.0926,-0.50932 -0.17216,-1.84165 -0.1768,-2.96073 l 0.57172,-4.33205 -2.38528,3.85552 c -1.47411,1.42031 -2.01254,0.17973 -1.1861,4.02138 1.54655,-0.48129 0.20616,1.88609 2.28085,0.85797 z"
         id="path4591">
        <title
           id="title4724">triceps</title>
      </path>
      <path
         style="fill:none;stroke:#cccccc;stroke-width:0.18228914;stroke-miterlimit:4;stroke-dasharray:none;stroke-dashoffset:0"
         d="m 162.44835,123.4789 c -0.88621,-0.85984 -2.1317,-3.12416 -2.1317,-3.12416 0,0 0.20725,2.39495 0.29353,3.59407 0.0686,0.95153 0.26409,1.99878 0.17785,2.85687 -0.15681,1.56017 -0.15681,1.56017 1.19414,2.32263 2.02416,1.35435 -0.50433,-1.71267 1.81807,-1.0965 0.076,-2.71528 0.92162,-3.87171 -0.39902,-3.9556 -9e-5,-1e-5 -0.67826,-0.33087 -0.95287,-0.59731 z"
         id="path4589">
        <title
           id="title4732">triceps</title>
      </path>
      <path
         style="fill:none;stroke:#cccccc;stroke-width:0.18228914;stroke-miterlimit:4;stroke-dasharray:none;stroke-dashoffset:0"
         d="m 131.29791,123.26026 c 0.8944,-2.57347 0.96892,-3.83907 0.23282,-3.9538 -1.13716,-0.17723 -1.30711,0.31916 -1.35446,3.95637 -0.0251,1.93354 0.0246,3.2774 0.11055,2.98635 0.086,-0.29104 0.54098,-1.63605 1.01113,-2.98892 z"
         id="path4587">
        <title
           id="title4726">triceps</title>
      </path>
      <path
         style="fill:none;stroke:#cccccc;stroke-width:0.18228914;stroke-miterlimit:4;stroke-dasharray:none;stroke-dashoffset:0"
         d="m 159.99477,123.17416 c -0.16864,-3.57353 -0.29907,-3.9231 -1.46702,-3.93239 -0.78521,-0.006 -0.65865,1.31978 0.43523,4.56001 1.20856,3.57995 1.22975,3.56705 1.03179,-0.62762 z"
         id="path4585">
        <title
           id="title4730">triceps</title>
      </path>
      <path
         style="fill:none;stroke:#cccccc;stroke-width:0.18228914;stroke-miterlimit:4;stroke-dasharray:none;stroke-dashoffset:0"
         d="m 143.60915,121.48826 c 0.31092,-2.19222 0.35859,-4.75644 0.20706,-11.13792 -0.19283,-8.12261 -0.43896,-10.07116 -0.76356,-6.04512 -0.20834,2.584 -0.3454,2.7065 -4.41389,3.94502 -2.8471,0.86671 -4.10554,1.46247 -3.08917,1.46247 1.87759,0 4.20913,3.58714 4.2993,6.61459 0.0815,2.73523 0.58779,4.3151 2.1914,6.83768 1.11079,1.74734 1.07831,1.78206 1.56886,-1.67672 z"
         id="traps3">
        <title
           id="title7800">traps</title>
      </path>
      <path
         style="fill:none;fill-opacity:1;stroke:#cccccc;stroke-width:0.18228914;stroke-miterlimit:4;stroke-dasharray:none;stroke-dashoffset:0"
         d="m 149.33994,120.74428 c 0.42418,-0.95999 0.66263,-2.26952 0.79097,-4.34403 0.21315,-3.44516 0.80588,-4.53541 3.2644,-6.00442 1.79985,-1.07546 1.90193,-0.97248 -2.14016,-2.15888 -4.06585,-1.19337 -4.32971,-1.45626 -4.33709,-4.32096 -0.01,-3.928185 -0.51314,-1.31477 -0.67208,3.49176 -0.30832,9.32345 -0.11525,14.50388 0.62241,16.69622 0.20433,0.60727 1.49237,-1.14363 2.47155,-3.35969 z"
         id="traps4">
        <title
           id="title7798">traps</title>
      </path>
      <path
         style="fill:none;stroke:#cccccc;stroke-width:0.18228914;stroke-miterlimit:4;stroke-dasharray:none;stroke-dashoffset:0"
         d="m 128.20259,122.01616 c 1.10586,-1.72966 1.36747,-2.52114 0.76973,-2.32869 -1.28721,0.41443 -1.99304,1.3532 -2.35374,3.13049 -0.29383,1.4478 0.35605,1.11884 1.58401,-0.8018 z"
         id="path4579">
        <title
           id="title4728">triceps</title>
      </path>
      <path
         style="fill:none;stroke:#cccccc;stroke-width:0.18228914;stroke-miterlimit:4;stroke-dasharray:none;stroke-dashoffset:0"
         d="m 163.20373,121.7498 c -0.34041,-0.93233 -2.1284,-2.46851 -2.48982,-2.1392 -0.22723,0.20703 0.99435,2.39539 1.85235,3.31835 1.01225,1.0889 1.28284,0.58838 0.63747,-1.17915 z"
         id="path4577">
        <title
           id="title4734">triceps</title>
      </path>
      <path
         style="fill:none;stroke:#cccccc;stroke-width:0.18228914;stroke-miterlimit:4;stroke-dasharray:none;stroke-dashoffset:0"
         d="m 140.07617,122.52569 c 0.37245,-0.13004 0.34791,-0.3277 -0.17252,-1.38907 -0.34842,-0.71053 -0.66577,-2.03655 -0.7453,-3.11414 -0.21127,-2.86274 -2.17087,-3.39741 -3.70359,-1.01051 -0.42866,0.66754 -1.18206,1.3681 -1.76296,1.63933 -2.9466,1.37577 3.07474,5.02986 6.38437,3.87439 z"
         id="lats">
        <title
           id="title7858">lats</title>
      </path>
      <path
         style="fill:none;stroke:#cccccc;stroke-width:0.18228914;stroke-miterlimit:4;stroke-dasharray:none;stroke-dashoffset:0"
         d="m 154.15082,122.39588 c 1.91622,-0.65869 3.60456,-2.99599 2.55386,-3.5355 -0.60473,-0.31052 -1.48413,-1.11632 -2.73045,-2.50196 -1.41159,-1.56943 -2.81718,-0.83361 -3.03433,1.58848 -0.0889,0.99174 -0.43306,2.36384 -0.76476,3.04911 -0.47258,0.97626 -0.52284,1.29217 -0.23226,1.45956 0.53559,0.30853 3.24869,0.27005 4.20794,-0.0597 z"
         id="lats2">
        <title
           id="title7860">lats</title>
      </path>
      <path
         style="fill:none;stroke:#cccccc;stroke-width:0.18228914;stroke-miterlimit:4;stroke-dasharray:none;stroke-dashoffset:0"
         d="m 130.4281,118.67881 c 2.12383,-0.31102 3.22723,-0.79715 3.92151,-1.72772 0.28634,-0.38379 0.8533,-1.02323 1.25991,-1.42098 1.26102,-1.23357 -3.23762,-5.24373 -4.88146,-4.35143 -1.70435,0.92514 -3.08408,3.78398 -3.66505,7.59404 -0.15098,0.99022 -0.15098,0.99022 0.72695,0.57704 0.48287,-0.22725 1.67003,-0.52918 2.63814,-0.67095 z"
         id="delts3">
        <title
           id="title7870">delts</title>
      </path>
      <path
         style="fill:none;stroke:#cccccc;stroke-width:0.18228914;stroke-miterlimit:4;stroke-dasharray:none;stroke-dashoffset:0"
         d="m 162.67372,117.29292 c -0.73102,-3.33775 -2.04735,-5.56504 -3.76573,-6.3718 -0.74949,-0.35188 -0.81881,-0.30944 -3.04058,1.86159 -1.25049,1.22192 -2.13073,2.22167 -1.95607,2.22167 0.17462,0 0.71367,0.583 1.19786,1.29555 1.0154,1.49437 1.99504,1.99902 4.62877,2.38442 1.01719,0.14885 2.12729,0.43986 2.46688,0.64669 0.83072,0.50594 0.93078,0.071 0.46887,-2.03812 z"
         id="delts4">
        <title
           id="title7872">delts</title>
      </path>
      <path
         style="fill:none;stroke:#cccccc;stroke-width:0.18228914;stroke-miterlimit:4;stroke-dasharray:none;stroke-dashoffset:0"
         d="m 138.93178,114.40907 c -0.49857,-2.11454 -5.97364,-5.96737 -5.9691,-4.20048 0.003,0.64979 5.12995,5.06037 5.8838,5.06037 0.17207,0 0.20642,-0.34621 0.0852,-0.85989 z"
         id="traps5">
        <title
           id="title7862">traps</title>
      </path>
      <path
         style="fill:none;stroke:#cccccc;stroke-width:0.18228914;stroke-miterlimit:4;stroke-dasharray:none;stroke-dashoffset:0"
         d="m 152.77058,114.31407 c 1.21477,-0.84359 4.35199,-3.84002 4.35119,-4.15591 -0.004,-1.28516 -4.58374,1.3797 -5.69228,3.31172 -1.03316,1.80068 -0.51027,2.12984 1.34109,0.84419 z"
         id="traps6">
        <title
           id="title7864">traps</title>
      </path>
      <path
         style="fill:none;stroke:#cccccc;stroke-width:0.18228914;stroke-miterlimit:4;stroke-dasharray:none;stroke-dashoffset:0"
         d="m 142.23624,104.02425 c 0.01,-0.94673 -0.0675,-1.21006 -0.26854,-0.92604 -0.15464,0.21828 -0.27226,1.05172 -0.26141,1.85208 0.0253,1.86382 0.51147,1.01426 0.52995,-0.92604 z"
         id="sternos3">
        <title
           id="title7790">sternos</title>
      </path>
      <path
         style="fill:none;stroke:#cccccc;stroke-width:0.18228914;stroke-miterlimit:4;stroke-dasharray:none;stroke-dashoffset:0"
         d="m 147.7664,102.7297 c -0.26548,-0.22413 -0.30321,-0.0832 -0.16066,0.60002 0.10251,0.49113 0.10424,1.97901 0.13505,2.43376 0.0309,0.45476 0.58575,-0.17224 0.64331,-0.95701 0.0648,-0.88286 -0.40299,-1.8955 -0.6177,-2.07677 z"
         id="sternos4">
        <title
           id="title7792">sternos</title>
      </path>
      <path
         style="fill:none;stroke:#1b9cf9;stroke-width:0.65854785;stroke-miterlimit:4;stroke-dasharray:0.65854785,0.65854785;stroke-dashoffset:0;stroke-opacity:1"
         d="m 141.38355,102.32634 c -0.003,-1.12609 5.18778,-1.33871 6.76988,-0.27731 0.46451,0.31164 0.883,0.52636 0.92998,0.47717 2.40913,-2.52298 3.55104,-7.537962 0.3687,-11.867353 -4.63173,-4.782388 -11.64569,-0.08814 -10.94062,7.32456 0.23387,2.458943 2.87653,6.068723 2.87207,4.342933 z"
         id="head2">
        <title
           id="title4781">head</title>
      </path>
      <path
         style="fill:none;stroke:#14e809;stroke-width:0.78607702;stroke-miterlimit:4;stroke-dasharray:0.78607704, 0.78607704;stroke-dashoffset:0;stroke-opacity:1"
         d="m 106.07807,183.04901 c -0.0637,-2.34171 1.32934,-1.76529 2.40653,-1.17371 1.16394,0.65862 2.37936,1.89926 3.49266,2.04323 0.6631,0.10012 2.78767,-1.0963 3.20555,-3.74817 0.0918,-0.82218 -0.71655,-1.79011 -1.41612,-1.9209 -1.69756,-0.25735 -2.61152,-1.25299 -3.15389,-2.2586 -2.11387,-4.80808 0.47846,-4.09151 0.51309,-3.69872 0.45524,5.1632 3.5539,5.8638 3.73387,3.61795 -0.005,-3.86658 9.34006,-2.7554 7.26168,5.11284 -2.17641,7.46521 -8.19956,5.64364 -11.96683,3.72819 -0.92563,-0.47063 -2.46105,-1.53615 -2.55901,-0.72093 -0.45433,3.7809 -1.48895,0.0691 -1.51753,-0.98118 z"
         id="nutrition">
        <title
           id="title7952">nutrition</title>
      </path>
      <path
         style="fill:none;stroke:#f30606;stroke-width:0.78157914;stroke-miterlimit:4;stroke-dasharray:0.78157912, 0.78157912;stroke-dashoffset:0;stroke-opacity:1"
         d="m 110.30214,164.55091 c -4.39997,-4.47187 -4.76387,-5.08698 -4.24757,-7.17999 0.80662,-3.2699 4.71485,-4.15337 7.14873,-1.616 0.71499,0.74542 0.71499,0.74542 1.59338,-0.0873 2.93219,-2.77973 7.22081,-1.18986 7.22977,2.68019 0.004,1.64231 -0.36903,2.17173 -4.36835,6.2031 l -3.6931,3.7227 z"
         id="cardio">
        <title
           id="title7950">cardio</title>
      </path>
    </g>
  </g>
</svg>
